<?xml version="1.0" encoding="UTF-8" standalone="no"?>
<!-- Created with Inkscape (http://www.inkscape.org/) -->

<svg
   xmlns:dc="http://purl.org/dc/elements/1.1/"
   xmlns:cc="http://creativecommons.org/ns#"
   xmlns:rdf="http://www.w3.org/1999/02/22-rdf-syntax-ns#"
   xmlns:svg="http://www.w3.org/2000/svg"
   xmlns="http://www.w3.org/2000/svg"
   xmlns:sodipodi="http://sodipodi.sourceforge.net/DTD/sodipodi-0.dtd"
   xmlns:inkscape="http://www.inkscape.org/namespaces/inkscape"
   id="svg2"
   version="1.1"
   inkscape:version="0.48.3.1 r9886"
   width="990"
   height="765"
   xml:space="preserve"
   sodipodi:docname="Circle.eps"><metadata
     id="metadata8"><rdf:RDF><cc:Work
         rdf:about=""><dc:format>image/svg+xml</dc:format><dc:type
           rdf:resource="http://purl.org/dc/dcmitype/StillImage" /><dc:title></dc:title></cc:Work></rdf:RDF></metadata><defs
     id="defs6" /><sodipodi:namedview
     pagecolor="#ffffff"
     bordercolor="#666666"
     borderopacity="1"
     objecttolerance="10"
     gridtolerance="10"
     guidetolerance="10"
     inkscape:pageopacity="0"
     inkscape:pageshadow="2"
     inkscape:window-width="1855"
     inkscape:window-height="1056"
     id="namedview4"
     showgrid="true"
     inkscape:zoom="1.2339869"
     inkscape:cx="421.69725"
     inkscape:cy="373.24534"
     inkscape:window-x="65"
     inkscape:window-y="24"
     inkscape:window-maximized="1"
     inkscape:current-layer="g10"><inkscape:grid
       type="xygrid"
       id="grid3283" /></sodipodi:namedview><g
     id="g10"
     inkscape:groupmode="layer"
     inkscape:label="ink_ext_XXXXXX"
     transform="matrix(0,1.25,1.25,0,0,0)"><g
       id="g12"
       transform="matrix(0.1,0,0,0.1,-0.95169491,0.64830509)"><path
         d="m 4440,2408 0,63 m 0,3920 0,-63"
         style="fill:none;stroke:#000000;stroke-width:10;stroke-linecap:butt;stroke-linejoin:miter;stroke-miterlimit:3.79999995;stroke-opacity:1;stroke-dasharray:none"
         id="path14"
         inkscape:connector-curvature="0" /><g
         id="g16"
         transform="scale(10,10)"><text
           transform="matrix(0,1,1,0,452,191.721)"
           id="text18"><tspan
             style="font-size:24px;font-variant:normal;font-weight:normal;writing-mode:lr-tb;fill:#000000;fill-opacity:1;fill-rule:nonzero;stroke:none;font-family:Helvetica;-inkscape-font-specification:Helvetica"
             x="0 7.9920001 21.336"
             y="0"
             sodipodi:role="line"
             id="tspan20">-10</tspan></text>
</g><path
         d="m 3610,2408 0,63 m 0,3920 0,-63"
         style="fill:none;stroke:#000000;stroke-width:10;stroke-linecap:butt;stroke-linejoin:miter;stroke-miterlimit:3.79999995;stroke-opacity:1;stroke-dasharray:none"
         id="path22"
         inkscape:connector-curvature="0" /><g
         id="g24"
         transform="scale(10,10)"><text
           transform="matrix(0,1,1,0,369,205.064)"
           id="text26"><tspan
             style="font-size:24px;font-variant:normal;font-weight:normal;writing-mode:lr-tb;fill:#000000;fill-opacity:1;fill-rule:nonzero;stroke:none;font-family:Helvetica;-inkscape-font-specification:Helvetica"
             x="0 7.9920001"
             y="0"
             sodipodi:role="line"
             id="tspan28">-5</tspan></text>
</g><path
         d="m 2780,2408 0,63 m 0,3920 0,-63"
         style="fill:none;stroke:#000000;stroke-width:10;stroke-linecap:butt;stroke-linejoin:miter;stroke-miterlimit:3.79999995;stroke-opacity:1;stroke-dasharray:none"
         id="path30"
         inkscape:connector-curvature="0" /><g
         id="g32"
         transform="scale(10,10)"><text
           transform="matrix(0,1,1,0,286,213.056)"
           id="text34"><tspan
             style="font-size:24px;font-variant:normal;font-weight:normal;writing-mode:lr-tb;fill:#000000;fill-opacity:1;fill-rule:nonzero;stroke:none;font-family:Helvetica;-inkscape-font-specification:Helvetica"
             x="0"
             y="0"
             id="tspan36">0</tspan></text>
</g><path
         d="m 1951,2408 0,63 m 0,3920 0,-63"
         style="fill:none;stroke:#000000;stroke-width:10;stroke-linecap:butt;stroke-linejoin:miter;stroke-miterlimit:3.79999995;stroke-opacity:1;stroke-dasharray:none"
         id="path38"
         inkscape:connector-curvature="0" /><g
         id="g40"
         transform="scale(10,10)"><text
           transform="matrix(0,1,1,0,203.1,213.056)"
           id="text42"><tspan
             style="font-size:24px;font-variant:normal;font-weight:normal;writing-mode:lr-tb;fill:#000000;fill-opacity:1;fill-rule:nonzero;stroke:none;font-family:Helvetica;-inkscape-font-specification:Helvetica"
             x="0"
             y="0"
             id="tspan44">5</tspan></text>
</g><path
         d="m 1121,2408 0,63 m 0,3920 0,-63"
         style="fill:none;stroke:#000000;stroke-width:10;stroke-linecap:butt;stroke-linejoin:miter;stroke-miterlimit:3.79999995;stroke-opacity:1;stroke-dasharray:none"
         id="path46"
         inkscape:connector-curvature="0" /><g
         id="g48"
         transform="scale(10,10)"><text
           transform="matrix(0,1,1,0,120.1,199.713)"
           id="text50"><tspan
             style="font-size:24px;font-variant:normal;font-weight:normal;writing-mode:lr-tb;fill:#000000;fill-opacity:1;fill-rule:nonzero;stroke:none;font-family:Helvetica;-inkscape-font-specification:Helvetica"
             x="0 13.344"
             y="0"
             sodipodi:role="line"
             id="tspan52">10</tspan></text>
</g><path
         d="m 4772,2740 -63,0 m -3920,0 63,0"
         style="fill:none;stroke:#000000;stroke-width:10;stroke-linecap:butt;stroke-linejoin:miter;stroke-miterlimit:3.79999995;stroke-opacity:1;stroke-dasharray:none"
         id="path54"
         inkscape:connector-curvature="0" /><g
         id="g56"
         transform="scale(10,10)"><text
           transform="matrix(0,1,1,0,509.2,256.661)"
           id="text58"><tspan
             style="font-size:24px;font-variant:normal;font-weight:normal;writing-mode:lr-tb;fill:#000000;fill-opacity:1;fill-rule:nonzero;stroke:none;font-family:Helvetica;-inkscape-font-specification:Helvetica"
             x="0 7.9920001 21.336"
             y="0"
             sodipodi:role="line"
             id="tspan60">-10</tspan></text>
</g><path
         d="m 4772,3570 -63,0 m -3920,0 63,0"
         style="fill:none;stroke:#000000;stroke-width:10;stroke-linecap:butt;stroke-linejoin:miter;stroke-miterlimit:3.79999995;stroke-opacity:1;stroke-dasharray:none"
         id="path62"
         inkscape:connector-curvature="0" /><g
         id="g64"
         transform="scale(10,10)"><text
           transform="matrix(0,1,1,0,509.2,346.332)"
           id="text66"><tspan
             style="font-size:24px;font-variant:normal;font-weight:normal;writing-mode:lr-tb;fill:#000000;fill-opacity:1;fill-rule:nonzero;stroke:none;font-family:Helvetica;-inkscape-font-specification:Helvetica"
             x="0 7.9920001"
             y="0"
             sodipodi:role="line"
             id="tspan68">-5</tspan></text>
</g><path
         d="m 4772,4400 -63,0 m -3920,0 63,0"
         style="fill:none;stroke:#000000;stroke-width:10;stroke-linecap:butt;stroke-linejoin:miter;stroke-miterlimit:3.79999995;stroke-opacity:1;stroke-dasharray:none"
         id="path70"
         inkscape:connector-curvature="0" /><g
         id="g72"
         transform="scale(10,10)"><text
           transform="matrix(0,1,1,0,509.2,436.664)"
           id="text74"><tspan
             style="font-size:24px;font-variant:normal;font-weight:normal;writing-mode:lr-tb;fill:#000000;fill-opacity:1;fill-rule:nonzero;stroke:none;font-family:Helvetica;-inkscape-font-specification:Helvetica"
             x="0"
             y="0"
             id="tspan76">0</tspan></text>
</g><path
         d="m 4772,5229 -63,0 m -3920,0 63,0"
         style="fill:none;stroke:#000000;stroke-width:10;stroke-linecap:butt;stroke-linejoin:miter;stroke-miterlimit:3.79999995;stroke-opacity:1;stroke-dasharray:none"
         id="path78"
         inkscape:connector-curvature="0" /><g
         id="g80"
         transform="scale(10,10)"><text
           transform="matrix(0,1,1,0,509.2,519.564)"
           id="text82"><tspan
             style="font-size:24px;font-variant:normal;font-weight:normal;writing-mode:lr-tb;fill:#000000;fill-opacity:1;fill-rule:nonzero;stroke:none;font-family:Helvetica;-inkscape-font-specification:Helvetica"
             x="0"
             y="0"
             id="tspan84">5</tspan></text>
</g><path
         d="m 4772,6059 -63,0 m -3920,0 63,0"
         style="fill:none;stroke:#000000;stroke-width:10;stroke-linecap:butt;stroke-linejoin:miter;stroke-miterlimit:3.79999995;stroke-opacity:1;stroke-dasharray:none"
         id="path86"
         inkscape:connector-curvature="0" /><g
         id="g88"
         transform="scale(10,10)"><text
           transform="matrix(0,1,1,0,509.2,595.892)"
           id="text90"><tspan
             style="font-size:24px;font-variant:normal;font-weight:normal;writing-mode:lr-tb;fill:#000000;fill-opacity:1;fill-rule:nonzero;stroke:none;font-family:Helvetica;-inkscape-font-specification:Helvetica"
             x="0 13.344"
             y="0"
             sodipodi:role="line"
             id="tspan92">10</tspan></text>
</g><path
         d="m 789,2408 3983,0 0,3983 -3983,0 0,-3983 z"
         style="fill:none;stroke:#000000;stroke-width:10;stroke-linecap:butt;stroke-linejoin:miter;stroke-miterlimit:3.79999995;stroke-opacity:1;stroke-dasharray:none"
         id="path94"
         inkscape:connector-curvature="0" /><g
         id="g96"
         transform="scale(10,10)"><text
           transform="matrix(-1,0,0,1,284.1,164.8)"
           id="text98"><tspan
             style="font-size:24px;font-variant:normal;font-weight:normal;writing-mode:lr-tb;fill:#000000;fill-opacity:1;fill-rule:nonzero;stroke:none;font-family:Helvetica;-inkscape-font-specification:Helvetica"
             x="0"
             y="0"
             id="tspan100">y</tspan></text>
<text
           transform="matrix(0,1,1,0,545.2,433.9)"
           id="text102"><tspan
             style="font-size:24px;font-variant:normal;font-weight:normal;writing-mode:lr-tb;fill:#000000;fill-opacity:1;fill-rule:nonzero;stroke:none;font-family:Helvetica;-inkscape-font-specification:Helvetica"
             x="0"
             y="0"
             id="tspan104">x</tspan></text>
</g><path
         d="m 1470,3394.5 c -17.39,0 -31.5,-14.11 -31.5,-31.5 0,-17.39 14.11,-31.5 31.5,-31.5 17.39,0 31.5,14.11 31.5,31.5 0,17.39 -14.11,31.5 -31.5,31.5"
         style="fill:#0000ff;fill-opacity:1;fill-rule:nonzero;stroke:none"
         id="path106"
         inkscape:connector-curvature="0" /><path
         d="m 1228,3736.5 c -17.39,0 -31.5,-14.11 -31.5,-31.5 0,-17.39 14.11,-31.5 31.5,-31.5 17.39,0 31.5,14.11 31.5,31.5 0,17.39 -14.11,31.5 -31.5,31.5"
         style="fill:#0000ff;fill-opacity:1;fill-rule:nonzero;stroke:none"
         id="path108"
         inkscape:connector-curvature="0" /><path
         d="m 1480,3405.5 c -17.39,0 -31.5,-14.11 -31.5,-31.5 0,-17.39 14.11,-31.5 31.5,-31.5 17.39,0 31.5,14.11 31.5,31.5 0,17.39 -14.11,31.5 -31.5,31.5"
         style="fill:#0000ff;fill-opacity:1;fill-rule:nonzero;stroke:none"
         id="path110"
         inkscape:connector-curvature="0" /><path
         d="m 1396,3674.5 c -17.39,0 -31.5,-14.11 -31.5,-31.5 0,-17.39 14.11,-31.5 31.5,-31.5 17.39,0 31.5,14.11 31.5,31.5 0,17.39 -14.11,31.5 -31.5,31.5"
         style="fill:#0000ff;fill-opacity:1;fill-rule:nonzero;stroke:none"
         id="path112"
         inkscape:connector-curvature="0" /><path
         d="m 1302,3737.5 c -17.39,0 -31.5,-14.11 -31.5,-31.5 0,-17.39 14.11,-31.5 31.5,-31.5 17.39,0 31.5,14.11 31.5,31.5 0,17.39 -14.11,31.5 -31.5,31.5"
         style="fill:#0000ff;fill-opacity:1;fill-rule:nonzero;stroke:none"
         id="path114"
         inkscape:connector-curvature="0" /><path
         d="m 1205,4160.5 c -17.39,0 -31.5,-14.11 -31.5,-31.5 0,-17.39 14.11,-31.5 31.5,-31.5 17.39,0 31.5,14.11 31.5,31.5 0,17.39 -14.11,31.5 -31.5,31.5"
         style="fill:#0000ff;fill-opacity:1;fill-rule:nonzero;stroke:none"
         id="path116"
         inkscape:connector-curvature="0" /><path
         d="m 1282,3762.5 c -17.39,0 -31.5,-14.11 -31.5,-31.5 0,-17.39 14.11,-31.5 31.5,-31.5 17.39,0 31.5,14.11 31.5,31.5 0,17.39 -14.11,31.5 -31.5,31.5"
         style="fill:#0000ff;fill-opacity:1;fill-rule:nonzero;stroke:none"
         id="path118"
         inkscape:connector-curvature="0" /><path
         d="m 1103,4257.5 c -17.39,0 -31.5,-14.11 -31.5,-31.5 0,-17.39 14.11,-31.5 31.5,-31.5 17.39,0 31.5,14.11 31.5,31.5 0,17.39 -14.11,31.5 -31.5,31.5"
         style="fill:#0000ff;fill-opacity:1;fill-rule:nonzero;stroke:none"
         id="path120"
         inkscape:connector-curvature="0" /><path
         d="m 1209,3824.5 c -17.39,0 -31.5,-14.11 -31.5,-31.5 0,-17.39 14.11,-31.5 31.5,-31.5 17.39,0 31.5,14.11 31.5,31.5 0,17.39 -14.11,31.5 -31.5,31.5"
         style="fill:#0000ff;fill-opacity:1;fill-rule:nonzero;stroke:none"
         id="path122"
         inkscape:connector-curvature="0" /><path
         d="m 1174,4153.5 c -17.39,0 -31.5,-14.11 -31.5,-31.5 0,-17.39 14.11,-31.5 31.5,-31.5 17.39,0 31.5,14.11 31.5,31.5 0,17.39 -14.11,31.5 -31.5,31.5"
         style="fill:#0000ff;fill-opacity:1;fill-rule:nonzero;stroke:none"
         id="path124"
         inkscape:connector-curvature="0" /><path
         d="m 1382,3567.5 c -17.39,0 -31.5,-14.11 -31.5,-31.5 0,-17.39 14.11,-31.5 31.5,-31.5 17.39,0 31.5,14.11 31.5,31.5 0,17.39 -14.11,31.5 -31.5,31.5"
         style="fill:#0000ff;fill-opacity:1;fill-rule:nonzero;stroke:none"
         id="path126"
         inkscape:connector-curvature="0" /><path
         d="m 1055,4229.5 c -17.39,0 -31.5,-14.11 -31.5,-31.5 0,-17.39 14.11,-31.5 31.5,-31.5 17.39,0 31.5,14.11 31.5,31.5 0,17.39 -14.11,31.5 -31.5,31.5"
         style="fill:#0000ff;fill-opacity:1;fill-rule:nonzero;stroke:none"
         id="path128"
         inkscape:connector-curvature="0" /><path
         d="m 1296,3627.5 c -17.39,0 -31.5,-14.11 -31.5,-31.5 0,-17.39 14.11,-31.5 31.5,-31.5 17.39,0 31.5,14.11 31.5,31.5 0,17.39 -14.11,31.5 -31.5,31.5"
         style="fill:#0000ff;fill-opacity:1;fill-rule:nonzero;stroke:none"
         id="path130"
         inkscape:connector-curvature="0" /><path
         d="m 1207,3998.5 c -17.39,0 -31.5,-14.11 -31.5,-31.5 0,-17.39 14.11,-31.5 31.5,-31.5 17.39,0 31.5,14.11 31.5,31.5 0,17.39 -14.11,31.5 -31.5,31.5"
         style="fill:#0000ff;fill-opacity:1;fill-rule:nonzero;stroke:none"
         id="path132"
         inkscape:connector-curvature="0" /><path
         d="m 1252,3682.5 c -17.39,0 -31.5,-14.11 -31.5,-31.5 0,-17.39 14.11,-31.5 31.5,-31.5 17.39,0 31.5,14.11 31.5,31.5 0,17.39 -14.11,31.5 -31.5,31.5"
         style="fill:#0000ff;fill-opacity:1;fill-rule:nonzero;stroke:none"
         id="path134"
         inkscape:connector-curvature="0" /><path
         d="m 1373,3484.5 c -17.39,0 -31.5,-14.11 -31.5,-31.5 0,-17.39 14.11,-31.5 31.5,-31.5 17.39,0 31.5,14.11 31.5,31.5 0,17.39 -14.11,31.5 -31.5,31.5"
         style="fill:#0000ff;fill-opacity:1;fill-rule:nonzero;stroke:none"
         id="path136"
         inkscape:connector-curvature="0" /><path
         d="m 1245,3734.5 c -17.39,0 -31.5,-14.11 -31.5,-31.5 0,-17.39 14.11,-31.5 31.5,-31.5 17.39,0 31.5,14.11 31.5,31.5 0,17.39 -14.11,31.5 -31.5,31.5"
         style="fill:#0000ff;fill-opacity:1;fill-rule:nonzero;stroke:none"
         id="path138"
         inkscape:connector-curvature="0" /><path
         d="m 1183,3916.5 c -17.39,0 -31.5,-14.11 -31.5,-31.5 0,-17.39 14.11,-31.5 31.5,-31.5 17.39,0 31.5,14.11 31.5,31.5 0,17.39 -14.11,31.5 -31.5,31.5"
         style="fill:#0000ff;fill-opacity:1;fill-rule:nonzero;stroke:none"
         id="path140"
         inkscape:connector-curvature="0" /><path
         d="m 1245,3607.5 c -17.39,0 -31.5,-14.11 -31.5,-31.5 0,-17.39 14.11,-31.5 31.5,-31.5 17.39,0 31.5,14.11 31.5,31.5 0,17.39 -14.11,31.5 -31.5,31.5"
         style="fill:#0000ff;fill-opacity:1;fill-rule:nonzero;stroke:none"
         id="path142"
         inkscape:connector-curvature="0" /><path
         d="m 1118,4299.5 c -17.39,0 -31.5,-14.11 -31.5,-31.5 0,-17.39 14.11,-31.5 31.5,-31.5 17.39,0 31.5,14.11 31.5,31.5 0,17.39 -14.11,31.5 -31.5,31.5"
         style="fill:#0000ff;fill-opacity:1;fill-rule:nonzero;stroke:none"
         id="path144"
         inkscape:connector-curvature="0" /><path
         d="m 1251,3763.5 c -17.39,0 -31.5,-14.11 -31.5,-31.5 0,-17.39 14.11,-31.5 31.5,-31.5 17.39,0 31.5,14.11 31.5,31.5 0,17.39 -14.11,31.5 -31.5,31.5"
         style="fill:#0000ff;fill-opacity:1;fill-rule:nonzero;stroke:none"
         id="path146"
         inkscape:connector-curvature="0" /><path
         d="m 1293,3554.5 c -17.39,0 -31.5,-14.11 -31.5,-31.5 0,-17.39 14.11,-31.5 31.5,-31.5 17.39,0 31.5,14.11 31.5,31.5 0,17.39 -14.11,31.5 -31.5,31.5"
         style="fill:#0000ff;fill-opacity:1;fill-rule:nonzero;stroke:none"
         id="path148"
         inkscape:connector-curvature="0" /><path
         d="m 1238,3721.5 c -17.39,0 -31.5,-14.11 -31.5,-31.5 0,-17.39 14.11,-31.5 31.5,-31.5 17.39,0 31.5,14.11 31.5,31.5 0,17.39 -14.11,31.5 -31.5,31.5"
         style="fill:#0000ff;fill-opacity:1;fill-rule:nonzero;stroke:none"
         id="path150"
         inkscape:connector-curvature="0" /><path
         d="m 1224,3674.5 c -17.39,0 -31.5,-14.11 -31.5,-31.5 0,-17.39 14.11,-31.5 31.5,-31.5 17.39,0 31.5,14.11 31.5,31.5 0,17.39 -14.11,31.5 -31.5,31.5"
         style="fill:#0000ff;fill-opacity:1;fill-rule:nonzero;stroke:none"
         id="path152"
         inkscape:connector-curvature="0" /><path
         d="m 1093,4372.5 c -17.39,0 -31.5,-14.11 -31.5,-31.5 0,-17.39 14.11,-31.5 31.5,-31.5 17.39,0 31.5,14.11 31.5,31.5 0,17.39 -14.11,31.5 -31.5,31.5"
         style="fill:#0000ff;fill-opacity:1;fill-rule:nonzero;stroke:none"
         id="path154"
         inkscape:connector-curvature="0" /><path
         d="m 1300,3742.5 c -17.39,0 -31.5,-14.11 -31.5,-31.5 0,-17.39 14.11,-31.5 31.5,-31.5 17.39,0 31.5,14.11 31.5,31.5 0,17.39 -14.11,31.5 -31.5,31.5"
         style="fill:#0000ff;fill-opacity:1;fill-rule:nonzero;stroke:none"
         id="path156"
         inkscape:connector-curvature="0" /><path
         d="m 1266,3707.5 c -17.39,0 -31.5,-14.11 -31.5,-31.5 0,-17.39 14.11,-31.5 31.5,-31.5 17.39,0 31.5,14.11 31.5,31.5 0,17.39 -14.11,31.5 -31.5,31.5"
         style="fill:#0000ff;fill-opacity:1;fill-rule:nonzero;stroke:none"
         id="path158"
         inkscape:connector-curvature="0" /><path
         d="m 1201,3716.5 c -17.39,0 -31.5,-14.11 -31.5,-31.5 0,-17.39 14.11,-31.5 31.5,-31.5 17.39,0 31.5,14.11 31.5,31.5 0,17.39 -14.11,31.5 -31.5,31.5"
         style="fill:#0000ff;fill-opacity:1;fill-rule:nonzero;stroke:none"
         id="path160"
         inkscape:connector-curvature="0" /><path
         d="m 1371,3555.5 c -17.39,0 -31.5,-14.11 -31.5,-31.5 0,-17.39 14.11,-31.5 31.5,-31.5 17.39,0 31.5,14.11 31.5,31.5 0,17.39 -14.11,31.5 -31.5,31.5"
         style="fill:#0000ff;fill-opacity:1;fill-rule:nonzero;stroke:none"
         id="path162"
         inkscape:connector-curvature="0" /><path
         d="m 1449,3462.5 c -17.39,0 -31.5,-14.11 -31.5,-31.5 0,-17.39 14.11,-31.5 31.5,-31.5 17.39,0 31.5,14.11 31.5,31.5 0,17.39 -14.11,31.5 -31.5,31.5"
         style="fill:#0000ff;fill-opacity:1;fill-rule:nonzero;stroke:none"
         id="path164"
         inkscape:connector-curvature="0" /><path
         d="m 1265,3571.5 c -17.39,0 -31.5,-14.11 -31.5,-31.5 0,-17.39 14.11,-31.5 31.5,-31.5 17.39,0 31.5,14.11 31.5,31.5 0,17.39 -14.11,31.5 -31.5,31.5"
         style="fill:#0000ff;fill-opacity:1;fill-rule:nonzero;stroke:none"
         id="path166"
         inkscape:connector-curvature="0" /><path
         d="m 1311,3575.5 c -17.39,0 -31.5,-14.11 -31.5,-31.5 0,-17.39 14.11,-31.5 31.5,-31.5 17.39,0 31.5,14.11 31.5,31.5 0,17.39 -14.11,31.5 -31.5,31.5"
         style="fill:#0000ff;fill-opacity:1;fill-rule:nonzero;stroke:none"
         id="path168"
         inkscape:connector-curvature="0" /><path
         d="m 1359,3713.5 c -17.39,0 -31.5,-14.11 -31.5,-31.5 0,-17.39 14.11,-31.5 31.5,-31.5 17.39,0 31.5,14.11 31.5,31.5 0,17.39 -14.11,31.5 -31.5,31.5"
         style="fill:#0000ff;fill-opacity:1;fill-rule:nonzero;stroke:none"
         id="path170"
         inkscape:connector-curvature="0" /><path
         d="m 1497,3314.5 c -17.39,0 -31.5,-14.11 -31.5,-31.5 0,-17.39 14.11,-31.5 31.5,-31.5 17.39,0 31.5,14.11 31.5,31.5 0,17.39 -14.11,31.5 -31.5,31.5"
         style="fill:#0000ff;fill-opacity:1;fill-rule:nonzero;stroke:none"
         id="path172"
         inkscape:connector-curvature="0" /><path
         d="m 1242,3722.5 c -17.39,0 -31.5,-14.11 -31.5,-31.5 0,-17.39 14.11,-31.5 31.5,-31.5 17.39,0 31.5,14.11 31.5,31.5 0,17.39 -14.11,31.5 -31.5,31.5"
         style="fill:#0000ff;fill-opacity:1;fill-rule:nonzero;stroke:none"
         id="path174"
         inkscape:connector-curvature="0" /><path
         d="m 1318,3625.5 c -17.39,0 -31.5,-14.11 -31.5,-31.5 0,-17.39 14.11,-31.5 31.5,-31.5 17.39,0 31.5,14.11 31.5,31.5 0,17.39 -14.11,31.5 -31.5,31.5"
         style="fill:#0000ff;fill-opacity:1;fill-rule:nonzero;stroke:none"
         id="path176"
         inkscape:connector-curvature="0" /><path
         d="m 1353,3591.5 c -17.39,0 -31.5,-14.11 -31.5,-31.5 0,-17.39 14.11,-31.5 31.5,-31.5 17.39,0 31.5,14.11 31.5,31.5 0,17.39 -14.11,31.5 -31.5,31.5"
         style="fill:#0000ff;fill-opacity:1;fill-rule:nonzero;stroke:none"
         id="path178"
         inkscape:connector-curvature="0" /><path
         d="m 1403,3617.5 c -17.39,0 -31.5,-14.11 -31.5,-31.5 0,-17.39 14.11,-31.5 31.5,-31.5 17.39,0 31.5,14.11 31.5,31.5 0,17.39 -14.11,31.5 -31.5,31.5"
         style="fill:#0000ff;fill-opacity:1;fill-rule:nonzero;stroke:none"
         id="path180"
         inkscape:connector-curvature="0" /><path
         d="m 1159,4063.5 c -17.39,0 -31.5,-14.11 -31.5,-31.5 0,-17.39 14.11,-31.5 31.5,-31.5 17.39,0 31.5,14.11 31.5,31.5 0,17.39 -14.11,31.5 -31.5,31.5"
         style="fill:#0000ff;fill-opacity:1;fill-rule:nonzero;stroke:none"
         id="path182"
         inkscape:connector-curvature="0" /><path
         d="m 1336,3681.5 c -17.39,0 -31.5,-14.11 -31.5,-31.5 0,-17.39 14.11,-31.5 31.5,-31.5 17.39,0 31.5,14.11 31.5,31.5 0,17.39 -14.11,31.5 -31.5,31.5"
         style="fill:#0000ff;fill-opacity:1;fill-rule:nonzero;stroke:none"
         id="path184"
         inkscape:connector-curvature="0" /><path
         d="m 1356,3528.5 c -17.39,0 -31.5,-14.11 -31.5,-31.5 0,-17.39 14.11,-31.5 31.5,-31.5 17.39,0 31.5,14.11 31.5,31.5 0,17.39 -14.11,31.5 -31.5,31.5"
         style="fill:#0000ff;fill-opacity:1;fill-rule:nonzero;stroke:none"
         id="path186"
         inkscape:connector-curvature="0" /><path
         d="m 1560,3366.5 c -17.39,0 -31.5,-14.11 -31.5,-31.5 0,-17.39 14.11,-31.5 31.5,-31.5 17.39,0 31.5,14.11 31.5,31.5 0,17.39 -14.11,31.5 -31.5,31.5"
         style="fill:#0000ff;fill-opacity:1;fill-rule:nonzero;stroke:none"
         id="path188"
         inkscape:connector-curvature="0" /><path
         d="m 1292,3862.5 c -17.39,0 -31.5,-14.11 -31.5,-31.5 0,-17.39 14.11,-31.5 31.5,-31.5 17.39,0 31.5,14.11 31.5,31.5 0,17.39 -14.11,31.5 -31.5,31.5"
         style="fill:#0000ff;fill-opacity:1;fill-rule:nonzero;stroke:none"
         id="path190"
         inkscape:connector-curvature="0" /><path
         d="m 1341,3647.5 c -17.39,0 -31.5,-14.11 -31.5,-31.5 0,-17.39 14.11,-31.5 31.5,-31.5 17.39,0 31.5,14.11 31.5,31.5 0,17.39 -14.11,31.5 -31.5,31.5"
         style="fill:#0000ff;fill-opacity:1;fill-rule:nonzero;stroke:none"
         id="path192"
         inkscape:connector-curvature="0" /><path
         d="m 1270,3633.5 c -17.39,0 -31.5,-14.11 -31.5,-31.5 0,-17.39 14.11,-31.5 31.5,-31.5 17.39,0 31.5,14.11 31.5,31.5 0,17.39 -14.11,31.5 -31.5,31.5"
         style="fill:#0000ff;fill-opacity:1;fill-rule:nonzero;stroke:none"
         id="path194"
         inkscape:connector-curvature="0" /><path
         d="m 1321,3548.5 c -17.39,0 -31.5,-14.11 -31.5,-31.5 0,-17.39 14.11,-31.5 31.5,-31.5 17.39,0 31.5,14.11 31.5,31.5 0,17.39 -14.11,31.5 -31.5,31.5"
         style="fill:#0000ff;fill-opacity:1;fill-rule:nonzero;stroke:none"
         id="path196"
         inkscape:connector-curvature="0" /><path
         d="m 1363,3697.5 c -17.39,0 -31.5,-14.11 -31.5,-31.5 0,-17.39 14.11,-31.5 31.5,-31.5 17.39,0 31.5,14.11 31.5,31.5 0,17.39 -14.11,31.5 -31.5,31.5"
         style="fill:#0000ff;fill-opacity:1;fill-rule:nonzero;stroke:none"
         id="path198"
         inkscape:connector-curvature="0" /><path
         d="m 1350,3558.5 c -17.39,0 -31.5,-14.11 -31.5,-31.5 0,-17.39 14.11,-31.5 31.5,-31.5 17.39,0 31.5,14.11 31.5,31.5 0,17.39 -14.11,31.5 -31.5,31.5"
         style="fill:#0000ff;fill-opacity:1;fill-rule:nonzero;stroke:none"
         id="path200"
         inkscape:connector-curvature="0" /><path
         d="m 1390,3648.5 c -17.39,0 -31.5,-14.11 -31.5,-31.5 0,-17.39 14.11,-31.5 31.5,-31.5 17.39,0 31.5,14.11 31.5,31.5 0,17.39 -14.11,31.5 -31.5,31.5"
         style="fill:#0000ff;fill-opacity:1;fill-rule:nonzero;stroke:none"
         id="path202"
         inkscape:connector-curvature="0" /><path
         d="m 1341,3748.5 c -17.39,0 -31.5,-14.11 -31.5,-31.5 0,-17.39 14.11,-31.5 31.5,-31.5 17.39,0 31.5,14.11 31.5,31.5 0,17.39 -14.11,31.5 -31.5,31.5"
         style="fill:#0000ff;fill-opacity:1;fill-rule:nonzero;stroke:none"
         id="path204"
         inkscape:connector-curvature="0" /><path
         d="m 4068,5265.5 c -17.39,0 -31.5,-14.11 -31.5,-31.5 0,-17.39 14.11,-31.5 31.5,-31.5 17.39,0 31.5,14.11 31.5,31.5 0,17.39 -14.11,31.5 -31.5,31.5"
         style="fill:#ff0000;fill-opacity:1;fill-rule:nonzero;stroke:none"
         id="path206"
         inkscape:connector-curvature="0" /><path
         d="m 3884,5488.5 c -17.39,0 -31.5,-14.11 -31.5,-31.5 0,-17.39 14.11,-31.5 31.5,-31.5 17.39,0 31.5,14.11 31.5,31.5 0,17.39 -14.11,31.5 -31.5,31.5"
         style="fill:#ff0000;fill-opacity:1;fill-rule:nonzero;stroke:none"
         id="path208"
         inkscape:connector-curvature="0" /><path
         d="m 4218,4850.5 c -17.39,0 -31.5,-14.11 -31.5,-31.5 0,-17.39 14.11,-31.5 31.5,-31.5 17.39,0 31.5,14.11 31.5,31.5 0,17.39 -14.11,31.5 -31.5,31.5"
         style="fill:#ff0000;fill-opacity:1;fill-rule:nonzero;stroke:none"
         id="path210"
         inkscape:connector-curvature="0" /><path
         d="m 4242,4976.5 c -17.39,0 -31.5,-14.11 -31.5,-31.5 0,-17.39 14.11,-31.5 31.5,-31.5 17.39,0 31.5,14.11 31.5,31.5 0,17.39 -14.11,31.5 -31.5,31.5"
         style="fill:#ff0000;fill-opacity:1;fill-rule:nonzero;stroke:none"
         id="path212"
         inkscape:connector-curvature="0" /><path
         d="m 4161,5256.5 c -17.39,0 -31.5,-14.11 -31.5,-31.5 0,-17.39 14.11,-31.5 31.5,-31.5 17.39,0 31.5,14.11 31.5,31.5 0,17.39 -14.11,31.5 -31.5,31.5"
         style="fill:#ff0000;fill-opacity:1;fill-rule:nonzero;stroke:none"
         id="path214"
         inkscape:connector-curvature="0" /><path
         d="m 4116,5146.5 c -17.39,0 -31.5,-14.11 -31.5,-31.5 0,-17.39 14.11,-31.5 31.5,-31.5 17.39,0 31.5,14.11 31.5,31.5 0,17.39 -14.11,31.5 -31.5,31.5"
         style="fill:#ff0000;fill-opacity:1;fill-rule:nonzero;stroke:none"
         id="path216"
         inkscape:connector-curvature="0" /><path
         d="m 4077,5424.5 c -17.39,0 -31.5,-14.11 -31.5,-31.5 0,-17.39 14.11,-31.5 31.5,-31.5 17.39,0 31.5,14.11 31.5,31.5 0,17.39 -14.11,31.5 -31.5,31.5"
         style="fill:#ff0000;fill-opacity:1;fill-rule:nonzero;stroke:none"
         id="path218"
         inkscape:connector-curvature="0" /><path
         d="m 4254,5028.5 c -17.39,0 -31.5,-14.11 -31.5,-31.5 0,-17.39 14.11,-31.5 31.5,-31.5 17.39,0 31.5,14.11 31.5,31.5 0,17.39 -14.11,31.5 -31.5,31.5"
         style="fill:#ff0000;fill-opacity:1;fill-rule:nonzero;stroke:none"
         id="path220"
         inkscape:connector-curvature="0" /><path
         d="m 4098,5174.5 c -17.39,0 -31.5,-14.11 -31.5,-31.5 0,-17.39 14.11,-31.5 31.5,-31.5 17.39,0 31.5,14.11 31.5,31.5 0,17.39 -14.11,31.5 -31.5,31.5"
         style="fill:#ff0000;fill-opacity:1;fill-rule:nonzero;stroke:none"
         id="path222"
         inkscape:connector-curvature="0" /><path
         d="m 4247,5147.5 c -17.39,0 -31.5,-14.11 -31.5,-31.5 0,-17.39 14.11,-31.5 31.5,-31.5 17.39,0 31.5,14.11 31.5,31.5 0,17.39 -14.11,31.5 -31.5,31.5"
         style="fill:#ff0000;fill-opacity:1;fill-rule:nonzero;stroke:none"
         id="path224"
         inkscape:connector-curvature="0" /><path
         d="m 4249,5146.5 c -17.39,0 -31.5,-14.11 -31.5,-31.5 0,-17.39 14.11,-31.5 31.5,-31.5 17.39,0 31.5,14.11 31.5,31.5 0,17.39 -14.11,31.5 -31.5,31.5"
         style="fill:#ff0000;fill-opacity:1;fill-rule:nonzero;stroke:none"
         id="path226"
         inkscape:connector-curvature="0" /><path
         d="m 3975,5501.5 c -17.39,0 -31.5,-14.11 -31.5,-31.5 0,-17.39 14.11,-31.5 31.5,-31.5 17.39,0 31.5,14.11 31.5,31.5 0,17.39 -14.11,31.5 -31.5,31.5"
         style="fill:#ff0000;fill-opacity:1;fill-rule:nonzero;stroke:none"
         id="path228"
         inkscape:connector-curvature="0" /><path
         d="m 4333,4398.5 c -17.39,0 -31.5,-14.11 -31.5,-31.5 0,-17.39 14.11,-31.5 31.5,-31.5 17.39,0 31.5,14.11 31.5,31.5 0,17.39 -14.11,31.5 -31.5,31.5"
         style="fill:#ff0000;fill-opacity:1;fill-rule:nonzero;stroke:none"
         id="path230"
         inkscape:connector-curvature="0" /><path
         d="m 3901,5531.5 c -17.39,0 -31.5,-14.11 -31.5,-31.5 0,-17.39 14.11,-31.5 31.5,-31.5 17.39,0 31.5,14.11 31.5,31.5 0,17.39 -14.11,31.5 -31.5,31.5"
         style="fill:#ff0000;fill-opacity:1;fill-rule:nonzero;stroke:none"
         id="path232"
         inkscape:connector-curvature="0" /><path
         d="m 4174,5238.5 c -17.39,0 -31.5,-14.11 -31.5,-31.5 0,-17.39 14.11,-31.5 31.5,-31.5 17.39,0 31.5,14.11 31.5,31.5 0,17.39 -14.11,31.5 -31.5,31.5"
         style="fill:#ff0000;fill-opacity:1;fill-rule:nonzero;stroke:none"
         id="path234"
         inkscape:connector-curvature="0" /><path
         d="m 4206,5260.5 c -17.39,0 -31.5,-14.11 -31.5,-31.5 0,-17.39 14.11,-31.5 31.5,-31.5 17.39,0 31.5,14.11 31.5,31.5 0,17.39 -14.11,31.5 -31.5,31.5"
         style="fill:#ff0000;fill-opacity:1;fill-rule:nonzero;stroke:none"
         id="path236"
         inkscape:connector-curvature="0" /><path
         d="m 4143,5322.5 c -17.39,0 -31.5,-14.11 -31.5,-31.5 0,-17.39 14.11,-31.5 31.5,-31.5 17.39,0 31.5,14.11 31.5,31.5 0,17.39 -14.11,31.5 -31.5,31.5"
         style="fill:#ff0000;fill-opacity:1;fill-rule:nonzero;stroke:none"
         id="path238"
         inkscape:connector-curvature="0" /><path
         d="m 4155,5266.5 c -17.39,0 -31.5,-14.11 -31.5,-31.5 0,-17.39 14.11,-31.5 31.5,-31.5 17.39,0 31.5,14.11 31.5,31.5 0,17.39 -14.11,31.5 -31.5,31.5"
         style="fill:#ff0000;fill-opacity:1;fill-rule:nonzero;stroke:none"
         id="path240"
         inkscape:connector-curvature="0" /><path
         d="m 4416,4404.5 c -17.39,0 -31.5,-14.11 -31.5,-31.5 0,-17.39 14.11,-31.5 31.5,-31.5 17.39,0 31.5,14.11 31.5,31.5 0,17.39 -14.11,31.5 -31.5,31.5"
         style="fill:#ff0000;fill-opacity:1;fill-rule:nonzero;stroke:none"
         id="path242"
         inkscape:connector-curvature="0" /><path
         d="m 4198,5183.5 c -17.39,0 -31.5,-14.11 -31.5,-31.5 0,-17.39 14.11,-31.5 31.5,-31.5 17.39,0 31.5,14.11 31.5,31.5 0,17.39 -14.11,31.5 -31.5,31.5"
         style="fill:#ff0000;fill-opacity:1;fill-rule:nonzero;stroke:none"
         id="path244"
         inkscape:connector-curvature="0" /><path
         d="m 4290,5106.5 c -17.39,0 -31.5,-14.11 -31.5,-31.5 0,-17.39 14.11,-31.5 31.5,-31.5 17.39,0 31.5,14.11 31.5,31.5 0,17.39 -14.11,31.5 -31.5,31.5"
         style="fill:#ff0000;fill-opacity:1;fill-rule:nonzero;stroke:none"
         id="path246"
         inkscape:connector-curvature="0" /><path
         d="m 4120,5210.5 c -17.39,0 -31.5,-14.11 -31.5,-31.5 0,-17.39 14.11,-31.5 31.5,-31.5 17.39,0 31.5,14.11 31.5,31.5 0,17.39 -14.11,31.5 -31.5,31.5"
         style="fill:#ff0000;fill-opacity:1;fill-rule:nonzero;stroke:none"
         id="path248"
         inkscape:connector-curvature="0" /><path
         d="m 4134,5186.5 c -17.39,0 -31.5,-14.11 -31.5,-31.5 0,-17.39 14.11,-31.5 31.5,-31.5 17.39,0 31.5,14.11 31.5,31.5 0,17.39 -14.11,31.5 -31.5,31.5"
         style="fill:#ff0000;fill-opacity:1;fill-rule:nonzero;stroke:none"
         id="path250"
         inkscape:connector-curvature="0" /><path
         d="m 4194,5145.5 c -17.39,0 -31.5,-14.11 -31.5,-31.5 0,-17.39 14.11,-31.5 31.5,-31.5 17.39,0 31.5,14.11 31.5,31.5 0,17.39 -14.11,31.5 -31.5,31.5"
         style="fill:#ff0000;fill-opacity:1;fill-rule:nonzero;stroke:none"
         id="path252"
         inkscape:connector-curvature="0" /><path
         d="m 3844,5521.5 c -17.39,0 -31.5,-14.11 -31.5,-31.5 0,-17.39 14.11,-31.5 31.5,-31.5 17.39,0 31.5,14.11 31.5,31.5 0,17.39 -14.11,31.5 -31.5,31.5"
         style="fill:#ff0000;fill-opacity:1;fill-rule:nonzero;stroke:none"
         id="path254"
         inkscape:connector-curvature="0" /><path
         d="m 4001,5341.5 c -17.39,0 -31.5,-14.11 -31.5,-31.5 0,-17.39 14.11,-31.5 31.5,-31.5 17.39,0 31.5,14.11 31.5,31.5 0,17.39 -14.11,31.5 -31.5,31.5"
         style="fill:#ff0000;fill-opacity:1;fill-rule:nonzero;stroke:none"
         id="path256"
         inkscape:connector-curvature="0" /><path
         d="m 4372,4233.5 c -17.39,0 -31.5,-14.11 -31.5,-31.5 0,-17.39 14.11,-31.5 31.5,-31.5 17.39,0 31.5,14.11 31.5,31.5 0,17.39 -14.11,31.5 -31.5,31.5"
         style="fill:#ff0000;fill-opacity:1;fill-rule:nonzero;stroke:none"
         id="path258"
         inkscape:connector-curvature="0" /><path
         d="m 4158,5115.5 c -17.39,0 -31.5,-14.11 -31.5,-31.5 0,-17.39 14.11,-31.5 31.5,-31.5 17.39,0 31.5,14.11 31.5,31.5 0,17.39 -14.11,31.5 -31.5,31.5"
         style="fill:#ff0000;fill-opacity:1;fill-rule:nonzero;stroke:none"
         id="path260"
         inkscape:connector-curvature="0" /><path
         d="m 4107,5256.5 c -17.39,0 -31.5,-14.11 -31.5,-31.5 0,-17.39 14.11,-31.5 31.5,-31.5 17.39,0 31.5,14.11 31.5,31.5 0,17.39 -14.11,31.5 -31.5,31.5"
         style="fill:#ff0000;fill-opacity:1;fill-rule:nonzero;stroke:none"
         id="path262"
         inkscape:connector-curvature="0" /><path
         d="m 4294,4354.5 c -17.39,0 -31.5,-14.11 -31.5,-31.5 0,-17.39 14.11,-31.5 31.5,-31.5 17.39,0 31.5,14.11 31.5,31.5 0,17.39 -14.11,31.5 -31.5,31.5"
         style="fill:#ff0000;fill-opacity:1;fill-rule:nonzero;stroke:none"
         id="path264"
         inkscape:connector-curvature="0" /><path
         d="m 4184,5267.5 c -17.39,0 -31.5,-14.11 -31.5,-31.5 0,-17.39 14.11,-31.5 31.5,-31.5 17.39,0 31.5,14.11 31.5,31.5 0,17.39 -14.11,31.5 -31.5,31.5"
         style="fill:#ff0000;fill-opacity:1;fill-rule:nonzero;stroke:none"
         id="path266"
         inkscape:connector-curvature="0" /><path
         d="m 4190,5147.5 c -17.39,0 -31.5,-14.11 -31.5,-31.5 0,-17.39 14.11,-31.5 31.5,-31.5 17.39,0 31.5,14.11 31.5,31.5 0,17.39 -14.11,31.5 -31.5,31.5"
         style="fill:#ff0000;fill-opacity:1;fill-rule:nonzero;stroke:none"
         id="path268"
         inkscape:connector-curvature="0" /><path
         d="m 4255,5155.5 c -17.39,0 -31.5,-14.11 -31.5,-31.5 0,-17.39 14.11,-31.5 31.5,-31.5 17.39,0 31.5,14.11 31.5,31.5 0,17.39 -14.11,31.5 -31.5,31.5"
         style="fill:#ff0000;fill-opacity:1;fill-rule:nonzero;stroke:none"
         id="path270"
         inkscape:connector-curvature="0" /><path
         d="m 4143,5088.5 c -17.39,0 -31.5,-14.11 -31.5,-31.5 0,-17.39 14.11,-31.5 31.5,-31.5 17.39,0 31.5,14.11 31.5,31.5 0,17.39 -14.11,31.5 -31.5,31.5"
         style="fill:#ff0000;fill-opacity:1;fill-rule:nonzero;stroke:none"
         id="path272"
         inkscape:connector-curvature="0" /><path
         d="m 4213,5141.5 c -17.39,0 -31.5,-14.11 -31.5,-31.5 0,-17.39 14.11,-31.5 31.5,-31.5 17.39,0 31.5,14.11 31.5,31.5 0,17.39 -14.11,31.5 -31.5,31.5"
         style="fill:#ff0000;fill-opacity:1;fill-rule:nonzero;stroke:none"
         id="path274"
         inkscape:connector-curvature="0" /><path
         d="m 4129,5132.5 c -17.39,0 -31.5,-14.11 -31.5,-31.5 0,-17.39 14.11,-31.5 31.5,-31.5 17.39,0 31.5,14.11 31.5,31.5 0,17.39 -14.11,31.5 -31.5,31.5"
         style="fill:#ff0000;fill-opacity:1;fill-rule:nonzero;stroke:none"
         id="path276"
         inkscape:connector-curvature="0" /><path
         d="m 4131,5139.5 c -17.39,0 -31.5,-14.11 -31.5,-31.5 0,-17.39 14.11,-31.5 31.5,-31.5 17.39,0 31.5,14.11 31.5,31.5 0,17.39 -14.11,31.5 -31.5,31.5"
         style="fill:#ff0000;fill-opacity:1;fill-rule:nonzero;stroke:none"
         id="path278"
         inkscape:connector-curvature="0" /><path
         d="m 4248,5136.5 c -17.39,0 -31.5,-14.11 -31.5,-31.5 0,-17.39 14.11,-31.5 31.5,-31.5 17.39,0 31.5,14.11 31.5,31.5 0,17.39 -14.11,31.5 -31.5,31.5"
         style="fill:#ff0000;fill-opacity:1;fill-rule:nonzero;stroke:none"
         id="path280"
         inkscape:connector-curvature="0" /><path
         d="m 4283,5065.5 c -17.39,0 -31.5,-14.11 -31.5,-31.5 0,-17.39 14.11,-31.5 31.5,-31.5 17.39,0 31.5,14.11 31.5,31.5 0,17.39 -14.11,31.5 -31.5,31.5"
         style="fill:#ff0000;fill-opacity:1;fill-rule:nonzero;stroke:none"
         id="path282"
         inkscape:connector-curvature="0" /><path
         d="m 4300,4372.5 c -17.39,0 -31.5,-14.11 -31.5,-31.5 0,-17.39 14.11,-31.5 31.5,-31.5 17.39,0 31.5,14.11 31.5,31.5 0,17.39 -14.11,31.5 -31.5,31.5"
         style="fill:#ff0000;fill-opacity:1;fill-rule:nonzero;stroke:none"
         id="path284"
         inkscape:connector-curvature="0" /><path
         d="m 4134,5161.5 c -17.39,0 -31.5,-14.11 -31.5,-31.5 0,-17.39 14.11,-31.5 31.5,-31.5 17.39,0 31.5,14.11 31.5,31.5 0,17.39 -14.11,31.5 -31.5,31.5"
         style="fill:#ff0000;fill-opacity:1;fill-rule:nonzero;stroke:none"
         id="path286"
         inkscape:connector-curvature="0" /><path
         d="m 4072,5188.5 c -17.39,0 -31.5,-14.11 -31.5,-31.5 0,-17.39 14.11,-31.5 31.5,-31.5 17.39,0 31.5,14.11 31.5,31.5 0,17.39 -14.11,31.5 -31.5,31.5"
         style="fill:#ff0000;fill-opacity:1;fill-rule:nonzero;stroke:none"
         id="path288"
         inkscape:connector-curvature="0" /><path
         d="m 4259,4745.5 c -17.39,0 -31.5,-14.11 -31.5,-31.5 0,-17.39 14.11,-31.5 31.5,-31.5 17.39,0 31.5,14.11 31.5,31.5 0,17.39 -14.11,31.5 -31.5,31.5"
         style="fill:#ff0000;fill-opacity:1;fill-rule:nonzero;stroke:none"
         id="path290"
         inkscape:connector-curvature="0" /><path
         d="m 4174,5315.5 c -17.39,0 -31.5,-14.11 -31.5,-31.5 0,-17.39 14.11,-31.5 31.5,-31.5 17.39,0 31.5,14.11 31.5,31.5 0,17.39 -14.11,31.5 -31.5,31.5"
         style="fill:#ff0000;fill-opacity:1;fill-rule:nonzero;stroke:none"
         id="path292"
         inkscape:connector-curvature="0" /><path
         d="m 4288,5099.5 c -17.39,0 -31.5,-14.11 -31.5,-31.5 0,-17.39 14.11,-31.5 31.5,-31.5 17.39,0 31.5,14.11 31.5,31.5 0,17.39 -14.11,31.5 -31.5,31.5"
         style="fill:#ff0000;fill-opacity:1;fill-rule:nonzero;stroke:none"
         id="path294"
         inkscape:connector-curvature="0" /><path
         d="m 4304,4742.5 c -17.39,0 -31.5,-14.11 -31.5,-31.5 0,-17.39 14.11,-31.5 31.5,-31.5 17.39,0 31.5,14.11 31.5,31.5 0,17.39 -14.11,31.5 -31.5,31.5"
         style="fill:#ff0000;fill-opacity:1;fill-rule:nonzero;stroke:none"
         id="path296"
         inkscape:connector-curvature="0" /><path
         d="m 4139,5299.5 c -17.39,0 -31.5,-14.11 -31.5,-31.5 0,-17.39 14.11,-31.5 31.5,-31.5 17.39,0 31.5,14.11 31.5,31.5 0,17.39 -14.11,31.5 -31.5,31.5"
         style="fill:#ff0000;fill-opacity:1;fill-rule:nonzero;stroke:none"
         id="path298"
         inkscape:connector-curvature="0" /><path
         d="m 4129,5207.5 c -17.39,0 -31.5,-14.11 -31.5,-31.5 0,-17.39 14.11,-31.5 31.5,-31.5 17.39,0 31.5,14.11 31.5,31.5 0,17.39 -14.11,31.5 -31.5,31.5"
         style="fill:#ff0000;fill-opacity:1;fill-rule:nonzero;stroke:none"
         id="path300"
         inkscape:connector-curvature="0" /><path
         d="m 4248,5188.5 c -17.39,0 -31.5,-14.11 -31.5,-31.5 0,-17.39 14.11,-31.5 31.5,-31.5 17.39,0 31.5,14.11 31.5,31.5 0,17.39 -14.11,31.5 -31.5,31.5"
         style="fill:#ff0000;fill-opacity:1;fill-rule:nonzero;stroke:none"
         id="path302"
         inkscape:connector-curvature="0" /><path
         d="m 4224,4946.5 c -17.39,0 -31.5,-14.11 -31.5,-31.5 0,-17.39 14.11,-31.5 31.5,-31.5 17.39,0 31.5,14.11 31.5,31.5 0,17.39 -14.11,31.5 -31.5,31.5"
         style="fill:#ff0000;fill-opacity:1;fill-rule:nonzero;stroke:none"
         id="path304"
         inkscape:connector-curvature="0" /><path
         d="m 789,2408 3983,0 0,3983 -3983,0 0,-3983 z"
         style="fill:none;stroke:#000000;stroke-width:10;stroke-linecap:butt;stroke-linejoin:miter;stroke-miterlimit:3.79999995;stroke-opacity:1;stroke-dasharray:none"
         id="path306"
         inkscape:connector-curvature="0" /></g><path
       sodipodi:type="arc"
       style="fill:none;stroke:#000000;stroke-width:1.37621403;stroke-miterlimit:4;stroke-opacity:1;stroke-dasharray:none;stroke-dashoffset:0"
       id="path3285"
       sodipodi:cx="650"
       sodipodi:cy="335"
       sodipodi:rx="200"
       sodipodi:ry="190"
       d="m 850,335 a 200,190 0 1 1 -400,0 200,190 0 1 1 400,0 z"
       transform="matrix(0,0.83121074,0.87495868,0,-15.669009,-100.12913)" /></g></svg>