<?xml version="1.0" encoding="UTF-8" standalone="no"?>
<!-- Created with Inkscape (http://www.inkscape.org/) -->

<svg
   xmlns:dc="http://purl.org/dc/elements/1.1/"
   xmlns:cc="http://creativecommons.org/ns#"
   xmlns:rdf="http://www.w3.org/1999/02/22-rdf-syntax-ns#"
   xmlns:svg="http://www.w3.org/2000/svg"
   xmlns="http://www.w3.org/2000/svg"
   xmlns:sodipodi="http://sodipodi.sourceforge.net/DTD/sodipodi-0.dtd"
   xmlns:inkscape="http://www.inkscape.org/namespaces/inkscape"
   id="svg2"
   version="1.1"
   inkscape:version="0.48.4 r9939"
   width="450"
   height="315"
   xml:space="preserve"
   sodipodi:docname="O-fig3.eps"><metadata
     id="metadata8"><rdf:RDF><cc:Work
         rdf:about=""><dc:format>image/svg+xml</dc:format><dc:type
           rdf:resource="http://purl.org/dc/dcmitype/StillImage" /><dc:title></dc:title></cc:Work></rdf:RDF></metadata><defs
     id="defs6"><inkscape:path-effect
       effect="spiro"
       id="path-effect3510-71"
       is_visible="true" /><inkscape:path-effect
       effect="spiro"
       id="path-effect3510-7"
       is_visible="true" /><inkscape:path-effect
       effect="spiro"
       id="path-effect3510"
       is_visible="true" /></defs><sodipodi:namedview
     pagecolor="#ffffff"
     bordercolor="#666666"
     borderopacity="1"
     objecttolerance="10"
     gridtolerance="10"
     guidetolerance="10"
     inkscape:pageopacity="0"
     inkscape:pageshadow="2"
     inkscape:window-width="1855"
     inkscape:window-height="1056"
     id="namedview4"
     showgrid="true"
     inkscape:zoom="2.9968254"
     inkscape:cx="237.71062"
     inkscape:cy="164.93608"
     inkscape:window-x="65"
     inkscape:window-y="24"
     inkscape:window-maximized="1"
     inkscape:current-layer="g10"><inkscape:grid
       type="xygrid"
       id="grid3607" /></sodipodi:namedview><g
     id="g10"
     inkscape:groupmode="layer"
     inkscape:label="ink_ext_XXXXXX"
     transform="matrix(1.25,0,0,-1.25,0,315)"><g
       id="g3449"><path
         d="m 71.5,41.6 3.15,0 m 261.9,0 -3.15,0"
         style="fill:none;stroke:#000000;stroke-width:0.5;stroke-linecap:butt;stroke-linejoin:miter;stroke-miterlimit:3.79999995;stroke-opacity:1;stroke-dasharray:none"
         id="path14"
         inkscape:connector-curvature="0" /><g
         id="g16"><text
           transform="matrix(1,0,0,-1,56.4726,37.2648)"
           id="text18"><tspan
             style="font-size:13px;font-variant:normal;font-weight:normal;writing-mode:lr-tb;fill:#000000;fill-opacity:1;fill-rule:nonzero;stroke:none;font-family:Helvetica;-inkscape-font-specification:Helvetica"
             x="0"
             y="0"
             id="tspan20">0</tspan></text>
</g><path
         d="m 71.5,65.95 1.55,0 m 263.5,0 -1.55,0 M 71.5,90.3 l 3.15,0 m 261.9,0 -3.15,0"
         style="fill:none;stroke:#000000;stroke-width:0.5;stroke-linecap:butt;stroke-linejoin:miter;stroke-miterlimit:3.79999995;stroke-opacity:1;stroke-dasharray:none"
         id="path22"
         inkscape:connector-curvature="0" /><g
         id="g24"><text
           transform="matrix(1,0,0,-1,38.4035,85.9648)"
           id="text26"><tspan
             style="font-size:13px;font-variant:normal;font-weight:normal;writing-mode:lr-tb;fill:#000000;fill-opacity:1;fill-rule:nonzero;stroke:none;font-family:Helvetica;-inkscape-font-specification:Helvetica"
             x="0 7.2280002 10.842 18.07"
             y="0"
             sodipodi:role="line"
             id="tspan28">0.02</tspan></text>
</g><path
         d="m 71.5,114.65 1.55,0 m 263.5,0 -1.55,0 M 71.5,139 l 3.15,0 m 261.9,0 -3.15,0"
         style="fill:none;stroke:#000000;stroke-width:0.5;stroke-linecap:butt;stroke-linejoin:miter;stroke-miterlimit:3.79999995;stroke-opacity:1;stroke-dasharray:none"
         id="path30"
         inkscape:connector-curvature="0" /><g
         id="g32"><text
           transform="matrix(1,0,0,-1,38.4035,134.665)"
           id="text34"><tspan
             style="font-size:13px;font-variant:normal;font-weight:normal;writing-mode:lr-tb;fill:#000000;fill-opacity:1;fill-rule:nonzero;stroke:none;font-family:Helvetica;-inkscape-font-specification:Helvetica"
             x="0 7.2280002 10.842 18.07"
             y="0"
             sodipodi:role="line"
             id="tspan36">0.04</tspan></text>
</g><path
         d="m 71.5,163.3 1.55,0 m 263.5,0 -1.55,0 m -263.5,24.35 3.15,0 m 261.9,0 -3.15,0"
         style="fill:none;stroke:#000000;stroke-width:0.5;stroke-linecap:butt;stroke-linejoin:miter;stroke-miterlimit:3.79999995;stroke-opacity:1;stroke-dasharray:none"
         id="path38"
         inkscape:connector-curvature="0" /><g
         id="g40"><text
           transform="matrix(1,0,0,-1,38.4035,183.315)"
           id="text42"><tspan
             style="font-size:13px;font-variant:normal;font-weight:normal;writing-mode:lr-tb;fill:#000000;fill-opacity:1;fill-rule:nonzero;stroke:none;font-family:Helvetica;-inkscape-font-specification:Helvetica"
             x="0 7.2280002 10.842 18.07"
             y="0"
             sodipodi:role="line"
             id="tspan44">0.06</tspan></text>
</g><path
         d="m 71.5,212 1.55,0 m 263.5,0 -1.55,0 m -263.5,24.35 3.15,0 m 261.9,0 -3.15,0"
         style="fill:none;stroke:#000000;stroke-width:0.5;stroke-linecap:butt;stroke-linejoin:miter;stroke-miterlimit:3.79999995;stroke-opacity:1;stroke-dasharray:none"
         id="path46"
         inkscape:connector-curvature="0" /><g
         id="g48"><text
           transform="matrix(1,0,0,-1,38.4035,232.015)"
           id="text50"><tspan
             style="font-size:13px;font-variant:normal;font-weight:normal;writing-mode:lr-tb;fill:#000000;fill-opacity:1;fill-rule:nonzero;stroke:none;font-family:Helvetica;-inkscape-font-specification:Helvetica"
             x="0 7.2280002 10.842 18.07"
             y="0"
             sodipodi:role="line"
             id="tspan52">0.08</tspan></text>
</g><path
         d="m 71.55,41.6 0,3.15 m 0,191.6 0,-3.15"
         style="fill:none;stroke:#000000;stroke-width:0.5;stroke-linecap:butt;stroke-linejoin:miter;stroke-miterlimit:3.79999995;stroke-opacity:1;stroke-dasharray:none"
         id="path54"
         inkscape:connector-curvature="0" /><g
         id="g56"><text
           transform="matrix(1,0,0,-1,64.3226,24.2648)"
           id="text58"><tspan
             style="font-size:13px;font-variant:normal;font-weight:normal;writing-mode:lr-tb;fill:#000000;fill-opacity:1;fill-rule:nonzero;stroke:none;font-family:Helvetica;-inkscape-font-specification:Helvetica"
             x="0 7.2280002 10.842"
             y="0"
             sodipodi:role="line"
             id="tspan60">0.5</tspan></text>
</g><path
         d="m 82.15,41.6 0,1.55 m 0,193.2 0,-1.55 m 10.6,-193.2 0,1.55 m 0,193.2 0,-1.55 m 10.6,-193.2 0,1.55 m 0,193.2 0,-1.55 m 10.6,-193.2 0,1.55 m 0,193.2 0,-1.55 m 10.6,-193.2 0,3.15 m 0,191.6 0,-3.15"
         style="fill:none;stroke:#000000;stroke-width:0.5;stroke-linecap:butt;stroke-linejoin:miter;stroke-miterlimit:3.79999995;stroke-opacity:1;stroke-dasharray:none"
         id="path62"
         inkscape:connector-curvature="0" /><g
         id="g64"><text
           transform="matrix(1,0,0,-1,117.323,24.2648)"
           id="text66"><tspan
             style="font-size:13px;font-variant:normal;font-weight:normal;writing-mode:lr-tb;fill:#000000;fill-opacity:1;fill-rule:nonzero;stroke:none;font-family:Helvetica;-inkscape-font-specification:Helvetica"
             x="0 7.2280002 10.842"
             y="0"
             sodipodi:role="line"
             id="tspan68">0.6</tspan></text>
</g><path
         d="m 135.15,41.6 0,1.55 m 0,193.2 0,-1.55 m 10.6,-193.2 0,1.55 m 0,193.2 0,-1.55 m 10.6,-193.2 0,1.55 m 0,193.2 0,-1.55 m 10.6,-193.2 0,1.55 m 0,193.2 0,-1.55 m 10.6,-193.2 0,3.15 m 0,191.6 0,-3.15"
         style="fill:none;stroke:#000000;stroke-width:0.5;stroke-linecap:butt;stroke-linejoin:miter;stroke-miterlimit:3.79999995;stroke-opacity:1;stroke-dasharray:none"
         id="path70"
         inkscape:connector-curvature="0" /><g
         id="g72"><text
           transform="matrix(1,0,0,-1,170.323,24.2648)"
           id="text74"><tspan
             style="font-size:13px;font-variant:normal;font-weight:normal;writing-mode:lr-tb;fill:#000000;fill-opacity:1;fill-rule:nonzero;stroke:none;font-family:Helvetica;-inkscape-font-specification:Helvetica"
             x="0 7.2280002 10.842"
             y="0"
             sodipodi:role="line"
             id="tspan76">0.7</tspan></text>
</g><path
         d="m 188.15,41.6 0,1.55 m 0,193.2 0,-1.55 m 10.6,-193.2 0,1.55 m 0,193.2 0,-1.55 m 10.6,-193.2 0,1.55 m 0,193.2 0,-1.55 m 10.6,-193.2 0,1.55 m 0,193.2 0,-1.55 m 10.6,-193.2 0,3.15 m 0,191.6 0,-3.15"
         style="fill:none;stroke:#000000;stroke-width:0.5;stroke-linecap:butt;stroke-linejoin:miter;stroke-miterlimit:3.79999995;stroke-opacity:1;stroke-dasharray:none"
         id="path78"
         inkscape:connector-curvature="0" /><g
         id="g80"><text
           transform="matrix(1,0,0,-1,223.323,24.2648)"
           id="text82"><tspan
             style="font-size:13px;font-variant:normal;font-weight:normal;writing-mode:lr-tb;fill:#000000;fill-opacity:1;fill-rule:nonzero;stroke:none;font-family:Helvetica;-inkscape-font-specification:Helvetica"
             x="0 7.2280002 10.842"
             y="0"
             sodipodi:role="line"
             id="tspan84">0.8</tspan></text>
</g><path
         d="m 241.15,41.6 0,1.55 m 0,193.2 0,-1.55 m 10.6,-193.2 0,1.55 m 0,193.2 0,-1.55 m 10.6,-193.2 0,1.55 m 0,193.2 0,-1.55 m 10.6,-193.2 0,1.55 m 0,193.2 0,-1.55 m 10.6,-193.2 0,3.15 m 0,191.6 0,-3.15"
         style="fill:none;stroke:#000000;stroke-width:0.5;stroke-linecap:butt;stroke-linejoin:miter;stroke-miterlimit:3.79999995;stroke-opacity:1;stroke-dasharray:none"
         id="path86"
         inkscape:connector-curvature="0" /><g
         id="g88"><text
           transform="matrix(1,0,0,-1,276.323,24.2648)"
           id="text90"><tspan
             style="font-size:13px;font-variant:normal;font-weight:normal;writing-mode:lr-tb;fill:#000000;fill-opacity:1;fill-rule:nonzero;stroke:none;font-family:Helvetica;-inkscape-font-specification:Helvetica"
             x="0 7.2280002 10.842"
             y="0"
             sodipodi:role="line"
             id="tspan92">0.9</tspan></text>
</g><path
         d="m 294.15,41.6 0,1.55 m 0,193.2 0,-1.55 m 10.6,-193.2 0,1.55 m 0,193.2 0,-1.55 m 10.6,-193.2 0,1.55 m 0,193.2 0,-1.55 m 10.6,-193.2 0,1.55 m 0,193.2 0,-1.55 m 10.6,-193.2 0,3.15 m 0,191.6 0,-3.15"
         style="fill:none;stroke:#000000;stroke-width:0.5;stroke-linecap:butt;stroke-linejoin:miter;stroke-miterlimit:3.79999995;stroke-opacity:1;stroke-dasharray:none"
         id="path94"
         inkscape:connector-curvature="0" /><g
         id="g96"><text
           transform="matrix(1,0,0,-1,334.743,24.2648)"
           id="text98"><tspan
             style="font-size:13px;font-variant:normal;font-weight:normal;writing-mode:lr-tb;fill:#000000;fill-opacity:1;fill-rule:nonzero;stroke:none;font-family:Helvetica;-inkscape-font-specification:Helvetica"
             x="0"
             y="0"
             id="tspan100">1</tspan></text>
</g><path
         d="m 71.5,41.6 265.05,0 0,194.75 -265.05,0 0,-194.75 z"
         style="fill:none;stroke:#000000;stroke-width:0.5;stroke-linecap:butt;stroke-linejoin:miter;stroke-miterlimit:3.79999995;stroke-opacity:1;stroke-dasharray:none"
         id="path102"
         inkscape:connector-curvature="0" /><path
         d="m 71.55,41.75 0,0.55 m -0.05,-0.55 1.6,0 m -1.6,0.55 1.6,0 m 25,-0.45 0,0.55 m -1.55,-0.55 3.1,0 m -3.1,0.55 3.1,0 m 24.95,-0.45 0,0.9 m -1.55,-0.9 3.1,0 m -3.1,0.9 3.1,0 m 24.85,-0.7 0,1.45 m -1.55,-1.45 3.1,0 m -3.1,1.45 3.1,0 m 25,-0.6 0,4.5 M 176,43 l 3.1,0 m -3.1,4.5 3.1,0 m 9.05,-3.9 0,10.35 m -1.55,-10.35 3.1,0 m -3.1,10.35 3.1,0 m 9.05,-10.5 0,32.9 m -1.55,-32.9 3.1,0 m -3.1,32.9 3.1,0 m 3.75,-11.5 0,46.35 m -1.55,-46.35 3.1,0 m -3.1,46.35 3.1,0 m 3.75,-10 0,35.6 m -1.55,-35.6 3.1,0 m -3.1,35.6 3.1,0 m 9.05,21.7 0,20.4 m -1.55,-20.4 3.1,0 m -3.1,20.4 3.1,0 m 9.1,6.4 0,25.15 m -1.55,-25.15 3.1,0 m -3.1,25.15 3.1,0 m 9.05,1.3 0,14.25 m -1.55,-14.25 3.1,0 m -3.1,14.25 3.1,0 m 9.05,-4.5 0,6.15 m -1.55,-6.15 3.1,0 m -3.1,6.15 3.1,0 m 9.05,-7.55 0,5.75 m -1.55,-5.75 3.1,0 m -3.1,5.75 3.1,0 m 8.95,-12.8 0,7.45 m -1.55,-7.45 3.1,0 m -3.1,7.45 3.1,0 m 9.05,-38.05 0,19.55 m -1.55,-19.55 3.1,0 m -3.1,19.55 3.1,0 m 3.75,-160.25 0,2.15 m -1.55,-2.15 3.1,0 m -3.1,2.15 3.1,0 m 3.75,-2.3 0,0.3 m -1.55,0 3.1,0"
         style="fill:none;stroke:#000000;stroke-width:0.125;stroke-linecap:butt;stroke-linejoin:miter;stroke-miterlimit:3.79999995;stroke-opacity:1;stroke-dasharray:none"
         id="path114"
         inkscape:connector-curvature="0" /><path
         d="m 299.4,41.6 0,0.05 m -1.55,-0.05 3.1,0 m -3.1,0.05 3.1,0 m 7.5,-0.05 3.1,0 m -3.1,0 3.1,0 m 2.25,0 3.1,0 m -3.1,0 3.1,0 m 12.8,0 3.1,0 m -3.1,0 3.1,0"
         style="fill:none;stroke:#000000;stroke-width:0.125;stroke-linecap:butt;stroke-linejoin:miter;stroke-miterlimit:3.79999995;stroke-opacity:1;stroke-dasharray:none"
         id="path116"
         inkscape:connector-curvature="0" /><path
         d="m 73.4398,42.05 c 0,1.0438 -0.846,1.8898 -1.8898,1.8898 -1.0437,0 -1.8898,-0.846 -1.8898,-1.8898 0,-1.0437 0.8461,-1.8898 1.8898,-1.8898 1.0438,0 1.8898,0.8461 1.8898,1.8898"
         style="fill:#000000;fill-opacity:1;fill-rule:nonzero;stroke:none"
         id="path118"
         inkscape:connector-curvature="0" /><path
         d="m 99.9898,42.1 c 0,1.0438 -0.846,1.8898 -1.8898,1.8898 -1.0437,0 -1.8898,-0.846 -1.8898,-1.8898 0,-1.0437 0.8461,-1.8898 1.8898,-1.8898 1.0438,0 1.8898,0.8461 1.8898,1.8898"
         style="fill:#000000;fill-opacity:1;fill-rule:nonzero;stroke:none"
         id="path120"
         inkscape:connector-curvature="0" /><path
         d="m 126.49,42.4 c 0,1.0438 -0.846,1.8898 -1.89,1.8898 -1.044,0 -1.89,-0.846 -1.89,-1.8898 0,-1.0437 0.846,-1.8898 1.89,-1.8898 1.044,0 1.89,0.8461 1.89,1.8898"
         style="fill:#000000;fill-opacity:1;fill-rule:nonzero;stroke:none"
         id="path122"
         inkscape:connector-curvature="0" /><path
         d="m 152.89,42.85 c 0,1.0438 -0.846,1.8898 -1.89,1.8898 -1.044,0 -1.89,-0.846 -1.89,-1.8898 0,-1.0437 0.846,-1.8898 1.89,-1.8898 1.044,0 1.89,0.8461 1.89,1.8898"
         style="fill:#000000;fill-opacity:1;fill-rule:nonzero;stroke:none"
         id="path124"
         inkscape:connector-curvature="0" /><path
         d="m 179.44,45.25 c 0,1.0438 -0.846,1.8898 -1.89,1.8898 -1.044,0 -1.89,-0.846 -1.89,-1.8898 0,-1.0437 0.846,-1.8898 1.89,-1.8898 1.044,0 1.89,0.8461 1.89,1.8898"
         style="fill:#000000;fill-opacity:1;fill-rule:nonzero;stroke:none"
         id="path126"
         inkscape:connector-curvature="0" /><path
         d="m 190.04,48.75 c 0,1.0438 -0.846,1.8898 -1.89,1.8898 -1.044,0 -1.89,-0.846 -1.89,-1.8898 0,-1.0437 0.846,-1.8898 1.89,-1.8898 1.044,0 1.89,0.8461 1.89,1.8898"
         style="fill:#000000;fill-opacity:1;fill-rule:nonzero;stroke:none"
         id="path128"
         inkscape:connector-curvature="0" /><path
         d="m 200.64,59.9 c 0,1.0438 -0.846,1.8898 -1.89,1.8898 -1.044,0 -1.89,-0.846 -1.89,-1.8898 0,-1.0437 0.846,-1.8898 1.89,-1.8898 1.044,0 1.89,0.8461 1.89,1.8898"
         style="fill:#000000;fill-opacity:1;fill-rule:nonzero;stroke:none"
         id="path130"
         inkscape:connector-curvature="0" /><path
         d="m 205.94,88.05 c 0,1.0438 -0.846,1.8898 -1.89,1.8898 -1.044,0 -1.89,-0.846 -1.89,-1.8898 0,-1.0437 0.846,-1.8898 1.89,-1.8898 1.044,0 1.89,0.8461 1.89,1.8898"
         style="fill:#000000;fill-opacity:1;fill-rule:nonzero;stroke:none"
         id="path132"
         inkscape:connector-curvature="0" /><path
         d="m 211.24,119 c 0,1.044 -0.846,1.89 -1.89,1.89 -1.044,0 -1.89,-0.846 -1.89,-1.89 0,-1.044 0.846,-1.89 1.89,-1.89 1.044,0 1.89,0.846 1.89,1.89"
         style="fill:#000000;fill-opacity:1;fill-rule:nonzero;stroke:none"
         id="path134"
         inkscape:connector-curvature="0" /><path
         d="m 221.84,168.7 c 0,1.044 -0.846,1.89 -1.89,1.89 -1.044,0 -1.89,-0.846 -1.89,-1.89 0,-1.044 0.846,-1.89 1.89,-1.89 1.044,0 1.89,0.846 1.89,1.89"
         style="fill:#000000;fill-opacity:1;fill-rule:nonzero;stroke:none"
         id="path136"
         inkscape:connector-curvature="0" /><path
         d="m 232.49,197.85 c 0,1.044 -0.846,1.89 -1.89,1.89 -1.044,0 -1.89,-0.846 -1.89,-1.89 0,-1.044 0.846,-1.89 1.89,-1.89 1.044,0 1.89,0.846 1.89,1.89"
         style="fill:#000000;fill-opacity:1;fill-rule:nonzero;stroke:none"
         id="path138"
         inkscape:connector-curvature="0" /><path
         d="m 243.09,218.9 c 0,1.044 -0.846,1.89 -1.89,1.89 -1.044,0 -1.89,-0.846 -1.89,-1.89 0,-1.044 0.846,-1.89 1.89,-1.89 1.044,0 1.89,0.846 1.89,1.89"
         style="fill:#000000;fill-opacity:1;fill-rule:nonzero;stroke:none"
         id="path140"
         inkscape:connector-curvature="0" /><path
         d="m 253.69,224.6 c 0,1.044 -0.846,1.89 -1.89,1.89 -1.044,0 -1.89,-0.846 -1.89,-1.89 0,-1.044 0.846,-1.89 1.89,-1.89 1.044,0 1.89,0.846 1.89,1.89"
         style="fill:#000000;fill-opacity:1;fill-rule:nonzero;stroke:none"
         id="path142"
         inkscape:connector-curvature="0" /><path
         d="m 264.29,223 c 0,1.044 -0.846,1.89 -1.89,1.89 -1.044,0 -1.89,-0.846 -1.89,-1.89 0,-1.044 0.846,-1.89 1.89,-1.89 1.044,0 1.89,0.846 1.89,1.89"
         style="fill:#000000;fill-opacity:1;fill-rule:nonzero;stroke:none"
         id="path144"
         inkscape:connector-curvature="0" /><path
         d="m 274.79,216.8 c 0,1.044 -0.846,1.89 -1.89,1.89 -1.044,0 -1.89,-0.846 -1.89,-1.89 0,-1.044 0.846,-1.89 1.89,-1.89 1.044,0 1.89,0.846 1.89,1.89"
         style="fill:#000000;fill-opacity:1;fill-rule:nonzero;stroke:none"
         id="path146"
         inkscape:connector-curvature="0" /><path
         d="m 285.39,192.2 c 0,1.044 -0.846,1.89 -1.89,1.89 -1.044,0 -1.89,-0.846 -1.89,-1.89 0,-1.044 0.846,-1.89 1.89,-1.89 1.044,0 1.89,0.846 1.89,1.89"
         style="fill:#000000;fill-opacity:1;fill-rule:nonzero;stroke:none"
         id="path148"
         inkscape:connector-curvature="0" /><path
         d="m 290.69,42.85 c 0,1.0438 -0.846,1.8898 -1.89,1.8898 -1.044,0 -1.89,-0.846 -1.89,-1.8898 0,-1.0437 0.846,-1.8898 1.89,-1.8898 1.044,0 1.89,0.8461 1.89,1.8898"
         style="fill:#000000;fill-opacity:1;fill-rule:nonzero;stroke:none"
         id="path150"
         inkscape:connector-curvature="0" /><path
         d="m 295.99,41.75 c 0,1.0438 -0.846,1.8898 -1.89,1.8898 -1.044,0 -1.89,-0.846 -1.89,-1.8898 0,-1.0437 0.846,-1.8898 1.89,-1.8898 1.044,0 1.89,0.8461 1.89,1.8898"
         style="fill:#000000;fill-opacity:1;fill-rule:nonzero;stroke:none"
         id="path152"
         inkscape:connector-curvature="0" /><path
         d="m 301.29,41.65 c 0,1.0438 -0.846,1.8898 -1.89,1.8898 -1.044,0 -1.89,-0.846 -1.89,-1.8898 0,-1.0437 0.846,-1.8898 1.89,-1.8898 1.044,0 1.89,0.8461 1.89,1.8898"
         style="fill:#000000;fill-opacity:1;fill-rule:nonzero;stroke:none"
         id="path154"
         inkscape:connector-curvature="0" /><path
         d="m 311.89,41.6 c 0,1.0438 -0.846,1.8898 -1.89,1.8898 -1.044,0 -1.89,-0.846 -1.89,-1.8898 0,-1.0437 0.846,-1.8898 1.89,-1.8898 1.044,0 1.89,0.8461 1.89,1.8898"
         style="fill:#000000;fill-opacity:1;fill-rule:nonzero;stroke:none"
         id="path156"
         inkscape:connector-curvature="0" /><path
         d="m 317.24,41.6 c 0,1.0438 -0.846,1.8898 -1.89,1.8898 -1.044,0 -1.89,-0.846 -1.89,-1.8898 0,-1.0437 0.846,-1.8898 1.89,-1.8898 1.044,0 1.89,0.8461 1.89,1.8898"
         style="fill:#000000;fill-opacity:1;fill-rule:nonzero;stroke:none"
         id="path158"
         inkscape:connector-curvature="0" /><path
         d="m 333.14,41.6 c 0,1.0438 -0.846,1.8898 -1.89,1.8898 -1.044,0 -1.89,-0.846 -1.89,-1.8898 0,-1.0437 0.846,-1.8898 1.89,-1.8898 1.044,0 1.89,0.8461 1.89,1.8898"
         style="fill:#000000;fill-opacity:1;fill-rule:nonzero;stroke:none"
         id="path160"
         inkscape:connector-curvature="0" /><path
         d="m 71.55,42.05 26.55,0.05 26.5,0.3 26.4,0.45 26.55,2.4 10.6,3.5 10.6,11.15 5.3,28.15 5.3,30.95 10.6,49.7 10.65,29.15 10.6,21.05 10.6,5.7 10.6,-1.6 10.5,-6.2 10.6,-24.6 5.3,-149.35 5.3,-1.1 5.3,-0.1 10.6,-0.05 21.25,0"
         style="fill:none;stroke:#000000;stroke-width:0.5;stroke-linecap:butt;stroke-linejoin:miter;stroke-miterlimit:3.79999995;stroke-opacity:1;stroke-dasharray:none"
         id="path162"
         inkscape:connector-curvature="0" /><path
         d="m 71.55,41.7 0,0.45 m -0.05,-0.45 1.6,0 m -1.6,0.45 1.6,0 m 25,-0.45 0,0.65 m -1.55,-0.65 3.1,0 m -3.1,0.65 3.1,0 m 24.95,-0.45 0,0.75 m -1.55,-0.75 3.1,0 m -3.1,0.75 3.1,0 M 151,42.3 l 0,2.75 m -1.55,-2.75 3.1,0 m -3.1,2.75 3.1,0 m 9.05,-2.15 0,4 m -1.55,-4 3.1,0 m -3.1,4 3.1,0 m 3.75,-4.05 0,8.05 m -1.55,-8.05 3.1,0 m -3.1,8.05 3.1,0 m 3.75,-7.75 0,18.3 m -1.55,-18.3 3.1,0 m -3.1,18.3 3.1,0 m 3.8,-12.3 0,24.5 m -1.55,-24.5 3.1,0 m -3.1,24.5 3.1,0 m 3.75,-9.85 0,43 m -1.55,-43 3.1,0 m -3.1,43 3.1,0 m 3.75,-16.45 0,38.05 m -1.55,-38.05 3.1,0 m -3.1,38.05 3.1,0 m 3.75,-4.05 0,11.15 m -1.55,-11.15 3.1,0 m -3.1,11.15 3.1,0 m 3.75,-2.35 0,8.85 m -1.55,-8.85 3.1,0 m -3.1,8.85 3.1,0 m 9.05,3.7 0,3.05 m -1.55,-3.05 3.1,0 m -3.1,3.05 3.1,0 m 9.05,1.95 0,2.9 m -1.55,-2.9 3.1,0 m -3.1,2.9 3.1,0 m 9.1,0.1 0,3.1 m -1.55,-3.1 3.1,0 m -3.1,3.1 3.1,0 m 9.05,-0.3 0,2.25 m -1.55,-2.25 3.1,0 m -3.1,2.25 3.1,0 m 9.05,-0.6 0,1.9 m -1.55,-1.9 3.1,0 m -3.1,1.9 3.1,0 m 9.05,-2.05 0,1.65 m -1.55,-1.65 3.1,0"
         style="fill:none;stroke:#0000ff;stroke-width:0.125;stroke-linecap:butt;stroke-linejoin:miter;stroke-miterlimit:3.79999995;stroke-opacity:1;stroke-dasharray:none"
         id="path164"
         inkscape:connector-curvature="0" /><path
         d="m 260.85,159.65 3.1,0 m 8.95,-1.9 0,1.85 m -1.55,-1.85 3.1,0 m -3.1,1.85 3.1,0 m 9.05,-2.8 0,1.7 m -1.55,-1.7 3.1,0 m -3.1,1.7 3.1,0 m 9.05,-2.15 0,1.25 m -1.55,-1.25 3.1,0 m -3.1,1.25 3.1,0 m 9.05,-7.55 0,6.65 m -1.55,-6.65 3.1,0 m -3.1,6.65 3.1,0 m 3.75,-31.35 0,4.9 m -1.55,-4.9 3.1,0 m -3.1,4.9 3.1,0 m 2.25,-88.65 3.1,0 m -3.1,0 3.1,0 m 2.2,0 3.1,0 m -3.1,0 3.1,0 m 2.2,0 3.1,0 m -3.1,0 3.1,0 m 2.2,0 3.1,0 m -3.1,0 3.1,0 m 1.7,0 2.05,0 m -2.05,0 2.05,0"
         style="fill:none;stroke:#0000ff;stroke-width:0.125;stroke-linecap:butt;stroke-linejoin:miter;stroke-miterlimit:3.79999995;stroke-opacity:1;stroke-dasharray:none"
         id="path166"
         inkscape:connector-curvature="0" /><path
         d="M 71.55,43.7898 69.6602,41.9 71.55,40.0102 73.4398,41.9 71.55,43.7898"
         style="fill:#0000ff;fill-opacity:1;fill-rule:nonzero;stroke:none"
         id="path168"
         inkscape:connector-curvature="0" /><path
         d="M 98.1,43.9398 96.2102,42.05 98.1,40.1602 99.9898,42.05 98.1,43.9398"
         style="fill:#0000ff;fill-opacity:1;fill-rule:nonzero;stroke:none"
         id="path170"
         inkscape:connector-curvature="0" /><path
         d="M 124.6,44.1898 122.71,42.3 124.6,40.4102 126.49,42.3 124.6,44.1898"
         style="fill:#0000ff;fill-opacity:1;fill-rule:nonzero;stroke:none"
         id="path172"
         inkscape:connector-curvature="0" /><path
         d="M 151,45.5398 149.11,43.65 151,41.7602 152.89,43.65 151,45.5398"
         style="fill:#0000ff;fill-opacity:1;fill-rule:nonzero;stroke:none"
         id="path174"
         inkscape:connector-curvature="0" /><path
         d="M 161.6,46.7898 159.71,44.9 161.6,43.0102 163.49,44.9 161.6,46.7898"
         style="fill:#0000ff;fill-opacity:1;fill-rule:nonzero;stroke:none"
         id="path176"
         inkscape:connector-curvature="0" /><path
         d="m 166.9,48.7398 -1.89,-1.8898 1.89,-1.8898 1.89,1.8898 -1.89,1.8898"
         style="fill:#0000ff;fill-opacity:1;fill-rule:nonzero;stroke:none"
         id="path178"
         inkscape:connector-curvature="0" /><path
         d="M 172.2,54.1898 170.31,52.3 172.2,50.4102 174.09,52.3 172.2,54.1898"
         style="fill:#0000ff;fill-opacity:1;fill-rule:nonzero;stroke:none"
         id="path180"
         inkscape:connector-curvature="0" /><path
         d="m 177.55,63.2898 -1.89,-1.8898 1.89,-1.8898 1.89,1.8898 -1.89,1.8898"
         style="fill:#0000ff;fill-opacity:1;fill-rule:nonzero;stroke:none"
         id="path182"
         inkscape:connector-curvature="0" /><path
         d="m 182.85,87.1898 -1.89,-1.8898 1.89,-1.8898 1.89,1.8898 -1.89,1.8898"
         style="fill:#0000ff;fill-opacity:1;fill-rule:nonzero;stroke:none"
         id="path184"
         inkscape:connector-curvature="0" /><path
         d="m 188.15,111.24 -1.89,-1.89 1.89,-1.89 1.89,1.89 -1.89,1.89"
         style="fill:#0000ff;fill-opacity:1;fill-rule:nonzero;stroke:none"
         id="path186"
         inkscape:connector-curvature="0" /><path
         d="m 193.45,131.79 -1.89,-1.89 1.89,-1.89 1.89,1.89 -1.89,1.89"
         style="fill:#0000ff;fill-opacity:1;fill-rule:nonzero;stroke:none"
         id="path188"
         inkscape:connector-curvature="0" /><path
         d="m 198.75,139.49 -1.89,-1.89 1.89,-1.89 1.89,1.89 -1.89,1.89"
         style="fill:#0000ff;fill-opacity:1;fill-rule:nonzero;stroke:none"
         id="path190"
         inkscape:connector-curvature="0" /><path
         d="m 209.35,149.14 -1.89,-1.89 1.89,-1.89 1.89,1.89 -1.89,1.89"
         style="fill:#0000ff;fill-opacity:1;fill-rule:nonzero;stroke:none"
         id="path192"
         inkscape:connector-curvature="0" /><path
         d="m 219.95,154.04 -1.89,-1.89 1.89,-1.89 1.89,1.89 -1.89,1.89"
         style="fill:#0000ff;fill-opacity:1;fill-rule:nonzero;stroke:none"
         id="path194"
         inkscape:connector-curvature="0" /><path
         d="m 230.6,157.14 -1.89,-1.89 1.89,-1.89 1.89,1.89 -1.89,1.89"
         style="fill:#0000ff;fill-opacity:1;fill-rule:nonzero;stroke:none"
         id="path196"
         inkscape:connector-curvature="0" /><path
         d="m 241.2,159.54 -1.89,-1.89 1.89,-1.89 1.89,1.89 -1.89,1.89"
         style="fill:#0000ff;fill-opacity:1;fill-rule:nonzero;stroke:none"
         id="path198"
         inkscape:connector-curvature="0" /><path
         d="m 251.8,160.99 -1.89,-1.89 1.89,-1.89 1.89,1.89 -1.89,1.89"
         style="fill:#0000ff;fill-opacity:1;fill-rule:nonzero;stroke:none"
         id="path200"
         inkscape:connector-curvature="0" /><path
         d="m 262.4,160.74 -1.89,-1.89 1.89,-1.89 1.89,1.89 -1.89,1.89"
         style="fill:#0000ff;fill-opacity:1;fill-rule:nonzero;stroke:none"
         id="path202"
         inkscape:connector-curvature="0" /><path
         d="m 272.9,160.54 -1.89,-1.89 1.89,-1.89 1.89,1.89 -1.89,1.89"
         style="fill:#0000ff;fill-opacity:1;fill-rule:nonzero;stroke:none"
         id="path204"
         inkscape:connector-curvature="0" /><path
         d="m 283.5,159.54 -1.89,-1.89 1.89,-1.89 1.89,1.89 -1.89,1.89"
         style="fill:#0000ff;fill-opacity:1;fill-rule:nonzero;stroke:none"
         id="path206"
         inkscape:connector-curvature="0" /><path
         d="m 294.1,158.89 -1.89,-1.89 1.89,-1.89 1.89,1.89 -1.89,1.89"
         style="fill:#0000ff;fill-opacity:1;fill-rule:nonzero;stroke:none"
         id="path208"
         inkscape:connector-curvature="0" /><path
         d="m 304.7,155.24 -1.89,-1.89 1.89,-1.89 1.89,1.89 -1.89,1.89"
         style="fill:#0000ff;fill-opacity:1;fill-rule:nonzero;stroke:none"
         id="path210"
         inkscape:connector-curvature="0" /><path
         d="m 310,129.69 -1.89,-1.89 1.89,-1.89 1.89,1.89 -1.89,1.89"
         style="fill:#0000ff;fill-opacity:1;fill-rule:nonzero;stroke:none"
         id="path212"
         inkscape:connector-curvature="0" /><path
         d="m 315.35,43.4898 -1.89,-1.8898 1.89,-1.8898 1.89,1.8898 -1.89,1.8898"
         style="fill:#0000ff;fill-opacity:1;fill-rule:nonzero;stroke:none"
         id="path214"
         inkscape:connector-curvature="0" /><path
         d="m 320.65,43.4898 -1.89,-1.8898 1.89,-1.8898 1.89,1.8898 -1.89,1.8898"
         style="fill:#0000ff;fill-opacity:1;fill-rule:nonzero;stroke:none"
         id="path216"
         inkscape:connector-curvature="0" /><path
         d="m 325.95,43.4898 -1.89,-1.8898 1.89,-1.8898 1.89,1.8898 -1.89,1.8898"
         style="fill:#0000ff;fill-opacity:1;fill-rule:nonzero;stroke:none"
         id="path218"
         inkscape:connector-curvature="0" /><path
         d="m 331.25,43.4898 -1.89,-1.8898 1.89,-1.8898 1.89,1.8898 -1.89,1.8898"
         style="fill:#0000ff;fill-opacity:1;fill-rule:nonzero;stroke:none"
         id="path220"
         inkscape:connector-curvature="0" /><path
         d="m 336.05,43.4898 -1.89,-1.8898 1.89,-1.8898 1.89,1.8898 -1.89,1.8898"
         style="fill:#0000ff;fill-opacity:1;fill-rule:nonzero;stroke:none"
         id="path222"
         inkscape:connector-curvature="0" /><path
         d="m 71.55,41.9 26.55,0.15 26.5,0.25 26.4,1.35 10.6,1.25 5.3,1.95 5.3,5.45 5.35,9.1 5.3,23.9 5.3,24.05 5.3,20.55 5.3,7.7 10.6,9.65 10.6,4.9 10.65,3.1 10.6,2.4 10.6,1.45 10.6,-0.25 10.5,-0.2 10.6,-1 10.6,-0.65 10.6,-3.65 5.3,-25.55 5.35,-86.2 20.7,0"
         style="fill:none;stroke:#0000ff;stroke-width:0.5;stroke-linecap:butt;stroke-linejoin:miter;stroke-miterlimit:3.79999995;stroke-opacity:1;stroke-dasharray:none"
         id="path224"
         inkscape:connector-curvature="0" /><path
         d="m 71.55,41.95 0,0.95 m -0.05,-0.95 1.6,0 m -1.6,0.95 1.6,0 m 9.05,-0.95 0,1.5 m -1.55,-1.5 3.1,0 m -3.1,1.5 3.1,0 m 9.05,-1.1 0,2.85 m -1.55,-2.85 3.1,0 m -3.1,2.85 3.1,0 m 9.05,-1.45 0,11.7 m -1.55,-11.7 3.1,0 m -3.1,11.7 3.1,0 m 3.75,-7.95 0,12.2 m -1.55,-12.2 3.1,0 m -3.1,12.2 3.1,0 m 3.75,-6 0,15.7 m -1.55,-15.7 3.1,0 m -3.1,15.7 3.1,0 m 3.75,-2.35 0,4.4 m -1.55,-4.4 3.1,0 m -3.1,4.4 3.1,0 m 3.75,0.4 0,2.45 m -1.55,-2.45 3.1,0 m -3.1,2.45 3.1,0 m 9.05,2.6 0,1.6 m -1.55,-1.6 3.1,0 m -3.1,1.6 3.1,0 m 9,1.75 0,1.65 m -1.55,-1.65 3.1,0 m -3.1,1.65 3.1,0 m 9.05,0.9 0,1.5 m -1.55,-1.5 3.1,0 m -3.1,1.5 3.1,0 m 9.1,1.65 0,1.1 m -1.55,-1.1 3.1,0 m -3.1,1.1 3.1,0 m 9.05,0.6 0,1.15 m -1.55,-1.15 3.1,0 m -3.1,1.15 3.1,0 m 9.05,0.75 0,1.35 m -1.55,-1.35 3.1,0 m -3.1,1.35 3.1,0 m 14.35,0.35 0,0.75 m -1.55,-0.75 3.1,0 m -3.1,0.75 3.1,0 m 14.35,0.5 0,0.95 m -1.55,-0.95 3.1,0 m -3.1,0.95 3.1,0 m 9.1,-0.85 0,1.2 m -1.55,-1.2 3.1,0 m -3.1,1.2 3.1,0 m 9.05,-0.85 0,0.9 m -1.55,-0.9 3.1,0"
         style="fill:none;stroke:#ff0000;stroke-width:0.125;stroke-linecap:butt;stroke-linejoin:miter;stroke-miterlimit:3.79999995;stroke-opacity:1;stroke-dasharray:none"
         id="path226"
         inkscape:connector-curvature="0" /><path
         d="m 239.65,93.85 3.1,0 m 14.35,-2.25 0,1.15 m -1.55,-1.15 3.1,0 m -3.1,1.15 3.1,0 m 14.25,-3.2 0,1.05 m -1.55,-1.05 3.1,0 m -3.1,1.05 3.1,0 m 9.05,-3.25 0,1.1 m -1.55,-1.1 3.1,0 m -3.1,1.1 3.1,0 m 9.05,-4.2 0,1.1 m -1.55,-1.1 3.1,0 m -3.1,1.1 3.1,0 m 14.35,-11.2 0,6.75 m -1.55,-6.75 3.1,0 m -3.1,6.75 3.1,0 m 14.4,-22.35 0,9.4 m -1.55,-9.4 3.1,0 m -3.1,9.4 3.1,0 m 6.95,-26.35 2.1,0 m -2.1,0 2.1,0"
         style="fill:none;stroke:#ff0000;stroke-width:0.125;stroke-linecap:butt;stroke-linejoin:miter;stroke-miterlimit:3.79999995;stroke-opacity:1;stroke-dasharray:none"
         id="path228"
         inkscape:connector-curvature="0" /><path
         d="m 71.55,40.2832 -1.8898,3.0617 3.7796,0 -1.8898,-3.0617"
         style="fill:#ff0000;fill-opacity:1;fill-rule:nonzero;stroke:none"
         id="path230"
         inkscape:connector-curvature="0" /><path
         d="m 82.15,40.5832 -1.8898,3.0617 3.7796,0 -1.8898,-3.0617"
         style="fill:#ff0000;fill-opacity:1;fill-rule:nonzero;stroke:none"
         id="path232"
         inkscape:connector-curvature="0" /><path
         d="m 92.75,41.6832 -1.8898,3.0617 3.7796,0 -1.8898,-3.0617"
         style="fill:#ff0000;fill-opacity:1;fill-rule:nonzero;stroke:none"
         id="path234"
         inkscape:connector-curvature="0" /><path
         d="m 103.35,47.4832 -1.89,3.0617 3.78,0 -1.89,-3.0617"
         style="fill:#ff0000;fill-opacity:1;fill-rule:nonzero;stroke:none"
         id="path236"
         inkscape:connector-curvature="0" /><path
         d="m 108.65,51.4832 -1.89,3.0617 3.78,0 -1.89,-3.0617"
         style="fill:#ff0000;fill-opacity:1;fill-rule:nonzero;stroke:none"
         id="path238"
         inkscape:connector-curvature="0" /><path
         d="m 113.95,59.4332 -1.89,3.0617 3.78,0 -1.89,-3.0617"
         style="fill:#ff0000;fill-opacity:1;fill-rule:nonzero;stroke:none"
         id="path240"
         inkscape:connector-curvature="0" /><path
         d="m 119.25,67.1332 -1.89,3.0617 3.78,0 -1.89,-3.0617"
         style="fill:#ff0000;fill-opacity:1;fill-rule:nonzero;stroke:none"
         id="path242"
         inkscape:connector-curvature="0" /><path
         d="m 124.55,70.9832 -1.89,3.0617 3.78,0 -1.89,-3.0617"
         style="fill:#ff0000;fill-opacity:1;fill-rule:nonzero;stroke:none"
         id="path244"
         inkscape:connector-curvature="0" /><path
         d="m 135.15,75.5832 -1.89,3.0617 3.78,0 -1.89,-3.0617"
         style="fill:#ff0000;fill-opacity:1;fill-rule:nonzero;stroke:none"
         id="path246"
         inkscape:connector-curvature="0" /><path
         d="m 145.7,78.9332 -1.89,3.0617 3.78,0 -1.89,-3.0617"
         style="fill:#ff0000;fill-opacity:1;fill-rule:nonzero;stroke:none"
         id="path248"
         inkscape:connector-curvature="0" /><path
         d="m 156.3,81.4332 -1.89,3.0617 3.78,0 -1.89,-3.0617"
         style="fill:#ff0000;fill-opacity:1;fill-rule:nonzero;stroke:none"
         id="path250"
         inkscape:connector-curvature="0" /><path
         d="m 166.95,84.3832 -1.89,3.0617 3.78,0 -1.89,-3.0617"
         style="fill:#ff0000;fill-opacity:1;fill-rule:nonzero;stroke:none"
         id="path252"
         inkscape:connector-curvature="0" /><path
         d="m 177.55,86.0832 -1.89,3.0617 3.78,0 -1.89,-3.0617"
         style="fill:#ff0000;fill-opacity:1;fill-rule:nonzero;stroke:none"
         id="path254"
         inkscape:connector-curvature="0" /><path
         d="m 188.15,88.1332 -1.89,3.0617 3.78,0 -1.89,-3.0617"
         style="fill:#ff0000;fill-opacity:1;fill-rule:nonzero;stroke:none"
         id="path256"
         inkscape:connector-curvature="0" /><path
         d="m 204.05,89.5332 -1.89,3.0617 3.78,0 -1.89,-3.0617"
         style="fill:#ff0000;fill-opacity:1;fill-rule:nonzero;stroke:none"
         id="path258"
         inkscape:connector-curvature="0" /><path
         d="m 219.95,90.8332 -1.89,3.0617 3.78,0 -1.89,-3.0617"
         style="fill:#ff0000;fill-opacity:1;fill-rule:nonzero;stroke:none"
         id="path260"
         inkscape:connector-curvature="0" /><path
         d="m 230.6,91.0832 -1.89,3.0617 3.78,0 -1.89,-3.0617"
         style="fill:#ff0000;fill-opacity:1;fill-rule:nonzero;stroke:none"
         id="path262"
         inkscape:connector-curvature="0" /><path
         d="m 241.2,91.2832 -1.89,3.0617 3.78,0 -1.89,-3.0617"
         style="fill:#ff0000;fill-opacity:1;fill-rule:nonzero;stroke:none"
         id="path264"
         inkscape:connector-curvature="0" /><path
         d="m 257.1,90.0832 -1.89,3.0617 3.78,0 -1.89,-3.0617"
         style="fill:#ff0000;fill-opacity:1;fill-rule:nonzero;stroke:none"
         id="path266"
         inkscape:connector-curvature="0" /><path
         d="m 272.9,87.9832 -1.89,3.0617 3.78,0 -1.89,-3.0617"
         style="fill:#ff0000;fill-opacity:1;fill-rule:nonzero;stroke:none"
         id="path268"
         inkscape:connector-curvature="0" /><path
         d="m 283.5,85.7832 -1.89,3.0617 3.78,0 -1.89,-3.0617"
         style="fill:#ff0000;fill-opacity:1;fill-rule:nonzero;stroke:none"
         id="path270"
         inkscape:connector-curvature="0" /><path
         d="m 294.1,82.6832 -1.89,3.0617 3.78,0 -1.89,-3.0617"
         style="fill:#ff0000;fill-opacity:1;fill-rule:nonzero;stroke:none"
         id="path272"
         inkscape:connector-curvature="0" /><path
         d="m 310,75.4332 -1.89,3.0617 3.78,0 -1.89,-3.0617"
         style="fill:#ff0000;fill-opacity:1;fill-rule:nonzero;stroke:none"
         id="path274"
         inkscape:connector-curvature="0" /><path
         d="m 325.95,61.1332 -1.89,3.0617 3.78,0 -1.89,-3.0617"
         style="fill:#ff0000;fill-opacity:1;fill-rule:nonzero;stroke:none"
         id="path276"
         inkscape:connector-curvature="0" /><path
         d="m 336,39.4832 -1.89,3.0617 3.78,0 -1.89,-3.0617"
         style="fill:#ff0000;fill-opacity:1;fill-rule:nonzero;stroke:none"
         id="path278"
         inkscape:connector-curvature="0" /><path
         d="m 71.55,42.4 10.6,0.3 10.6,1.1 10.6,5.8 5.3,4 5.3,7.95 5.3,7.7 5.3,3.85 10.6,4.6 10.55,3.35 10.6,2.5 10.65,2.95 10.6,1.7 10.6,2.05 15.9,1.4 15.9,1.3 10.65,0.25 10.6,0.2 15.9,-1.2 15.8,-2.1 10.6,-2.2 10.6,-3.1 L 310,77.55 325.95,63.25 336,41.6"
         style="fill:none;stroke:#ff0000;stroke-width:0.5;stroke-linecap:butt;stroke-linejoin:miter;stroke-miterlimit:3.79999995;stroke-opacity:1;stroke-dasharray:none"
         id="path280"
         inkscape:connector-curvature="0" /><path
         d="m 71.5,41.6 265.05,0 0,194.75 -265.05,0 0,-194.75 z"
         style="fill:none;stroke:#000000;stroke-width:0.5;stroke-linecap:butt;stroke-linejoin:miter;stroke-miterlimit:3.79999995;stroke-opacity:1;stroke-dasharray:none"
         id="path282"
         inkscape:connector-curvature="0" /></g><g
       transform="translate(1.234898,7.3782293)"
       id="g3141"><flowRoot
         style="font-size:40px;font-style:normal;font-weight:normal;line-height:125%;letter-spacing:0px;word-spacing:0px;fill:#000000;fill-opacity:1;stroke:none;font-family:Sans"
         id="flowRoot3415-2-6"
         xml:space="preserve"
         transform="matrix(0.8,0,0,-0.8,-323.08517,748.307)"><flowRegion
           id="flowRegion3417-0-9"><rect
             y="657.27106"
             x="543.22882"
             height="17.623756"
             width="53.933884"
             id="rect3419-8-2" /></flowRegion><flowPara
           style="font-size:13px;font-style:normal;font-variant:normal;font-weight:normal;font-stretch:normal;font-family:Arial;-inkscape-font-specification:Arial"
           id="flowPara3421-6-2">Q=0.01</flowPara></flowRoot><flowRoot
         style="font-size:40px;font-style:normal;font-weight:normal;line-height:125%;letter-spacing:0px;word-spacing:0px;fill:#000000;fill-opacity:1;stroke:none;font-family:Sans"
         id="flowRoot3415-2-6-5"
         xml:space="preserve"
         transform="matrix(0.8,0,0,-0.8,-323.24537,732.07259)"><flowRegion
           id="flowRegion3417-0-9-4"><rect
             y="657.27106"
             x="543.22882"
             height="17.623756"
             width="53.933884"
             id="rect3419-8-2-1" /></flowRegion><flowPara
           style="font-size:13px;font-style:normal;font-variant:normal;font-weight:normal;font-stretch:normal;font-family:Arial;-inkscape-font-specification:Arial"
           id="flowPara3421-6-2-4">Q=0.05</flowPara></flowRoot><flowRoot
         style="font-size:40px;font-style:normal;font-weight:normal;line-height:125%;letter-spacing:0px;word-spacing:0px;fill:#000000;fill-opacity:1;stroke:none;font-family:Sans"
         id="flowRoot3415-2-6-5-8"
         xml:space="preserve"
         transform="matrix(0.8,0,0,-0.8,-323.23643,716.21662)"><flowRegion
           id="flowRegion3417-0-9-4-1"><rect
             y="657.27106"
             x="543.22882"
             height="17.623756"
             width="53.933884"
             id="rect3419-8-2-1-2" /></flowRegion><flowPara
           style="font-size:13px;font-style:normal;font-variant:normal;font-weight:normal;font-stretch:normal;font-family:Arial;-inkscape-font-specification:Arial"
           id="flowPara3421-6-2-4-8">Q=0.1</flowPara></flowRoot><g
         transform="translate(-2.0674306,3.2)"
         id="g4451"><path
           style="fill:none;stroke:#000000;stroke-width:0.57271045px;stroke-linecap:butt;stroke-linejoin:miter;stroke-opacity:1"
           d="m 83.152064,180.45604 23.590006,0"
           id="path3508-0"
           inkscape:path-effect="#path-effect3510-71"
           inkscape:original-d="m 83.152064,180.45604 23.590006,0"
           inkscape:connector-curvature="0" /><path
           inkscape:connector-curvature="0"
           id="path244-6"
           style="fill:#000000;fill-opacity:1;fill-rule:nonzero;stroke:none"
           d="m 96.65695,180.45763 c 0,1.044 -0.846,1.89 -1.89,1.89 -1.044,0 -1.89,-0.846 -1.89,-1.89 0,-1.044 0.846,-1.89 1.89,-1.89 1.044,0 1.89,0.846 1.89,1.89" /></g><g
         transform="translate(-2.7995763,2.269068)"
         id="g4447"><path
           style="fill:none;stroke:#0000ff;stroke-width:0.57271045px;stroke-linecap:butt;stroke-linejoin:miter;stroke-opacity:1"
           d="m 83.529582,197.44458 23.589998,0"
           id="path3508-4"
           inkscape:path-effect="#path-effect3510-7"
           inkscape:original-d="m 83.529582,197.44458 23.589998,0"
           inkscape:connector-curvature="0" /><path
           inkscape:connector-curvature="0"
           id="path188-1"
           style="fill:#0000ff;fill-opacity:1;fill-rule:nonzero;stroke:none"
           d="m 95.300846,199.43238 -1.89,-1.89 1.89,-1.89 1.89,1.89 -1.89,1.89" /></g><g
         transform="translate(-2.8012713,-1.4112384)"
         id="g4443"><path
           style="fill:none;stroke:#ff0000;stroke-width:0.57271045px;stroke-linecap:butt;stroke-linejoin:miter;stroke-opacity:1"
           d="m 83.725782,217.13867 23.589998,0"
           id="path3508"
           inkscape:path-effect="#path-effect3510"
           inkscape:original-d="m 83.725782,217.13867 23.589998,0"
           inkscape:connector-curvature="0" /><path
           inkscape:connector-curvature="0"
           id="path138-5"
           style="fill:#ff0000;fill-opacity:1;fill-rule:nonzero;stroke:none"
           d="m 95.30085,215.23186 -1.89,3.0617 3.78,0 -1.89,-3.0617" /></g></g><flowRoot
       transform="matrix(0.8,0,0,-0.8,-412.62266,701.21894)"
       xml:space="preserve"
       id="flowRoot3415-2"
       style="font-size:40px;font-style:normal;font-weight:normal;line-height:125%;letter-spacing:0px;word-spacing:0px;fill:#000000;fill-opacity:1;stroke:none;font-family:Sans"><flowRegion
         id="flowRegion3417-0"><rect
           id="rect3419-8"
           width="23.805779"
           height="28.748156"
           x="543.22882"
           y="657.27106" /></flowRegion><flowPara
         id="flowPara3421-6"
         style="font-size:20px;font-style:normal;font-variant:normal;font-weight:normal;font-stretch:normal;font-family:Arial;-inkscape-font-specification:Arial">Ω</flowPara></flowRoot><flowRoot
       xml:space="preserve"
       id="flowRoot3415"
       style="font-size:40px;font-style:normal;font-weight:normal;line-height:125%;letter-spacing:0px;word-spacing:0px;fill:#000000;fill-opacity:1;stroke:none;font-family:Sans"
       transform="matrix(0.8,0,0,-0.8,-234.52201,553.8621)"><flowRegion
         id="flowRegion3417"><rect
           id="rect3419"
           width="45.84206"
           height="49.280262"
           x="543.22882"
           y="657.27106" /></flowRegion><flowPara
         id="flowPara3421"
         style="font-size:22px;font-style:normal;font-variant:normal;font-weight:normal;font-stretch:normal;font-family:Arial;-inkscape-font-specification:Arial">p</flowPara></flowRoot></g></svg>