<?xml version="1.0" encoding="UTF-8" standalone="no"?>
<!-- Created with Inkscape (http://www.inkscape.org/) -->

<svg
   xmlns:dc="http://purl.org/dc/elements/1.1/"
   xmlns:cc="http://creativecommons.org/ns#"
   xmlns:rdf="http://www.w3.org/1999/02/22-rdf-syntax-ns#"
   xmlns:svg="http://www.w3.org/2000/svg"
   xmlns="http://www.w3.org/2000/svg"
   xmlns:sodipodi="http://sodipodi.sourceforge.net/DTD/sodipodi-0.dtd"
   xmlns:inkscape="http://www.inkscape.org/namespaces/inkscape"
   id="svg2"
   version="1.1"
   inkscape:version="0.48.4 r9939"
   width="450"
   height="315"
   xml:space="preserve"
   sodipodi:docname="R-fig5.eps"><metadata
     id="metadata8"><rdf:RDF><cc:Work
         rdf:about=""><dc:format>image/svg+xml</dc:format><dc:type
           rdf:resource="http://purl.org/dc/dcmitype/StillImage" /><dc:title></dc:title></cc:Work></rdf:RDF></metadata><defs
     id="defs6"><inkscape:path-effect
       effect="spiro"
       id="path-effect3510-2"
       is_visible="true" /><inkscape:path-effect
       effect="spiro"
       id="path-effect3510-5"
       is_visible="true" /><inkscape:path-effect
       effect="spiro"
       id="path-effect3510"
       is_visible="true" /></defs><sodipodi:namedview
     pagecolor="#ffffff"
     bordercolor="#666666"
     borderopacity="1"
     objecttolerance="10"
     gridtolerance="10"
     guidetolerance="10"
     inkscape:pageopacity="0"
     inkscape:pageshadow="2"
     inkscape:window-width="1855"
     inkscape:window-height="1056"
     id="namedview4"
     showgrid="false"
     inkscape:zoom="1.0595378"
     inkscape:cx="323.55136"
     inkscape:cy="179.05586"
     inkscape:window-x="65"
     inkscape:window-y="24"
     inkscape:window-maximized="1"
     inkscape:current-layer="g10" /><g
     id="g10"
     inkscape:groupmode="layer"
     inkscape:label="ink_ext_XXXXXX"
     transform="matrix(1.25,0,0,-1.25,0,315)"><g
       id="g3809"><g
         transform="matrix(1.6689482,0,0,1.6689482,-105.14886,-142.74741)"
         id="g3651"><path
           inkscape:connector-curvature="0"
           id="path14"
           style="fill:none;stroke:#000000;stroke-width:0.5;stroke-linecap:butt;stroke-linejoin:miter;stroke-miterlimit:3.79999995;stroke-opacity:1;stroke-dasharray:none"
           d="m 63.7,41.6 3.15,0 m 269.7,0 -3.15,0" /><g
           id="g16"><text
             id="text18"
             transform="matrix(1,0,0,-1,48.6726,37.2648)"><tspan
               id="tspan20"
               y="0"
               x="0"
               style="font-size:13px;font-variant:normal;font-weight:normal;writing-mode:lr-tb;fill:#000000;fill-opacity:1;fill-rule:nonzero;stroke:none;font-family:Helvetica;-inkscape-font-specification:Helvetica">0</tspan></text>
</g><path
           inkscape:connector-curvature="0"
           id="path22"
           style="fill:none;stroke:#000000;stroke-width:0.5;stroke-linecap:butt;stroke-linejoin:miter;stroke-miterlimit:3.79999995;stroke-opacity:1;stroke-dasharray:none"
           d="m 63.7,80.55 3.15,0 m 269.7,0 -3.15,0" /><g
           id="g24"><text
             id="text26"
             transform="matrix(1,0,0,-1,37.8312,76.2148)"><tspan
               id="tspan28"
               sodipodi:role="line"
               y="0"
               x="0 7.2280002 10.842"
               style="font-size:13px;font-variant:normal;font-weight:normal;writing-mode:lr-tb;fill:#000000;fill-opacity:1;fill-rule:nonzero;stroke:none;font-family:Helvetica;-inkscape-font-specification:Helvetica">0.2</tspan></text>
</g><path
           inkscape:connector-curvature="0"
           id="path30"
           style="fill:none;stroke:#000000;stroke-width:0.5;stroke-linecap:butt;stroke-linejoin:miter;stroke-miterlimit:3.79999995;stroke-opacity:1;stroke-dasharray:none"
           d="m 63.7,119.5 3.15,0 m 269.7,0 -3.15,0" /><g
           id="g32"><text
             id="text34"
             transform="matrix(1,0,0,-1,37.8312,115.165)"><tspan
               id="tspan36"
               sodipodi:role="line"
               y="0"
               x="0 7.2280002 10.842"
               style="font-size:13px;font-variant:normal;font-weight:normal;writing-mode:lr-tb;fill:#000000;fill-opacity:1;fill-rule:nonzero;stroke:none;font-family:Helvetica;-inkscape-font-specification:Helvetica">0.4</tspan></text>
</g><path
           inkscape:connector-curvature="0"
           id="path38"
           style="fill:none;stroke:#000000;stroke-width:0.5;stroke-linecap:butt;stroke-linejoin:miter;stroke-miterlimit:3.79999995;stroke-opacity:1;stroke-dasharray:none"
           d="m 63.7,158.45 3.15,0 m 269.7,0 -3.15,0" /><g
           id="g40"><text
             id="text42"
             transform="matrix(1,0,0,-1,37.8312,154.115)"><tspan
               id="tspan44"
               sodipodi:role="line"
               y="0"
               x="0 7.2280002 10.842"
               style="font-size:13px;font-variant:normal;font-weight:normal;writing-mode:lr-tb;fill:#000000;fill-opacity:1;fill-rule:nonzero;stroke:none;font-family:Helvetica;-inkscape-font-specification:Helvetica">0.6</tspan></text>
</g><path
           inkscape:connector-curvature="0"
           id="path46"
           style="fill:none;stroke:#000000;stroke-width:0.5;stroke-linecap:butt;stroke-linejoin:miter;stroke-miterlimit:3.79999995;stroke-opacity:1;stroke-dasharray:none"
           d="m 63.7,197.4 3.15,0 m 269.7,0 -3.15,0" /><g
           id="g48"><text
             id="text50"
             transform="matrix(1,0,0,-1,37.8312,193.065)"><tspan
               id="tspan52"
               sodipodi:role="line"
               y="0"
               x="0 7.2280002 10.842"
               style="font-size:13px;font-variant:normal;font-weight:normal;writing-mode:lr-tb;fill:#000000;fill-opacity:1;fill-rule:nonzero;stroke:none;font-family:Helvetica;-inkscape-font-specification:Helvetica">0.8</tspan></text>
</g><path
           inkscape:connector-curvature="0"
           id="path54"
           style="fill:none;stroke:#000000;stroke-width:0.5;stroke-linecap:butt;stroke-linejoin:miter;stroke-miterlimit:3.79999995;stroke-opacity:1;stroke-dasharray:none"
           d="m 63.7,236.35 3.15,0 m 269.7,0 -3.15,0" /><g
           id="g56"><text
             id="text58"
             transform="matrix(1,0,0,-1,48.6726,232.015)"><tspan
               id="tspan60"
               y="0"
               x="0"
               style="font-size:13px;font-variant:normal;font-weight:normal;writing-mode:lr-tb;fill:#000000;fill-opacity:1;fill-rule:nonzero;stroke:none;font-family:Helvetica;-inkscape-font-specification:Helvetica">1</tspan></text>
</g><path
           inkscape:connector-curvature="0"
           id="path62"
           style="fill:none;stroke:#000000;stroke-width:0.5;stroke-linecap:butt;stroke-linejoin:miter;stroke-miterlimit:3.79999995;stroke-opacity:1;stroke-dasharray:none"
           d="m 63.75,41.6 0,3.15 m 0,191.6 0,-3.15" /><g
           id="g64"><text
             id="text66"
             transform="matrix(1,0,0,-1,56.5226,24.2648)"><tspan
               id="tspan68"
               sodipodi:role="line"
               y="0"
               x="0 7.2280002 10.842"
               style="font-size:13px;font-variant:normal;font-weight:normal;writing-mode:lr-tb;fill:#000000;fill-opacity:1;fill-rule:nonzero;stroke:none;font-family:Helvetica;-inkscape-font-specification:Helvetica">0.5</tspan></text>
</g><path
           inkscape:connector-curvature="0"
           id="path70"
           style="fill:none;stroke:#000000;stroke-width:0.5;stroke-linecap:butt;stroke-linejoin:miter;stroke-miterlimit:3.79999995;stroke-opacity:1;stroke-dasharray:none"
           d="m 74.65,41.6 0,1.55 m 0,193.2 0,-1.55 M 85.6,41.6 l 0,1.55 m 0,193.2 0,-1.55 m 10.9,-193.2 0,1.55 m 0,193.2 0,-1.55 m 10.9,-193.2 0,1.55 m 0,193.2 0,-1.55 m 10.9,-193.2 0,3.15 m 0,191.6 0,-3.15" /><g
           id="g72"><text
             id="text74"
             transform="matrix(1,0,0,-1,111.073,24.2648)"><tspan
               id="tspan76"
               sodipodi:role="line"
               y="0"
               x="0 7.2280002 10.842"
               style="font-size:13px;font-variant:normal;font-weight:normal;writing-mode:lr-tb;fill:#000000;fill-opacity:1;fill-rule:nonzero;stroke:none;font-family:Helvetica;-inkscape-font-specification:Helvetica">0.6</tspan></text>
</g><path
           inkscape:connector-curvature="0"
           id="path78"
           style="fill:none;stroke:#000000;stroke-width:0.5;stroke-linecap:butt;stroke-linejoin:miter;stroke-miterlimit:3.79999995;stroke-opacity:1;stroke-dasharray:none"
           d="m 129.25,41.6 0,1.55 m 0,193.2 0,-1.55 m 10.9,-193.2 0,1.55 m 0,193.2 0,-1.55 m 10.9,-193.2 0,1.55 m 0,193.2 0,-1.55 m 10.9,-193.2 0,1.55 m 0,193.2 0,-1.55 m 10.9,-193.2 0,3.15 m 0,191.6 0,-3.15" /><g
           id="g80"><text
             id="text82"
             transform="matrix(1,0,0,-1,165.623,24.2648)"><tspan
               id="tspan84"
               sodipodi:role="line"
               y="0"
               x="0 7.2280002 10.842"
               style="font-size:13px;font-variant:normal;font-weight:normal;writing-mode:lr-tb;fill:#000000;fill-opacity:1;fill-rule:nonzero;stroke:none;font-family:Helvetica;-inkscape-font-specification:Helvetica">0.7</tspan></text>
</g><path
           inkscape:connector-curvature="0"
           id="path86"
           style="fill:none;stroke:#000000;stroke-width:0.5;stroke-linecap:butt;stroke-linejoin:miter;stroke-miterlimit:3.79999995;stroke-opacity:1;stroke-dasharray:none"
           d="m 183.8,41.6 0,1.55 m 0,193.2 0,-1.55 m 10.9,-193.2 0,1.55 m 0,193.2 0,-1.55 m 10.9,-193.2 0,1.55 m 0,193.2 0,-1.55 m 10.9,-193.2 0,1.55 m 0,193.2 0,-1.55 m 10.95,-193.2 0,3.15 m 0,191.6 0,-3.15" /><g
           id="g88"><text
             id="text90"
             transform="matrix(1,0,0,-1,220.223,24.2648)"><tspan
               id="tspan92"
               sodipodi:role="line"
               y="0"
               x="0 7.2280002 10.842"
               style="font-size:13px;font-variant:normal;font-weight:normal;writing-mode:lr-tb;fill:#000000;fill-opacity:1;fill-rule:nonzero;stroke:none;font-family:Helvetica;-inkscape-font-specification:Helvetica">0.8</tspan></text>
</g><path
           inkscape:connector-curvature="0"
           id="path94"
           style="fill:none;stroke:#000000;stroke-width:0.5;stroke-linecap:butt;stroke-linejoin:miter;stroke-miterlimit:3.79999995;stroke-opacity:1;stroke-dasharray:none"
           d="m 238.35,41.6 0,1.55 m 0,193.2 0,-1.55 m 10.9,-193.2 0,1.55 m 0,193.2 0,-1.55 m 10.9,-193.2 0,1.55 m 0,193.2 0,-1.55 m 10.95,-193.2 0,1.55 m 0,193.2 0,-1.55 M 282,41.6 l 0,3.15 m 0,191.6 0,-3.15" /><g
           id="g96"><text
             id="text98"
             transform="matrix(1,0,0,-1,274.773,24.2648)"><tspan
               id="tspan100"
               sodipodi:role="line"
               y="0"
               x="0 7.2280002 10.842"
               style="font-size:13px;font-variant:normal;font-weight:normal;writing-mode:lr-tb;fill:#000000;fill-opacity:1;fill-rule:nonzero;stroke:none;font-family:Helvetica;-inkscape-font-specification:Helvetica">0.9</tspan></text>
</g><path
           inkscape:connector-curvature="0"
           id="path102"
           style="fill:none;stroke:#000000;stroke-width:0.5;stroke-linecap:butt;stroke-linejoin:miter;stroke-miterlimit:3.79999995;stroke-opacity:1;stroke-dasharray:none"
           d="m 292.9,41.6 0,1.55 m 0,193.2 0,-1.55 m 10.9,-193.2 0,1.55 m 0,193.2 0,-1.55 m 10.95,-193.2 0,1.55 m 0,193.2 0,-1.55 m 10.9,-193.2 0,1.55 m 0,193.2 0,-1.55 m 10.9,-193.2 0,3.15 m 0,191.6 0,-3.15" /><g
           id="g104"><text
             id="text106"
             transform="matrix(1,0,0,-1,334.743,24.2648)"><tspan
               id="tspan108"
               y="0"
               x="0"
               style="font-size:13px;font-variant:normal;font-weight:normal;writing-mode:lr-tb;fill:#000000;fill-opacity:1;fill-rule:nonzero;stroke:none;font-family:Helvetica;-inkscape-font-specification:Helvetica">1</tspan></text>
</g><path
           inkscape:connector-curvature="0"
           id="path110"
           style="fill:none;stroke:#000000;stroke-width:0.5;stroke-linecap:butt;stroke-linejoin:miter;stroke-miterlimit:3.79999995;stroke-opacity:1;stroke-dasharray:none"
           d="m 63.7,41.6 272.85,0 0,194.75 -272.85,0 0,-194.75 z" /><path
           inkscape:connector-curvature="0"
           id="path122"
           style="fill:none;stroke:#000000;stroke-width:0.125;stroke-linecap:butt;stroke-linejoin:miter;stroke-miterlimit:3.79999995;stroke-opacity:1;stroke-dasharray:none"
           d="m 63.75,46.7 0,0.6 m -0.05,-0.6 1.6,0 m -1.6,0.6 1.6,0 m 25.75,1.5 0,0.85 m -1.55,-0.85 3.1,0 m -3.1,0.85 3.1,0 m 25.75,2.25 0,0.7 m -1.55,-0.7 3.1,0 m -3.1,0.7 3.1,0 m 25.65,3.6 0,1.35 M 144,56.2 l 3.1,0 m -3.1,1.35 3.1,0 m 9.35,1.85 0,2.3 m -1.55,-2.3 3.1,0 m -3.1,2.3 3.1,0 m 3.9,-0.85 0,3.4 m -1.55,-3.4 3.1,0 m -3.1,3.4 3.1,0 m 3.95,-0.95 0,6.5 m -1.55,-6.5 3.1,0 m -3.1,6.5 3.1,0 m 3.9,-3.05 0,8.65 m -1.55,-8.65 3.1,0 m -3.1,8.65 3.1,0 m 3.9,-0.7 0,28.6 m -1.55,-28.6 3.1,0 m -3.1,28.6 3.1,0 m 3.9,-12 0,32.5 m -1.55,-32.5 3.1,0 m -3.1,32.5 3.1,0 m 3.95,-6.8 0,23.95 M 187.7,117 l 3.1,0 m -3.1,23.95 3.1,0 m 3.9,-9.25 0,17.45 m -1.55,-17.45 3.1,0 m -3.1,17.45 3.1,0 m 9.35,6.7 0,6 m -1.55,-6 3.1,0 m -3.1,6 3.1,0 m 9.4,1 0,5.9 m -1.55,-5.9 3.1,0 m -3.1,5.9 3.1,0 m 9.35,2.1 0,3.35 m -1.55,-3.35 3.1,0 m -3.1,3.35 3.1,0 m 9.4,3.35 0,3.6 m -1.55,-3.6 3.1,0 m -3.1,3.6 3.1,0 m 9.35,2.2 0,2.4 m -1.55,-2.4 3.1,0 m -3.1,2.4 3.1,0 m 9.4,-0.55 0,4.4 m -1.55,-4.4 3.1,0" /><path
           inkscape:connector-curvature="0"
           id="path124"
           style="fill:none;stroke:#000000;stroke-width:0.125;stroke-linecap:butt;stroke-linejoin:miter;stroke-miterlimit:3.79999995;stroke-opacity:1;stroke-dasharray:none"
           d="m 258.7,189.6 3.1,0 m 9.2,2.15 0,3.55 m -1.55,-3.55 3.1,0 m -3.1,3.55 3.1,0 m 9.4,0.85 0,3.6 m -1.55,-3.6 3.1,0 m -3.1,3.6 3.1,0 m 9.35,-1.1 0,5.65 m -1.55,-5.65 3.1,0 m -3.1,5.65 3.1,0 m 9.4,-8.85 0,9.75 m -1.55,-9.75 3.1,0 m -3.1,9.75 3.1,0 m 3.9,-5.4 0,6.3 m -1.55,-6.3 3.1,0 m -3.1,6.3 3.1,0 m 3.9,11.1 0,4.2 m -1.55,-4.2 3.1,0 m -3.1,4.2 3.1,0 m 3.9,3 0,0.2 m -1.55,-0.2 3.1,0 m -3.1,0.2 3.1,0 m 3.95,3.9 0,0.1 m -1.55,-0.1 3.1,0 m -3.1,0.1 3.1,0 m 3.9,3.8 0,0.05 m -1.55,-0.05 3.1,0 m -3.1,0.05 3.1,0 m 1.8,3.5 2.1,0 m -2.1,0 2.1,0" /><path
           inkscape:connector-curvature="0"
           id="path126"
           style="fill:#000000;fill-opacity:1;fill-rule:nonzero;stroke:none"
           d="m 65.6398,47 c 0,1.0438 -0.846,1.8898 -1.8898,1.8898 -1.0437,0 -1.8898,-0.846 -1.8898,-1.8898 0,-1.0437 0.8461,-1.8898 1.8898,-1.8898 1.0438,0 1.8898,0.8461 1.8898,1.8898" /><path
           inkscape:connector-curvature="0"
           id="path128"
           style="fill:#000000;fill-opacity:1;fill-rule:nonzero;stroke:none"
           d="m 92.9398,49.2 c 0,1.0438 -0.846,1.8898 -1.8898,1.8898 -1.0437,0 -1.8898,-0.846 -1.8898,-1.8898 0,-1.0437 0.8461,-1.8898 1.8898,-1.8898 1.0438,0 1.8898,0.8461 1.8898,1.8898" /><path
           inkscape:connector-curvature="0"
           id="path130"
           style="fill:#000000;fill-opacity:1;fill-rule:nonzero;stroke:none"
           d="m 120.24,52.25 c 0,1.0438 -0.846,1.8898 -1.89,1.8898 -1.044,0 -1.89,-0.846 -1.89,-1.8898 0,-1.0437 0.846,-1.8898 1.89,-1.8898 1.044,0 1.89,0.8461 1.89,1.8898" /><path
           inkscape:connector-curvature="0"
           id="path132"
           style="fill:#000000;fill-opacity:1;fill-rule:nonzero;stroke:none"
           d="m 147.44,56.9 c 0,1.0438 -0.846,1.8898 -1.89,1.8898 -1.044,0 -1.89,-0.846 -1.89,-1.8898 0,-1.0437 0.846,-1.8898 1.89,-1.8898 1.044,0 1.89,0.8461 1.89,1.8898" /><path
           inkscape:connector-curvature="0"
           id="path134"
           style="fill:#000000;fill-opacity:1;fill-rule:nonzero;stroke:none"
           d="m 158.34,60.55 c 0,1.0438 -0.846,1.8898 -1.89,1.8898 -1.044,0 -1.89,-0.846 -1.89,-1.8898 0,-1.0437 0.846,-1.8898 1.89,-1.8898 1.044,0 1.89,0.8461 1.89,1.8898" /><path
           inkscape:connector-curvature="0"
           id="path136"
           style="fill:#000000;fill-opacity:1;fill-rule:nonzero;stroke:none"
           d="m 163.79,62.55 c 0,1.0438 -0.846,1.8898 -1.89,1.8898 -1.044,0 -1.89,-0.846 -1.89,-1.8898 0,-1.0437 0.846,-1.8898 1.89,-1.8898 1.044,0 1.89,0.8461 1.89,1.8898" /><path
           inkscape:connector-curvature="0"
           id="path138"
           style="fill:#000000;fill-opacity:1;fill-rule:nonzero;stroke:none"
           d="m 169.29,66.55 c 0,1.0438 -0.846,1.8898 -1.89,1.8898 -1.044,0 -1.89,-0.846 -1.89,-1.8898 0,-1.0437 0.846,-1.8898 1.89,-1.8898 1.044,0 1.89,0.8461 1.89,1.8898" /><path
           inkscape:connector-curvature="0"
           id="path140"
           style="fill:#000000;fill-opacity:1;fill-rule:nonzero;stroke:none"
           d="m 174.74,71.1 c 0,1.0438 -0.846,1.8898 -1.89,1.8898 -1.044,0 -1.89,-0.846 -1.89,-1.8898 0,-1.0437 0.846,-1.8898 1.89,-1.8898 1.044,0 1.89,0.8461 1.89,1.8898" /><path
           inkscape:connector-curvature="0"
           id="path142"
           style="fill:#000000;fill-opacity:1;fill-rule:nonzero;stroke:none"
           d="m 180.19,89 c 0,1.0438 -0.846,1.8898 -1.89,1.8898 -1.044,0 -1.89,-0.846 -1.89,-1.8898 0,-1.0437 0.846,-1.8898 1.89,-1.8898 1.044,0 1.89,0.8461 1.89,1.8898" /><path
           inkscape:connector-curvature="0"
           id="path144"
           style="fill:#000000;fill-opacity:1;fill-rule:nonzero;stroke:none"
           d="m 185.64,107.55 c 0,1.044 -0.846,1.89 -1.89,1.89 -1.044,0 -1.89,-0.846 -1.89,-1.89 0,-1.044 0.846,-1.89 1.89,-1.89 1.044,0 1.89,0.846 1.89,1.89" /><path
           inkscape:connector-curvature="0"
           id="path146"
           style="fill:#000000;fill-opacity:1;fill-rule:nonzero;stroke:none"
           d="m 191.14,128.95 c 0,1.044 -0.846,1.89 -1.89,1.89 -1.044,0 -1.89,-0.846 -1.89,-1.89 0,-1.044 0.846,-1.89 1.89,-1.89 1.044,0 1.89,0.846 1.89,1.89" /><path
           inkscape:connector-curvature="0"
           id="path148"
           style="fill:#000000;fill-opacity:1;fill-rule:nonzero;stroke:none"
           d="m 196.59,140.45 c 0,1.044 -0.846,1.89 -1.89,1.89 -1.044,0 -1.89,-0.846 -1.89,-1.89 0,-1.044 0.846,-1.89 1.89,-1.89 1.044,0 1.89,0.846 1.89,1.89" /><path
           inkscape:connector-curvature="0"
           id="path150"
           style="fill:#000000;fill-opacity:1;fill-rule:nonzero;stroke:none"
           d="m 207.49,158.85 c 0,1.044 -0.846,1.89 -1.89,1.89 -1.044,0 -1.89,-0.846 -1.89,-1.89 0,-1.044 0.846,-1.89 1.89,-1.89 1.044,0 1.89,0.846 1.89,1.89" /><path
           inkscape:connector-curvature="0"
           id="path152"
           style="fill:#000000;fill-opacity:1;fill-rule:nonzero;stroke:none"
           d="m 218.44,165.8 c 0,1.044 -0.846,1.89 -1.89,1.89 -1.044,0 -1.89,-0.846 -1.89,-1.89 0,-1.044 0.846,-1.89 1.89,-1.89 1.044,0 1.89,0.846 1.89,1.89" /><path
           inkscape:connector-curvature="0"
           id="path154"
           style="fill:#000000;fill-opacity:1;fill-rule:nonzero;stroke:none"
           d="m 229.34,172.55 c 0,1.044 -0.846,1.89 -1.89,1.89 -1.044,0 -1.89,-0.846 -1.89,-1.89 0,-1.044 0.846,-1.89 1.89,-1.89 1.044,0 1.89,0.846 1.89,1.89" /><path
           inkscape:connector-curvature="0"
           id="path156"
           style="fill:#000000;fill-opacity:1;fill-rule:nonzero;stroke:none"
           d="m 240.29,179.35 c 0,1.044 -0.846,1.89 -1.89,1.89 -1.044,0 -1.89,-0.846 -1.89,-1.89 0,-1.044 0.846,-1.89 1.89,-1.89 1.044,0 1.89,0.846 1.89,1.89" /><path
           inkscape:connector-curvature="0"
           id="path158"
           style="fill:#000000;fill-opacity:1;fill-rule:nonzero;stroke:none"
           d="m 251.19,184.55 c 0,1.044 -0.846,1.89 -1.89,1.89 -1.044,0 -1.89,-0.846 -1.89,-1.89 0,-1.044 0.846,-1.89 1.89,-1.89 1.044,0 1.89,0.846 1.89,1.89" /><path
           inkscape:connector-curvature="0"
           id="path160"
           style="fill:#000000;fill-opacity:1;fill-rule:nonzero;stroke:none"
           d="m 262.14,187.4 c 0,1.044 -0.846,1.89 -1.89,1.89 -1.044,0 -1.89,-0.846 -1.89,-1.89 0,-1.044 0.846,-1.89 1.89,-1.89 1.044,0 1.89,0.846 1.89,1.89" /><path
           inkscape:connector-curvature="0"
           id="path162"
           style="fill:#000000;fill-opacity:1;fill-rule:nonzero;stroke:none"
           d="m 272.89,193.5 c 0,1.044 -0.846,1.89 -1.89,1.89 -1.044,0 -1.89,-0.846 -1.89,-1.89 0,-1.044 0.846,-1.89 1.89,-1.89 1.044,0 1.89,0.846 1.89,1.89" /><path
           inkscape:connector-curvature="0"
           id="path164"
           style="fill:#000000;fill-opacity:1;fill-rule:nonzero;stroke:none"
           d="m 283.84,197.95 c 0,1.044 -0.846,1.89 -1.89,1.89 -1.044,0 -1.89,-0.846 -1.89,-1.89 0,-1.044 0.846,-1.89 1.89,-1.89 1.044,0 1.89,0.846 1.89,1.89" /><path
           inkscape:connector-curvature="0"
           id="path166"
           style="fill:#000000;fill-opacity:1;fill-rule:nonzero;stroke:none"
           d="m 294.74,201.45 c 0,1.044 -0.846,1.89 -1.89,1.89 -1.044,0 -1.89,-0.846 -1.89,-1.89 0,-1.044 0.846,-1.89 1.89,-1.89 1.044,0 1.89,0.846 1.89,1.89" /><path
           inkscape:connector-curvature="0"
           id="path168"
           style="fill:#000000;fill-opacity:1;fill-rule:nonzero;stroke:none"
           d="m 305.69,200.35 c 0,1.044 -0.846,1.89 -1.89,1.89 -1.044,0 -1.89,-0.846 -1.89,-1.89 0,-1.044 0.846,-1.89 1.89,-1.89 1.044,0 1.89,0.846 1.89,1.89" /><path
           inkscape:connector-curvature="0"
           id="path170"
           style="fill:#000000;fill-opacity:1;fill-rule:nonzero;stroke:none"
           d="m 311.14,202.95 c 0,1.044 -0.846,1.89 -1.89,1.89 -1.044,0 -1.89,-0.846 -1.89,-1.89 0,-1.044 0.846,-1.89 1.89,-1.89 1.044,0 1.89,0.846 1.89,1.89" /><path
           inkscape:connector-curvature="0"
           id="path172"
           style="fill:#000000;fill-opacity:1;fill-rule:nonzero;stroke:none"
           d="m 316.59,219.3 c 0,1.044 -0.846,1.89 -1.89,1.89 -1.044,0 -1.89,-0.846 -1.89,-1.89 0,-1.044 0.846,-1.89 1.89,-1.89 1.044,0 1.89,0.846 1.89,1.89" /><path
           inkscape:connector-curvature="0"
           id="path174"
           style="fill:#000000;fill-opacity:1;fill-rule:nonzero;stroke:none"
           d="m 322.04,224.5 c 0,1.044 -0.846,1.89 -1.89,1.89 -1.044,0 -1.89,-0.846 -1.89,-1.89 0,-1.044 0.846,-1.89 1.89,-1.89 1.044,0 1.89,0.846 1.89,1.89" /><path
           inkscape:connector-curvature="0"
           id="path176"
           style="fill:#000000;fill-opacity:1;fill-rule:nonzero;stroke:none"
           d="m 327.54,228.55 c 0,1.044 -0.846,1.89 -1.89,1.89 -1.044,0 -1.89,-0.846 -1.89,-1.89 0,-1.044 0.846,-1.89 1.89,-1.89 1.044,0 1.89,0.846 1.89,1.89" /><path
           inkscape:connector-curvature="0"
           id="path178"
           style="fill:#000000;fill-opacity:1;fill-rule:nonzero;stroke:none"
           d="m 332.99,232.45 c 0,1.044 -0.846,1.89 -1.89,1.89 -1.044,0 -1.89,-0.846 -1.89,-1.89 0,-1.044 0.846,-1.89 1.89,-1.89 1.044,0 1.89,0.846 1.89,1.89" /><path
           inkscape:connector-curvature="0"
           id="path180"
           style="fill:#000000;fill-opacity:1;fill-rule:nonzero;stroke:none"
           d="m 337.89,235.95 c 0,1.044 -0.846,1.89 -1.89,1.89 -1.044,0 -1.89,-0.846 -1.89,-1.89 0,-1.044 0.846,-1.89 1.89,-1.89 1.044,0 1.89,0.846 1.89,1.89" /><path
           inkscape:connector-curvature="0"
           id="path182"
           style="fill:none;stroke:#000000;stroke-width:0.5;stroke-linecap:butt;stroke-linejoin:miter;stroke-miterlimit:3.79999995;stroke-opacity:1;stroke-dasharray:none"
           d="m 63.75,47 27.3,2.2 27.3,3.05 27.2,4.65 10.9,3.65 5.45,2 5.5,4 5.45,4.55 5.45,17.9 5.45,18.55 5.5,21.4 5.45,11.5 10.9,18.4 10.95,6.95 10.9,6.75 10.95,6.8 10.9,5.2 10.95,2.85 10.75,6.1 10.95,4.45 10.9,3.5 10.95,-1.1 5.45,2.6 5.45,16.35 5.45,5.2 5.5,4.05 5.45,3.9 4.9,3.5" /><path
           inkscape:connector-curvature="0"
           id="path184"
           style="fill:none;stroke:#0000ff;stroke-width:0.125;stroke-linecap:butt;stroke-linejoin:miter;stroke-miterlimit:3.79999995;stroke-opacity:1;stroke-dasharray:none"
           d="m 63.75,53.25 0,1.45 m -0.05,-1.45 1.6,0 m -1.6,1.45 1.6,0 m 25.75,1.65 0,1.8 m -1.55,-1.8 3.1,0 m -3.1,1.8 3.1,0 m 25.75,2.55 0,1.25 m -1.55,-1.25 3.1,0 m -3.1,1.25 3.1,0 m 25.65,4.3 0,2.1 m -1.55,-2.1 3.1,0 m -3.1,2.1 3.1,0 m 9.35,2.05 0,3.65 m -1.55,-3.65 3.1,0 m -3.1,3.65 3.1,0 m 3.9,-1.8 0,5.25 m -1.55,-5.25 3.1,0 m -3.1,5.25 3.1,0 m 3.95,-2.15 0,9.85 m -1.55,-9.85 3.1,0 m -3.1,9.85 3.1,0 m 3.9,-5.3 0,12.9 m -1.55,-12.9 3.1,0 m -3.1,12.9 3.1,0 m 3.9,-1.85 0,41.55 m -1.55,-41.55 3.1,0 m -3.1,41.55 3.1,0 m 3.9,-18.5 0,46.45 M 182.2,114 l 3.1,0 m -3.1,46.45 3.1,0 m 3.95,-11.45 0,33.8 m -1.55,-33.8 3.1,0 m -3.1,33.8 3.1,0 m 3.9,-14.85 0,24.05 m -1.55,-24.05 3.1,0 m -3.1,24.05 3.1,0 m 9.35,4.75 0,7.85 m -1.55,-7.85 3.1,0 m -3.1,7.85 3.1,0 m 9.4,-2.95 0,7.55 m -1.55,-7.55 3.1,0 m -3.1,7.55 3.1,0 m 9.35,-1.6 0,4 m -1.55,-4 3.1,0 m -3.1,4 3.1,0 m 9.4,-0.05 0,4.15 m -1.55,-4.15 3.1,0 m -3.1,4.15 3.1,0 m 9.35,-1.45 0,2.65 m -1.55,-2.65 3.1,0 m -3.1,2.65 3.1,0 m 9.4,-4.5 0,4.95 m -1.55,-4.95 3.1,0" /><path
           inkscape:connector-curvature="0"
           id="path186"
           style="fill:none;stroke:#0000ff;stroke-width:0.125;stroke-linecap:butt;stroke-linejoin:miter;stroke-miterlimit:3.79999995;stroke-opacity:1;stroke-dasharray:none"
           d="m 258.7,217.35 3.1,0 m 9.2,-1.55 0,3.9 m -1.55,-3.9 3.1,0 m -3.1,3.9 3.1,0 m 9.4,-3 0,3.95 m -1.55,-3.95 3.1,0 m -3.1,3.95 3.1,0 m 9.35,-4.8 0,5.8 m -1.55,-5.8 3.1,0 m -3.1,5.8 3.1,0 m 9.4,-10.8 0,9.75 m -1.55,-9.75 3.1,0 m -3.1,9.75 3.1,0 m 3.9,-4.7 0,6.65 m -1.55,-6.65 3.1,0 m -3.1,6.65 3.1,0 m 3.9,9.9 0,3.9 m -1.55,-3.9 3.1,0 m 3.9,3.6 0,0.25 m -1.55,-0.25 3.1,0 m -3.1,0.25 3.1,0 m 3.95,0 0,0.05 m -1.55,-0.05 3.1,0 m -3.1,0.05 3.1,0 m 3.9,-0.05 0,0.05 m -1.55,-0.05 3.1,0 m -3.1,0.05 3.1,0 m 1.8,0 2.1,0 m -2.1,0 2.1,0" /><path
           inkscape:connector-curvature="0"
           id="path188"
           style="fill:#0000ff;fill-opacity:1;fill-rule:nonzero;stroke:none"
           d="M 63.75,55.8398 61.8602,53.95 63.75,52.0602 65.6398,53.95 63.75,55.8398" /><path
           inkscape:connector-curvature="0"
           id="path190"
           style="fill:#0000ff;fill-opacity:1;fill-rule:nonzero;stroke:none"
           d="M 91.05,59.1398 89.1602,57.25 91.05,55.3602 92.9398,57.25 91.05,59.1398" /><path
           inkscape:connector-curvature="0"
           id="path192"
           style="fill:#0000ff;fill-opacity:1;fill-rule:nonzero;stroke:none"
           d="m 118.35,63.2398 -1.89,-1.8898 1.89,-1.8898 1.89,1.8898 -1.89,1.8898" /><path
           inkscape:connector-curvature="0"
           id="path194"
           style="fill:#0000ff;fill-opacity:1;fill-rule:nonzero;stroke:none"
           d="m 145.55,69.1898 -1.89,-1.8898 1.89,-1.8898 1.89,1.8898 -1.89,1.8898" /><path
           inkscape:connector-curvature="0"
           id="path196"
           style="fill:#0000ff;fill-opacity:1;fill-rule:nonzero;stroke:none"
           d="m 156.45,74.1398 -1.89,-1.8898 1.89,-1.8898 1.89,1.8898 -1.89,1.8898" /><path
           inkscape:connector-curvature="0"
           id="path198"
           style="fill:#0000ff;fill-opacity:1;fill-rule:nonzero;stroke:none"
           d="m 161.9,76.7398 -1.89,-1.8898 1.89,-1.8898 1.89,1.8898 -1.89,1.8898" /><path
           inkscape:connector-curvature="0"
           id="path200"
           style="fill:#0000ff;fill-opacity:1;fill-rule:nonzero;stroke:none"
           d="M 167.4,82.1898 165.51,80.3 167.4,78.4102 169.29,80.3 167.4,82.1898" /><path
           inkscape:connector-curvature="0"
           id="path202"
           style="fill:#0000ff;fill-opacity:1;fill-rule:nonzero;stroke:none"
           d="m 172.85,88.2398 -1.89,-1.8898 1.89,-1.8898 1.89,1.8898 -1.89,1.8898" /><path
           inkscape:connector-curvature="0"
           id="path204"
           style="fill:#0000ff;fill-opacity:1;fill-rule:nonzero;stroke:none"
           d="m 178.3,113.64 -1.89,-1.89 1.89,-1.89 1.89,1.89 -1.89,1.89" /><path
           inkscape:connector-curvature="0"
           id="path206"
           style="fill:#0000ff;fill-opacity:1;fill-rule:nonzero;stroke:none"
           d="m 183.75,139.14 -1.89,-1.89 1.89,-1.89 1.89,1.89 -1.89,1.89" /><path
           inkscape:connector-curvature="0"
           id="path208"
           style="fill:#0000ff;fill-opacity:1;fill-rule:nonzero;stroke:none"
           d="m 189.25,167.79 -1.89,-1.89 1.89,-1.89 1.89,1.89 -1.89,1.89" /><path
           inkscape:connector-curvature="0"
           id="path210"
           style="fill:#0000ff;fill-opacity:1;fill-rule:nonzero;stroke:none"
           d="m 194.7,181.84 -1.89,-1.89 1.89,-1.89 1.89,1.89 -1.89,1.89" /><path
           inkscape:connector-curvature="0"
           id="path212"
           style="fill:#0000ff;fill-opacity:1;fill-rule:nonzero;stroke:none"
           d="m 205.6,202.59 -1.89,-1.89 1.89,-1.89 1.89,1.89 -1.89,1.89" /><path
           inkscape:connector-curvature="0"
           id="path214"
           style="fill:#0000ff;fill-opacity:1;fill-rule:nonzero;stroke:none"
           d="m 216.55,207.34 -1.89,-1.89 1.89,-1.89 1.89,1.89 -1.89,1.89" /><path
           inkscape:connector-curvature="0"
           id="path216"
           style="fill:#0000ff;fill-opacity:1;fill-rule:nonzero;stroke:none"
           d="m 227.45,211.49 -1.89,-1.89 1.89,-1.89 1.89,1.89 -1.89,1.89" /><path
           inkscape:connector-curvature="0"
           id="path218"
           style="fill:#0000ff;fill-opacity:1;fill-rule:nonzero;stroke:none"
           d="m 238.4,215.54 -1.89,-1.89 1.89,-1.89 1.89,1.89 -1.89,1.89" /><path
           inkscape:connector-curvature="0"
           id="path220"
           style="fill:#0000ff;fill-opacity:1;fill-rule:nonzero;stroke:none"
           d="m 249.3,217.44 -1.89,-1.89 1.89,-1.89 1.89,1.89 -1.89,1.89" /><path
           inkscape:connector-curvature="0"
           id="path222"
           style="fill:#0000ff;fill-opacity:1;fill-rule:nonzero;stroke:none"
           d="m 260.25,216.74 -1.89,-1.89 1.89,-1.89 1.89,1.89 -1.89,1.89" /><path
           inkscape:connector-curvature="0"
           id="path224"
           style="fill:#0000ff;fill-opacity:1;fill-rule:nonzero;stroke:none"
           d="m 271,219.64 -1.89,-1.89 1.89,-1.89 1.89,1.89 -1.89,1.89" /><path
           inkscape:connector-curvature="0"
           id="path226"
           style="fill:#0000ff;fill-opacity:1;fill-rule:nonzero;stroke:none"
           d="m 281.95,220.54 -1.89,-1.89 1.89,-1.89 1.89,1.89 -1.89,1.89" /><path
           inkscape:connector-curvature="0"
           id="path228"
           style="fill:#0000ff;fill-opacity:1;fill-rule:nonzero;stroke:none"
           d="m 292.85,220.64 -1.89,-1.89 1.89,-1.89 1.89,1.89 -1.89,1.89" /><path
           inkscape:connector-curvature="0"
           id="path230"
           style="fill:#0000ff;fill-opacity:1;fill-rule:nonzero;stroke:none"
           d="m 303.8,217.59 -1.89,-1.89 1.89,-1.89 1.89,1.89 -1.89,1.89" /><path
           inkscape:connector-curvature="0"
           id="path232"
           style="fill:#0000ff;fill-opacity:1;fill-rule:nonzero;stroke:none"
           d="m 309.25,221.14 -1.89,-1.89 1.89,-1.89 1.89,1.89 -1.89,1.89" /><path
           inkscape:connector-curvature="0"
           id="path234"
           style="fill:#0000ff;fill-opacity:1;fill-rule:nonzero;stroke:none"
           d="m 314.7,236.64 -1.89,-1.89 1.89,-1.89 1.89,1.89 -1.89,1.89" /><path
           inkscape:connector-curvature="0"
           id="path236"
           style="fill:#0000ff;fill-opacity:1;fill-rule:nonzero;stroke:none"
           d="m 320.15,238.09 -1.89,-1.89 1.89,-1.89 1.89,1.89 -1.89,1.89" /><path
           inkscape:connector-curvature="0"
           id="path238"
           style="fill:#0000ff;fill-opacity:1;fill-rule:nonzero;stroke:none"
           d="m 325.65,238.19 -1.89,-1.89 1.89,-1.89 1.89,1.89 -1.89,1.89" /><path
           inkscape:connector-curvature="0"
           id="path240"
           style="fill:#0000ff;fill-opacity:1;fill-rule:nonzero;stroke:none"
           d="m 331.1,238.24 -1.89,-1.89 1.89,-1.89 1.89,1.89 -1.89,1.89" /><path
           inkscape:connector-curvature="0"
           id="path242"
           style="fill:#0000ff;fill-opacity:1;fill-rule:nonzero;stroke:none"
           d="m 336,238.24 -1.89,-1.89 1.89,-1.89 1.89,1.89 -1.89,1.89" /><path
           inkscape:connector-curvature="0"
           id="path244"
           style="fill:none;stroke:#0000ff;stroke-width:0.5;stroke-linecap:butt;stroke-linejoin:miter;stroke-miterlimit:3.79999995;stroke-opacity:1;stroke-dasharray:none"
           d="m 63.75,53.95 27.3,3.3 27.3,4.1 27.2,5.95 10.9,4.95 5.45,2.6 5.5,5.45 5.45,6.05 5.45,25.4 5.45,25.5 5.5,28.65 5.45,14.05 10.9,20.75 10.95,4.75 10.9,4.15 10.95,4.05 10.9,1.9 10.95,-0.7 10.75,2.9 10.95,0.9 10.9,0.1 10.95,-3.05 5.45,3.55 5.45,15.5 5.45,1.45 5.5,0.1 5.45,0.05 4.9,0" /><path
           inkscape:connector-curvature="0"
           id="path246"
           style="fill:none;stroke:#ff0000;stroke-width:0.125;stroke-linecap:butt;stroke-linejoin:miter;stroke-miterlimit:3.79999995;stroke-opacity:1;stroke-dasharray:none"
           d="m 63.75,44.15 0,0.35 m -0.05,-0.35 1.6,0 m -1.6,0.35 1.6,0 m 25.75,0.8 0,0.45 m -1.55,-0.45 3.1,0 m -3.1,0.45 3.1,0 m 25.75,1.45 0,0.2 m -1.55,-0.2 3.1,0 m -3.1,0.2 3.1,0 m 25.65,2.4 0,0.6 m -1.55,-0.6 3.1,0 m -3.1,0.6 3.1,0 m 9.35,1.2 0,1.35 m -1.55,-1.35 3.1,0 m -3.1,1.35 3.1,0 m 3.9,-0.4 0,1.7 m -1.55,-1.7 3.1,0 m -3.1,1.7 3.1,0 m 3.95,-0.35 0,3 m -1.55,-3 3.1,0 m -3.1,3 3.1,0 m 3.9,-1.1 0,3.8 m -1.55,-3.8 3.1,0 m -3.1,3.8 3.1,0 m 3.9,0.05 0,12.25 m -1.55,-12.25 3.1,0 m -3.1,12.25 3.1,0 m 3.9,-4.65 0,13.3 m -1.55,-13.3 3.1,0 m -3.1,13.3 3.1,0 m 3.95,-2.3 0,9.4 m -1.55,-9.4 3.1,0 m -3.1,9.4 3.1,0 m 3.9,-3.05 0,6.7 m -1.55,-6.7 3.1,0 m -3.1,6.7 3.1,0 m 9.35,3.45 0,2.05 m -1.55,-2.05 3.1,0 m -3.1,2.05 3.1,0 m 9.4,2.15 0,2.3 m -1.55,-2.3 3.1,0 m -3.1,2.3 3.1,0 m 9.35,2.75 0,1.3 m -1.55,-1.3 3.1,0 m -3.1,1.3 3.1,0 m 9.4,4.35 0,1.15 m -1.55,-1.15 3.1,0 m -3.1,1.15 3.1,0 m 9.35,4.55 0,1.05 m -1.55,-1.05 3.1,0 m -3.1,1.05 3.1,0 m 9.4,4.85 0,1.9 m -1.55,-1.9 3.1,0" /><path
           inkscape:connector-curvature="0"
           id="path248"
           style="fill:none;stroke:#ff0000;stroke-width:0.125;stroke-linecap:butt;stroke-linejoin:miter;stroke-miterlimit:3.79999995;stroke-opacity:1;stroke-dasharray:none"
           d="m 258.7,123.15 3.1,0 m 9.2,7.4 0,1.65 m -1.55,-1.65 3.1,0 m -3.1,1.65 3.1,0 m 9.4,10.3 0,1.65 m -1.55,-1.65 3.1,0 m -3.1,1.65 3.1,0 m 9.35,15.85 0,2.8 m -1.55,-2.8 3.1,0 m -3.1,2.8 3.1,0 m 9.4,24.65 0,6.65 m -1.55,-6.65 3.1,0 m -3.1,6.65 3.1,0 m 3.9,17.35 0,5.85 m -1.55,-5.85 3.1,0 m -3.1,5.85 3.1,0 m 3.9,14.2 0,4.85 m -1.55,-4.85 3.1,0 m 3.9,3.8 0,1.05 m -1.55,-1.05 3.1,0 m 3.95,-0.25 0,1.3 m -1.55,-1.3 3.1,0 m 3.9,1.25 0,0.05 m -1.55,-0.05 3.1,0 m 1.8,0.05 2.1,0 m -2.1,0 2.1,0" /><path
           inkscape:connector-curvature="0"
           id="path250"
           style="fill:#ff0000;fill-opacity:1;fill-rule:nonzero;stroke:none"
           d="m 63.75,42.1832 -1.8898,3.0617 3.7796,0 -1.8898,-3.0617" /><path
           inkscape:connector-curvature="0"
           id="path252"
           style="fill:#ff0000;fill-opacity:1;fill-rule:nonzero;stroke:none"
           d="m 91.05,43.4332 -1.8898,3.0617 3.7796,0 -1.8898,-3.0617" /><path
           inkscape:connector-curvature="0"
           id="path254"
           style="fill:#ff0000;fill-opacity:1;fill-rule:nonzero;stroke:none"
           d="m 118.35,45.1832 -1.89,3.0617 3.78,0 -1.89,-3.0617" /><path
           inkscape:connector-curvature="0"
           id="path256"
           style="fill:#ff0000;fill-opacity:1;fill-rule:nonzero;stroke:none"
           d="m 145.55,47.9832 -1.89,3.0617 3.78,0 -1.89,-3.0617" /><path
           inkscape:connector-curvature="0"
           id="path258"
           style="fill:#ff0000;fill-opacity:1;fill-rule:nonzero;stroke:none"
           d="m 156.45,50.1832 -1.89,3.0617 3.78,0 -1.89,-3.0617" /><path
           inkscape:connector-curvature="0"
           id="path260"
           style="fill:#ff0000;fill-opacity:1;fill-rule:nonzero;stroke:none"
           d="m 161.9,51.2832 -1.89,3.0617 3.78,0 -1.89,-3.0617" /><path
           inkscape:connector-curvature="0"
           id="path262"
           style="fill:#ff0000;fill-opacity:1;fill-rule:nonzero;stroke:none"
           d="m 167.4,53.2832 -1.89,3.0617 3.78,0 -1.89,-3.0617" /><path
           inkscape:connector-curvature="0"
           id="path264"
           style="fill:#ff0000;fill-opacity:1;fill-rule:nonzero;stroke:none"
           d="m 172.85,55.5832 -1.89,3.0617 3.78,0 -1.89,-3.0617" /><path
           inkscape:connector-curvature="0"
           id="path266"
           style="fill:#ff0000;fill-opacity:1;fill-rule:nonzero;stroke:none"
           d="m 178.3,63.6332 -1.89,3.0617 3.78,0 -1.89,-3.0617" /><path
           inkscape:connector-curvature="0"
           id="path268"
           style="fill:#ff0000;fill-opacity:1;fill-rule:nonzero;stroke:none"
           d="m 183.75,71.7832 -1.89,3.0617 3.78,0 -1.89,-3.0617" /><path
           inkscape:connector-curvature="0"
           id="path270"
           style="fill:#ff0000;fill-opacity:1;fill-rule:nonzero;stroke:none"
           d="m 189.25,80.8332 -1.89,3.0617 3.78,0 -1.89,-3.0617" /><path
           inkscape:connector-curvature="0"
           id="path272"
           style="fill:#ff0000;fill-opacity:1;fill-rule:nonzero;stroke:none"
           d="m 194.7,85.8332 -1.89,3.0617 3.78,0 -1.89,-3.0617" /><path
           inkscape:connector-curvature="0"
           id="path274"
           style="fill:#ff0000;fill-opacity:1;fill-rule:nonzero;stroke:none"
           d="m 205.6,93.6332 -1.89,3.0617 3.78,0 -1.89,-3.0617" /><path
           inkscape:connector-curvature="0"
           id="path276"
           style="fill:#ff0000;fill-opacity:1;fill-rule:nonzero;stroke:none"
           d="m 216.55,97.9832 -1.89,3.0618 3.78,0 -1.89,-3.0618" /><path
           inkscape:connector-curvature="0"
           id="path278"
           style="fill:#ff0000;fill-opacity:1;fill-rule:nonzero;stroke:none"
           d="m 227.45,102.533 -1.89,3.062 3.78,0 -1.89,-3.062" /><path
           inkscape:connector-curvature="0"
           id="path280"
           style="fill:#ff0000;fill-opacity:1;fill-rule:nonzero;stroke:none"
           d="m 238.4,108.133 -1.89,3.062 3.78,0 -1.89,-3.062" /><path
           inkscape:connector-curvature="0"
           id="path282"
           style="fill:#ff0000;fill-opacity:1;fill-rule:nonzero;stroke:none"
           d="m 249.3,113.733 -1.89,3.062 3.78,0 -1.89,-3.062" /><path
           inkscape:connector-curvature="0"
           id="path284"
           style="fill:#ff0000;fill-opacity:1;fill-rule:nonzero;stroke:none"
           d="m 260.25,120.083 -1.89,3.062 3.78,0 -1.89,-3.062" /><path
           inkscape:connector-curvature="0"
           id="path286"
           style="fill:#ff0000;fill-opacity:1;fill-rule:nonzero;stroke:none"
           d="m 271,129.283 -1.89,3.062 3.78,0 -1.89,-3.062" /><path
           inkscape:connector-curvature="0"
           id="path288"
           style="fill:#ff0000;fill-opacity:1;fill-rule:nonzero;stroke:none"
           d="m 281.95,141.183 -1.89,3.062 3.78,0 -1.89,-3.062" /><path
           inkscape:connector-curvature="0"
           id="path290"
           style="fill:#ff0000;fill-opacity:1;fill-rule:nonzero;stroke:none"
           d="m 292.85,159.283 -1.89,3.062 3.78,0 -1.89,-3.062" /><path
           inkscape:connector-curvature="0"
           id="path292"
           style="fill:#ff0000;fill-opacity:1;fill-rule:nonzero;stroke:none"
           d="m 303.8,188.683 -1.89,3.062 3.78,0 -1.89,-3.062" /><path
           inkscape:connector-curvature="0"
           id="path294"
           style="fill:#ff0000;fill-opacity:1;fill-rule:nonzero;stroke:none"
           d="m 309.25,212.233 -1.89,3.062 3.78,0 -1.89,-3.062" /><path
           inkscape:connector-curvature="0"
           id="path296"
           style="fill:#ff0000;fill-opacity:1;fill-rule:nonzero;stroke:none"
           d="m 314.7,232.283 -1.89,3.062 3.78,0 -1.89,-3.062" /><path
           inkscape:connector-curvature="0"
           id="path298"
           style="fill:#ff0000;fill-opacity:1;fill-rule:nonzero;stroke:none"
           d="m 320.15,233.933 -1.89,3.062 3.78,0 -1.89,-3.062" /><path
           inkscape:connector-curvature="0"
           id="path300"
           style="fill:#ff0000;fill-opacity:1;fill-rule:nonzero;stroke:none"
           d="m 325.65,233.983 -1.89,3.062 3.78,0 -1.89,-3.062" /><path
           inkscape:connector-curvature="0"
           id="path302"
           style="fill:#ff0000;fill-opacity:1;fill-rule:nonzero;stroke:none"
           d="m 331.1,234.233 -1.89,3.062 3.78,0 -1.89,-3.062" /><path
           inkscape:connector-curvature="0"
           id="path304"
           style="fill:#ff0000;fill-opacity:1;fill-rule:nonzero;stroke:none"
           d="m 336,234.233 -1.89,3.062 3.78,0 -1.89,-3.062" /><path
           inkscape:connector-curvature="0"
           id="path306"
           style="fill:none;stroke:#ff0000;stroke-width:0.5;stroke-linecap:butt;stroke-linejoin:miter;stroke-miterlimit:3.79999995;stroke-opacity:1;stroke-dasharray:none"
           d="m 63.75,44.3 27.3,1.25 27.3,1.75 27.2,2.8 10.9,2.2 5.45,1.1 5.5,2 5.45,2.3 5.45,8.05 5.45,8.15 5.5,9.05 5.45,5 10.9,7.8 10.95,4.35 10.9,4.55 10.95,5.6 10.9,5.6 10.95,6.35 10.75,9.2 10.95,11.9 10.9,18.1 10.95,29.4 5.45,23.55 5.45,20.05 5.45,1.65 5.5,0.05 5.45,0.25 4.9,0" /><path
           inkscape:connector-curvature="0"
           id="path308"
           style="fill:none;stroke:#000000;stroke-width:0.5;stroke-linecap:butt;stroke-linejoin:miter;stroke-miterlimit:3.79999995;stroke-opacity:1;stroke-dasharray:none"
           d="m 63.7,41.6 272.85,0 0,194.75 -272.85,0 0,-194.75 z" /></g><g
         id="g3150"
         transform="matrix(0,-1,1,0,-179.4936,338.00814)"><g
           id="g4312"
           transform="translate(-35.78814,-4.8182175)"><path
             inkscape:connector-curvature="0"
             inkscape:original-d="m 195.78814,204.2161 0,46.02966"
             inkscape:path-effect="#path-effect3510-2"
             id="path3508-4"
             d="m 195.78814,204.2161 0,46.02966"
             style="fill:#ff0000;fill-opacity:1;stroke:#ff0000;stroke-width:0.80000001px;stroke-linecap:butt;stroke-linejoin:miter;stroke-opacity:1" /><path
             d="m 199.73264,227.37678 -6.124,-3.78 0,7.56 6.124,-3.78"
             style="fill:#ff0000;fill-opacity:1;fill-rule:nonzero;stroke:none"
             id="path212-5"
             inkscape:connector-curvature="0" /></g><g
           id="g4316"
           transform="translate(-25.83066,-5.2326275)"><path
             inkscape:connector-curvature="0"
             inkscape:original-d="m 161.75212,204.2161 0,46.02966"
             inkscape:path-effect="#path-effect3510-5"
             id="path3508-5"
             d="m 161.75212,204.2161 0,46.02966"
             style="fill:#0000ff;stroke:#0000ff;stroke-width:0.80000001px;stroke-linecap:butt;stroke-linejoin:miter;stroke-opacity:1" /><path
             d="m 158.05066,227.37678 3.78,-3.78 3.78,3.78 -3.78,3.78 -3.78,-3.78"
             style="fill:#0000ff;fill-opacity:1;fill-rule:nonzero;stroke:none"
             id="path150-1"
             inkscape:connector-curvature="0" /></g><g
           id="g4320"
           transform="translate(-12.15042,-2.42289)"><path
             inkscape:connector-curvature="0"
             inkscape:original-d="m 124.15042,201.62289 0,46.02966"
             inkscape:path-effect="#path-effect3510"
             id="path3508"
             d="m 124.15042,201.62289 0,46.02966"
             style="fill:none;stroke:#000000;stroke-width:0.80000001px;stroke-linecap:butt;stroke-linejoin:miter;stroke-opacity:1" /><path
             d="m 124.24014,228.40625 c -2.088,0 -3.78,-1.692 -3.78,-3.78 0,-2.088 1.692,-3.78 3.78,-3.78 2.088,0 3.78,1.692 3.78,3.78 0,2.088 -1.692,3.78 -3.78,3.78"
             style="fill:#000000;fill-opacity:1;fill-rule:nonzero;stroke:none"
             id="path264-5"
             inkscape:connector-curvature="0" /></g><flowRoot
           transform="matrix(0,0.8,0.8,0,-428.71927,-177.775)"
           xml:space="preserve"
           id="flowRoot3415-2-6"
           style="font-size:40px;font-style:normal;font-weight:normal;line-height:125%;letter-spacing:0px;word-spacing:0px;fill:#000000;fill-opacity:1;stroke:none;font-family:Sans"><flowRegion
             id="flowRegion3417-0-9"><rect
               id="rect3419-8-2"
               width="93.976288"
               height="46.988144"
               x="543.22882"
               y="657.27106" /></flowRegion><flowPara
             id="flowPara3421-6-2"
             style="font-size:24px;font-style:normal;font-variant:normal;font-weight:normal;font-stretch:normal;font-family:Arial;-inkscape-font-specification:Arial">R</flowPara></flowRoot><flowRoot
           transform="matrix(0,0.8,0.8,0,-407.86831,-177.775)"
           xml:space="preserve"
           id="flowRoot3415-2-6-1"
           style="font-size:40px;font-style:normal;font-weight:normal;line-height:125%;letter-spacing:0px;word-spacing:0px;fill:#000000;fill-opacity:1;stroke:none;font-family:Sans"><flowRegion
             id="flowRegion3417-0-9-7"><rect
               id="rect3419-8-2-8"
               width="93.976288"
               height="46.988144"
               x="543.22882"
               y="657.27106" /></flowRegion><flowPara
             id="flowPara3421-6-2-5"
             style="font-size:28px;font-style:normal;font-variant:normal;font-weight:normal;font-stretch:normal;font-family:Arial;-inkscape-font-specification:Arial">r<flowSpan
   style="font-size:65.00091553%;baseline-shift:sub"
   id="flowSpan4407">1</flowSpan></flowPara></flowRoot><flowRoot
           transform="matrix(0,0.8,0.8,0,-383.86831,-177.775)"
           xml:space="preserve"
           id="flowRoot3415-2-6-1-6"
           style="font-size:40px;font-style:normal;font-weight:normal;line-height:125%;letter-spacing:0px;word-spacing:0px;fill:#000000;fill-opacity:1;stroke:none;font-family:Sans"><flowRegion
             id="flowRegion3417-0-9-7-0"><rect
               id="rect3419-8-2-8-9"
               width="93.976288"
               height="46.988144"
               x="543.22882"
               y="657.27106" /></flowRegion><flowPara
             id="flowPara3421-6-2-5-3"
             style="font-size:28px;font-style:normal;font-variant:normal;font-weight:normal;font-stretch:normal;font-family:Arial;-inkscape-font-specification:Arial">r<flowSpan
   style="font-size:65.00091553%;baseline-shift:sub"
   id="flowSpan4409">2</flowSpan></flowPara></flowRoot></g><flowRoot
         transform="matrix(0.8,0,0,-0.8,-215.58535,433.39018)"
         style="font-size:40px;font-style:normal;font-weight:normal;line-height:125%;letter-spacing:0px;word-spacing:0px;fill:#000000;fill-opacity:1;stroke:none;font-family:Sans"
         id="flowRoot3415"
         xml:space="preserve"><flowRegion
           id="flowRegion3417"><rect
             y="657.27106"
             x="543.22882"
             height="49.280262"
             width="45.84206"
             id="rect3419" /></flowRegion><flowPara
           style="font-size:40px;font-style:normal;font-variant:normal;font-weight:normal;font-stretch:normal;font-family:Arial;-inkscape-font-specification:Arial"
           id="flowPara3421">p</flowPara></flowRoot></g></g></svg>