<?xml version="1.0" encoding="UTF-8" standalone="no"?>
<!-- Created with Inkscape (http://www.inkscape.org/) -->

<svg
   xmlns:dc="http://purl.org/dc/elements/1.1/"
   xmlns:cc="http://creativecommons.org/ns#"
   xmlns:rdf="http://www.w3.org/1999/02/22-rdf-syntax-ns#"
   xmlns:svg="http://www.w3.org/2000/svg"
   xmlns="http://www.w3.org/2000/svg"
   xmlns:sodipodi="http://sodipodi.sourceforge.net/DTD/sodipodi-0.dtd"
   xmlns:inkscape="http://www.inkscape.org/namespaces/inkscape"
   id="svg2"
   version="1.1"
   inkscape:version="0.48.3.1 r9886"
   width="450"
   height="315"
   xml:space="preserve"
   sodipodi:docname="Fig3.svg"><metadata
     id="metadata8"><rdf:RDF><cc:Work
         rdf:about=""><dc:format>image/svg+xml</dc:format><dc:type
           rdf:resource="http://purl.org/dc/dcmitype/StillImage" /><dc:title /></cc:Work></rdf:RDF></metadata><defs
     id="defs6"><inkscape:path-effect
       effect="spiro"
       id="path-effect3510"
       is_visible="true" /><inkscape:path-effect
       effect="spiro"
       id="path-effect3510-5"
       is_visible="true" /><inkscape:path-effect
       effect="spiro"
       id="path-effect3510-2"
       is_visible="true" /><inkscape:path-effect
       effect="spiro"
       id="path-effect3510-7"
       is_visible="true" /><inkscape:path-effect
       effect="spiro"
       id="path-effect3510-71"
       is_visible="true" /></defs><sodipodi:namedview
     pagecolor="#ffffff"
     bordercolor="#666666"
     borderopacity="1"
     objecttolerance="10"
     gridtolerance="10"
     guidetolerance="10"
     inkscape:pageopacity="0"
     inkscape:pageshadow="2"
     inkscape:window-width="1615"
     inkscape:window-height="1026"
     id="namedview4"
     showgrid="true"
     inkscape:zoom="2.1190756"
     inkscape:cx="257.84883"
     inkscape:cy="119.9169"
     inkscape:window-x="1985"
     inkscape:window-y="54"
     inkscape:window-maximized="1"
     inkscape:current-layer="g10"><inkscape:grid
       type="xygrid"
       id="grid4441" /></sodipodi:namedview><g
     id="g10"
     inkscape:groupmode="layer"
     inkscape:label="ink_ext_XXXXXX"
     transform="matrix(1.25,0,0,-1.25,0,315)"><path
       inkscape:connector-curvature="0"
       id="path14"
       style="fill:none;stroke:#000000;stroke-width:0.5;stroke-linecap:butt;stroke-linejoin:miter;stroke-miterlimit:3.79999995;stroke-opacity:1;stroke-dasharray:none"
       d="m 71.5,41.6 3.15,0 m 261.9,0 -3.15,0" /><g
       id="g16"><text
   id="text18"
   transform="matrix(1,0,0,-1,56.4726,37.2648)"><tspan
     id="tspan20"
     y="0"
     x="0"
     style="font-size:13px;font-variant:normal;font-weight:normal;writing-mode:lr-tb;fill:#000000;fill-opacity:1;fill-rule:nonzero;stroke:none;font-family:Helvetica;-inkscape-font-specification:Helvetica">0</tspan></text>

</g><path
       inkscape:connector-curvature="0"
       id="path22"
       style="fill:none;stroke:#000000;stroke-width:0.5;stroke-linecap:butt;stroke-linejoin:miter;stroke-miterlimit:3.79999995;stroke-opacity:1;stroke-dasharray:none"
       d="m 71.5,65.95 1.55,0 m 263.5,0 -1.55,0 M 71.5,90.3 l 3.15,0 m 261.9,0 -3.15,0" /><g
       id="g24"><text
   id="text26"
   transform="matrix(1,0,0,-1,38.4035,85.9648)"><tspan
     id="tspan28"
     sodipodi:role="line"
     y="0"
     x="0 7.2280002 10.842 18.07"
     style="font-size:13px;font-variant:normal;font-weight:normal;writing-mode:lr-tb;fill:#000000;fill-opacity:1;fill-rule:nonzero;stroke:none;font-family:Helvetica;-inkscape-font-specification:Helvetica">0.02</tspan></text>

</g><path
       inkscape:connector-curvature="0"
       id="path30"
       style="fill:none;stroke:#000000;stroke-width:0.5;stroke-linecap:butt;stroke-linejoin:miter;stroke-miterlimit:3.79999995;stroke-opacity:1;stroke-dasharray:none"
       d="m 71.5,114.65 1.55,0 m 263.5,0 -1.55,0 M 71.5,139 l 3.15,0 m 261.9,0 -3.15,0" /><g
       id="g32"><text
   id="text34"
   transform="matrix(1,0,0,-1,38.4035,134.665)"><tspan
     id="tspan36"
     sodipodi:role="line"
     y="0"
     x="0 7.2280002 10.842 18.07"
     style="font-size:13px;font-variant:normal;font-weight:normal;writing-mode:lr-tb;fill:#000000;fill-opacity:1;fill-rule:nonzero;stroke:none;font-family:Helvetica;-inkscape-font-specification:Helvetica">0.04</tspan></text>

</g><path
       inkscape:connector-curvature="0"
       id="path38"
       style="fill:none;stroke:#000000;stroke-width:0.5;stroke-linecap:butt;stroke-linejoin:miter;stroke-miterlimit:3.79999995;stroke-opacity:1;stroke-dasharray:none"
       d="m 71.5,163.3 1.55,0 m 263.5,0 -1.55,0 m -263.5,24.35 3.15,0 m 261.9,0 -3.15,0" /><g
       id="g40"><text
   id="text42"
   transform="matrix(1,0,0,-1,38.4035,183.315)"><tspan
     id="tspan44"
     sodipodi:role="line"
     y="0"
     x="0 7.2280002 10.842 18.07"
     style="font-size:13px;font-variant:normal;font-weight:normal;writing-mode:lr-tb;fill:#000000;fill-opacity:1;fill-rule:nonzero;stroke:none;font-family:Helvetica;-inkscape-font-specification:Helvetica">0.06</tspan></text>

</g><path
       inkscape:connector-curvature="0"
       id="path46"
       style="fill:none;stroke:#000000;stroke-width:0.5;stroke-linecap:butt;stroke-linejoin:miter;stroke-miterlimit:3.79999995;stroke-opacity:1;stroke-dasharray:none"
       d="m 71.5,212 1.55,0 m 263.5,0 -1.55,0 m -263.5,24.35 3.15,0 m 261.9,0 -3.15,0" /><g
       id="g48"><text
   id="text50"
   transform="matrix(1,0,0,-1,38.4035,232.015)"><tspan
     id="tspan52"
     sodipodi:role="line"
     y="0"
     x="0 7.2280002 10.842 18.07"
     style="font-size:13px;font-variant:normal;font-weight:normal;writing-mode:lr-tb;fill:#000000;fill-opacity:1;fill-rule:nonzero;stroke:none;font-family:Helvetica;-inkscape-font-specification:Helvetica">0.08</tspan></text>

</g><path
       inkscape:connector-curvature="0"
       id="path54"
       style="fill:none;stroke:#000000;stroke-width:0.5;stroke-linecap:butt;stroke-linejoin:miter;stroke-miterlimit:3.79999995;stroke-opacity:1;stroke-dasharray:none"
       d="m 71.55,41.6 0,3.15 m 0,191.6 0,-3.15" /><g
       id="g56"><text
   id="text58"
   transform="matrix(1,0,0,-1,64.3226,24.2648)"><tspan
     id="tspan60"
     sodipodi:role="line"
     y="0"
     x="0 7.2280002 10.842"
     style="font-size:13px;font-variant:normal;font-weight:normal;writing-mode:lr-tb;fill:#000000;fill-opacity:1;fill-rule:nonzero;stroke:none;font-family:Helvetica;-inkscape-font-specification:Helvetica">0.5</tspan></text>

</g><path
       inkscape:connector-curvature="0"
       id="path62"
       style="fill:none;stroke:#000000;stroke-width:0.5;stroke-linecap:butt;stroke-linejoin:miter;stroke-miterlimit:3.79999995;stroke-opacity:1;stroke-dasharray:none"
       d="m 82.15,41.6 0,1.55 m 0,193.2 0,-1.55 m 10.6,-193.2 0,1.55 m 0,193.2 0,-1.55 m 10.6,-193.2 0,1.55 m 0,193.2 0,-1.55 m 10.6,-193.2 0,1.55 m 0,193.2 0,-1.55 m 10.6,-193.2 0,3.15 m 0,191.6 0,-3.15" /><g
       id="g64"><text
   id="text66"
   transform="matrix(1,0,0,-1,117.323,24.2648)"><tspan
     id="tspan68"
     sodipodi:role="line"
     y="0"
     x="0 7.2280002 10.842"
     style="font-size:13px;font-variant:normal;font-weight:normal;writing-mode:lr-tb;fill:#000000;fill-opacity:1;fill-rule:nonzero;stroke:none;font-family:Helvetica;-inkscape-font-specification:Helvetica">0.6</tspan></text>

</g><path
       inkscape:connector-curvature="0"
       id="path70"
       style="fill:none;stroke:#000000;stroke-width:0.5;stroke-linecap:butt;stroke-linejoin:miter;stroke-miterlimit:3.79999995;stroke-opacity:1;stroke-dasharray:none"
       d="m 135.15,41.6 0,1.55 m 0,193.2 0,-1.55 m 10.6,-193.2 0,1.55 m 0,193.2 0,-1.55 m 10.6,-193.2 0,1.55 m 0,193.2 0,-1.55 m 10.6,-193.2 0,1.55 m 0,193.2 0,-1.55 m 10.6,-193.2 0,3.15 m 0,191.6 0,-3.15" /><g
       id="g72"><text
   id="text74"
   transform="matrix(1,0,0,-1,170.323,24.2648)"><tspan
     id="tspan76"
     sodipodi:role="line"
     y="0"
     x="0 7.2280002 10.842"
     style="font-size:13px;font-variant:normal;font-weight:normal;writing-mode:lr-tb;fill:#000000;fill-opacity:1;fill-rule:nonzero;stroke:none;font-family:Helvetica;-inkscape-font-specification:Helvetica">0.7</tspan></text>

</g><path
       inkscape:connector-curvature="0"
       id="path78"
       style="fill:none;stroke:#000000;stroke-width:0.5;stroke-linecap:butt;stroke-linejoin:miter;stroke-miterlimit:3.79999995;stroke-opacity:1;stroke-dasharray:none"
       d="m 188.15,41.6 0,1.55 m 0,193.2 0,-1.55 m 10.6,-193.2 0,1.55 m 0,193.2 0,-1.55 m 10.6,-193.2 0,1.55 m 0,193.2 0,-1.55 m 10.6,-193.2 0,1.55 m 0,193.2 0,-1.55 m 10.6,-193.2 0,3.15 m 0,191.6 0,-3.15" /><g
       id="g80"><text
   id="text82"
   transform="matrix(1,0,0,-1,223.323,24.2648)"><tspan
     id="tspan84"
     sodipodi:role="line"
     y="0"
     x="0 7.2280002 10.842"
     style="font-size:13px;font-variant:normal;font-weight:normal;writing-mode:lr-tb;fill:#000000;fill-opacity:1;fill-rule:nonzero;stroke:none;font-family:Helvetica;-inkscape-font-specification:Helvetica">0.8</tspan></text>

</g><path
       inkscape:connector-curvature="0"
       id="path86"
       style="fill:none;stroke:#000000;stroke-width:0.5;stroke-linecap:butt;stroke-linejoin:miter;stroke-miterlimit:3.79999995;stroke-opacity:1;stroke-dasharray:none"
       d="m 241.15,41.6 0,1.55 m 0,193.2 0,-1.55 m 10.6,-193.2 0,1.55 m 0,193.2 0,-1.55 m 10.6,-193.2 0,1.55 m 0,193.2 0,-1.55 m 10.6,-193.2 0,1.55 m 0,193.2 0,-1.55 m 10.6,-193.2 0,3.15 m 0,191.6 0,-3.15" /><g
       id="g88"><text
   id="text90"
   transform="matrix(1,0,0,-1,276.323,24.2648)"><tspan
     id="tspan92"
     sodipodi:role="line"
     y="0"
     x="0 7.2280002 10.842"
     style="font-size:13px;font-variant:normal;font-weight:normal;writing-mode:lr-tb;fill:#000000;fill-opacity:1;fill-rule:nonzero;stroke:none;font-family:Helvetica;-inkscape-font-specification:Helvetica">0.9</tspan></text>

</g><path
       inkscape:connector-curvature="0"
       id="path94"
       style="fill:none;stroke:#000000;stroke-width:0.5;stroke-linecap:butt;stroke-linejoin:miter;stroke-miterlimit:3.79999995;stroke-opacity:1;stroke-dasharray:none"
       d="m 294.15,41.6 0,1.55 m 0,193.2 0,-1.55 m 10.6,-193.2 0,1.55 m 0,193.2 0,-1.55 m 10.6,-193.2 0,1.55 m 0,193.2 0,-1.55 m 10.6,-193.2 0,1.55 m 0,193.2 0,-1.55 m 10.6,-193.2 0,3.15 m 0,191.6 0,-3.15" /><g
       id="g96"><text
   id="text98"
   transform="matrix(1,0,0,-1,334.743,24.2648)"><tspan
     id="tspan100"
     y="0"
     x="0"
     style="font-size:13px;font-variant:normal;font-weight:normal;writing-mode:lr-tb;fill:#000000;fill-opacity:1;fill-rule:nonzero;stroke:none;font-family:Helvetica;-inkscape-font-specification:Helvetica">1</tspan></text>

</g><path
       inkscape:connector-curvature="0"
       id="path102"
       style="fill:none;stroke:#000000;stroke-width:0.5;stroke-linecap:butt;stroke-linejoin:miter;stroke-miterlimit:3.79999995;stroke-opacity:1;stroke-dasharray:none"
       d="m 71.5,41.6 265.05,0 0,194.75 -265.05,0 0,-194.75 z" /><path
       inkscape:connector-curvature="0"
       id="path114"
       style="fill:none;stroke:#ff0000;stroke-width:0.25;stroke-linecap:butt;stroke-linejoin:miter;stroke-miterlimit:3.79999995;stroke-opacity:1;stroke-dasharray:none"
       d="m 71.5,42.35 0.05,0 10.6,0.45 10.6,1 10.6,4.8 5.3,5 5.3,7.95 5.3,7.7 5.3,3.85 10.6,4.6 10.6,3.55 10.6,2.45 10.6,2.8 10.6,1.7 10.6,2.05 15.9,1.4 15.9,1.25 10.6,0.45 10.65,-0.15 15.85,-1 15.85,-2.1 10.65,-2.4 10.55,-2.9 15.95,-6.35 L 325.95,63.5 336,41.6" /><path
       inkscape:connector-curvature="0"
       id="path116"
       style="fill:#ff0000;fill-opacity:1;fill-rule:nonzero;stroke:none"
       d="m 71.55,40.2332 -1.8898,3.0617 3.7796,0 -1.8898,-3.0617" /><path
       inkscape:connector-curvature="0"
       id="path118"
       style="fill:#ff0000;fill-opacity:1;fill-rule:nonzero;stroke:none"
       d="m 82.15,40.6832 -1.8898,3.0617 3.7796,0 -1.8898,-3.0617" /><path
       inkscape:connector-curvature="0"
       id="path120"
       style="fill:#ff0000;fill-opacity:1;fill-rule:nonzero;stroke:none"
       d="m 92.75,41.6832 -1.8898,3.0617 3.7796,0 -1.8898,-3.0617" /><path
       inkscape:connector-curvature="0"
       id="path122"
       style="fill:#ff0000;fill-opacity:1;fill-rule:nonzero;stroke:none"
       d="m 103.35,46.4832 -1.89,3.0617 3.78,0 -1.89,-3.0617" /><path
       inkscape:connector-curvature="0"
       id="path124"
       style="fill:#ff0000;fill-opacity:1;fill-rule:nonzero;stroke:none"
       d="m 108.65,51.4832 -1.89,3.0617 3.78,0 -1.89,-3.0617" /><path
       inkscape:connector-curvature="0"
       id="path126"
       style="fill:#ff0000;fill-opacity:1;fill-rule:nonzero;stroke:none"
       d="m 113.95,59.4332 -1.89,3.0617 3.78,0 -1.89,-3.0617" /><path
       inkscape:connector-curvature="0"
       id="path128"
       style="fill:#ff0000;fill-opacity:1;fill-rule:nonzero;stroke:none"
       d="m 119.25,67.1332 -1.89,3.0617 3.78,0 -1.89,-3.0617" /><path
       inkscape:connector-curvature="0"
       id="path130"
       style="fill:#ff0000;fill-opacity:1;fill-rule:nonzero;stroke:none"
       d="m 124.55,70.9832 -1.89,3.0617 3.78,0 -1.89,-3.0617" /><path
       inkscape:connector-curvature="0"
       id="path132"
       style="fill:#ff0000;fill-opacity:1;fill-rule:nonzero;stroke:none"
       d="m 135.15,75.5832 -1.89,3.0617 3.78,0 -1.89,-3.0617" /><path
       inkscape:connector-curvature="0"
       id="path134"
       style="fill:#ff0000;fill-opacity:1;fill-rule:nonzero;stroke:none"
       d="m 145.75,79.1332 -1.89,3.0617 3.78,0 -1.89,-3.0617" /><path
       inkscape:connector-curvature="0"
       id="path136"
       style="fill:#ff0000;fill-opacity:1;fill-rule:nonzero;stroke:none"
       d="m 156.35,81.5832 -1.89,3.0617 3.78,0 -1.89,-3.0617" /><path
       inkscape:connector-curvature="0"
       id="path138"
       style="fill:#ff0000;fill-opacity:1;fill-rule:nonzero;stroke:none"
       d="m 166.95,84.3832 -1.89,3.0617 3.78,0 -1.89,-3.0617" /><path
       inkscape:connector-curvature="0"
       id="path140"
       style="fill:#ff0000;fill-opacity:1;fill-rule:nonzero;stroke:none"
       d="m 177.55,86.0832 -1.89,3.0617 3.78,0 -1.89,-3.0617" /><path
       inkscape:connector-curvature="0"
       id="path142"
       style="fill:#ff0000;fill-opacity:1;fill-rule:nonzero;stroke:none"
       d="m 188.15,88.1332 -1.89,3.0617 3.78,0 -1.89,-3.0617" /><path
       inkscape:connector-curvature="0"
       id="path144"
       style="fill:#ff0000;fill-opacity:1;fill-rule:nonzero;stroke:none"
       d="m 204.05,89.5332 -1.89,3.0617 3.78,0 -1.89,-3.0617" /><path
       inkscape:connector-curvature="0"
       id="path146"
       style="fill:#ff0000;fill-opacity:1;fill-rule:nonzero;stroke:none"
       d="m 219.95,90.7832 -1.89,3.0617 3.78,0 -1.89,-3.0617" /><path
       inkscape:connector-curvature="0"
       id="path148"
       style="fill:#ff0000;fill-opacity:1;fill-rule:nonzero;stroke:none"
       d="m 230.55,91.2332 -1.89,3.0617 3.78,0 -1.89,-3.0617" /><path
       inkscape:connector-curvature="0"
       id="path150"
       style="fill:#ff0000;fill-opacity:1;fill-rule:nonzero;stroke:none"
       d="m 241.2,91.0832 -1.89,3.0617 3.78,0 -1.89,-3.0617" /><path
       inkscape:connector-curvature="0"
       id="path152"
       style="fill:#ff0000;fill-opacity:1;fill-rule:nonzero;stroke:none"
       d="m 257.05,90.0832 -1.89,3.0617 3.78,0 -1.89,-3.0617" /><path
       inkscape:connector-curvature="0"
       id="path154"
       style="fill:#ff0000;fill-opacity:1;fill-rule:nonzero;stroke:none"
       d="m 272.9,87.9832 -1.89,3.0617 3.78,0 -1.89,-3.0617" /><path
       inkscape:connector-curvature="0"
       id="path156"
       style="fill:#ff0000;fill-opacity:1;fill-rule:nonzero;stroke:none"
       d="m 283.55,85.5832 -1.89,3.0617 3.78,0 -1.89,-3.0617" /><path
       inkscape:connector-curvature="0"
       id="path158"
       style="fill:#ff0000;fill-opacity:1;fill-rule:nonzero;stroke:none"
       d="m 294.1,82.6832 -1.89,3.0617 3.78,0 -1.89,-3.0617" /><path
       inkscape:connector-curvature="0"
       id="path160"
       style="fill:#ff0000;fill-opacity:1;fill-rule:nonzero;stroke:none"
       d="m 310.05,76.3332 -1.89,3.0617 3.78,0 -1.89,-3.0617" /><path
       inkscape:connector-curvature="0"
       id="path162"
       style="fill:#ff0000;fill-opacity:1;fill-rule:nonzero;stroke:none"
       d="m 325.95,61.3832 -1.89,3.0617 3.78,0 -1.89,-3.0617" /><path
       inkscape:connector-curvature="0"
       id="path164"
       style="fill:#ff0000;fill-opacity:1;fill-rule:nonzero;stroke:none"
       d="m 336,39.4832 -1.89,3.0617 3.78,0 -1.89,-3.0617" /><path
       inkscape:connector-curvature="0"
       id="path166"
       style="fill:none;stroke:#0000ff;stroke-width:0.25;stroke-linecap:butt;stroke-linejoin:miter;stroke-miterlimit:3.79999995;stroke-opacity:1;stroke-dasharray:none"
       d="m 71.5,41.9 0.05,0 26.55,0.15 26.5,0.25 26.4,1.35 10.6,1.25 5.3,1.95 5.3,5.45 5.35,9.1 5.3,23.9 5.3,24.05 5.3,20.55 5.3,7.7 10.6,9.65 10.6,4.9 10.65,3.1 10.6,2.4 10.6,1.45 10.6,-0.25 10.5,-0.2 10.6,-1 10.6,-0.65 10.6,-4.05 5.3,-26.3 5.35,-85.05 20.7,0" /><path
       inkscape:connector-curvature="0"
       id="path168"
       style="fill:#0000ff;fill-opacity:1;fill-rule:nonzero;stroke:none"
       d="M 71.55,43.7898 69.6602,41.9 71.55,40.0102 73.4398,41.9 71.55,43.7898" /><path
       inkscape:connector-curvature="0"
       id="path170"
       style="fill:#0000ff;fill-opacity:1;fill-rule:nonzero;stroke:none"
       d="M 98.1,43.9398 96.2102,42.05 98.1,40.1602 99.9898,42.05 98.1,43.9398" /><path
       inkscape:connector-curvature="0"
       id="path172"
       style="fill:#0000ff;fill-opacity:1;fill-rule:nonzero;stroke:none"
       d="M 124.6,44.1898 122.71,42.3 124.6,40.4102 126.49,42.3 124.6,44.1898" /><path
       inkscape:connector-curvature="0"
       id="path174"
       style="fill:#0000ff;fill-opacity:1;fill-rule:nonzero;stroke:none"
       d="M 151,45.5398 149.11,43.65 151,41.7602 152.89,43.65 151,45.5398" /><path
       inkscape:connector-curvature="0"
       id="path176"
       style="fill:#0000ff;fill-opacity:1;fill-rule:nonzero;stroke:none"
       d="M 161.6,46.7898 159.71,44.9 161.6,43.0102 163.49,44.9 161.6,46.7898" /><path
       inkscape:connector-curvature="0"
       id="path178"
       style="fill:#0000ff;fill-opacity:1;fill-rule:nonzero;stroke:none"
       d="m 166.9,48.7398 -1.89,-1.8898 1.89,-1.8898 1.89,1.8898 -1.89,1.8898" /><path
       inkscape:connector-curvature="0"
       id="path180"
       style="fill:#0000ff;fill-opacity:1;fill-rule:nonzero;stroke:none"
       d="M 172.2,54.1898 170.31,52.3 172.2,50.4102 174.09,52.3 172.2,54.1898" /><path
       inkscape:connector-curvature="0"
       id="path182"
       style="fill:#0000ff;fill-opacity:1;fill-rule:nonzero;stroke:none"
       d="m 177.55,63.2898 -1.89,-1.8898 1.89,-1.8898 1.89,1.8898 -1.89,1.8898" /><path
       inkscape:connector-curvature="0"
       id="path184"
       style="fill:#0000ff;fill-opacity:1;fill-rule:nonzero;stroke:none"
       d="m 182.85,87.1898 -1.89,-1.8898 1.89,-1.8898 1.89,1.8898 -1.89,1.8898" /><path
       inkscape:connector-curvature="0"
       id="path186"
       style="fill:#0000ff;fill-opacity:1;fill-rule:nonzero;stroke:none"
       d="m 188.15,111.24 -1.89,-1.89 1.89,-1.89 1.89,1.89 -1.89,1.89" /><path
       inkscape:connector-curvature="0"
       id="path188"
       style="fill:#0000ff;fill-opacity:1;fill-rule:nonzero;stroke:none"
       d="m 193.45,131.79 -1.89,-1.89 1.89,-1.89 1.89,1.89 -1.89,1.89" /><path
       inkscape:connector-curvature="0"
       id="path190"
       style="fill:#0000ff;fill-opacity:1;fill-rule:nonzero;stroke:none"
       d="m 198.75,139.49 -1.89,-1.89 1.89,-1.89 1.89,1.89 -1.89,1.89" /><path
       inkscape:connector-curvature="0"
       id="path192"
       style="fill:#0000ff;fill-opacity:1;fill-rule:nonzero;stroke:none"
       d="m 209.35,149.14 -1.89,-1.89 1.89,-1.89 1.89,1.89 -1.89,1.89" /><path
       inkscape:connector-curvature="0"
       id="path194"
       style="fill:#0000ff;fill-opacity:1;fill-rule:nonzero;stroke:none"
       d="m 219.95,154.04 -1.89,-1.89 1.89,-1.89 1.89,1.89 -1.89,1.89" /><path
       inkscape:connector-curvature="0"
       id="path196"
       style="fill:#0000ff;fill-opacity:1;fill-rule:nonzero;stroke:none"
       d="m 230.6,157.14 -1.89,-1.89 1.89,-1.89 1.89,1.89 -1.89,1.89" /><path
       inkscape:connector-curvature="0"
       id="path198"
       style="fill:#0000ff;fill-opacity:1;fill-rule:nonzero;stroke:none"
       d="m 241.2,159.54 -1.89,-1.89 1.89,-1.89 1.89,1.89 -1.89,1.89" /><path
       inkscape:connector-curvature="0"
       id="path200"
       style="fill:#0000ff;fill-opacity:1;fill-rule:nonzero;stroke:none"
       d="m 251.8,160.99 -1.89,-1.89 1.89,-1.89 1.89,1.89 -1.89,1.89" /><path
       inkscape:connector-curvature="0"
       id="path202"
       style="fill:#0000ff;fill-opacity:1;fill-rule:nonzero;stroke:none"
       d="m 262.4,160.74 -1.89,-1.89 1.89,-1.89 1.89,1.89 -1.89,1.89" /><path
       inkscape:connector-curvature="0"
       id="path204"
       style="fill:#0000ff;fill-opacity:1;fill-rule:nonzero;stroke:none"
       d="m 272.9,160.54 -1.89,-1.89 1.89,-1.89 1.89,1.89 -1.89,1.89" /><path
       inkscape:connector-curvature="0"
       id="path206"
       style="fill:#0000ff;fill-opacity:1;fill-rule:nonzero;stroke:none"
       d="m 283.5,159.54 -1.89,-1.89 1.89,-1.89 1.89,1.89 -1.89,1.89" /><path
       inkscape:connector-curvature="0"
       id="path208"
       style="fill:#0000ff;fill-opacity:1;fill-rule:nonzero;stroke:none"
       d="m 294.1,158.89 -1.89,-1.89 1.89,-1.89 1.89,1.89 -1.89,1.89" /><path
       inkscape:connector-curvature="0"
       id="path210"
       style="fill:#0000ff;fill-opacity:1;fill-rule:nonzero;stroke:none"
       d="m 304.7,154.84 -1.89,-1.89 1.89,-1.89 1.89,1.89 -1.89,1.89" /><path
       inkscape:connector-curvature="0"
       id="path212"
       style="fill:#0000ff;fill-opacity:1;fill-rule:nonzero;stroke:none"
       d="m 310,128.54 -1.89,-1.89 1.89,-1.89 1.89,1.89 -1.89,1.89" /><path
       inkscape:connector-curvature="0"
       id="path214"
       style="fill:#0000ff;fill-opacity:1;fill-rule:nonzero;stroke:none"
       d="m 315.35,43.4898 -1.89,-1.8898 1.89,-1.8898 1.89,1.8898 -1.89,1.8898" /><path
       inkscape:connector-curvature="0"
       id="path216"
       style="fill:#0000ff;fill-opacity:1;fill-rule:nonzero;stroke:none"
       d="m 320.65,43.4898 -1.89,-1.8898 1.89,-1.8898 1.89,1.8898 -1.89,1.8898" /><path
       inkscape:connector-curvature="0"
       id="path218"
       style="fill:#0000ff;fill-opacity:1;fill-rule:nonzero;stroke:none"
       d="m 325.95,43.4898 -1.89,-1.8898 1.89,-1.8898 1.89,1.8898 -1.89,1.8898" /><path
       inkscape:connector-curvature="0"
       id="path220"
       style="fill:#0000ff;fill-opacity:1;fill-rule:nonzero;stroke:none"
       d="m 331.25,43.4898 -1.89,-1.8898 1.89,-1.8898 1.89,1.8898 -1.89,1.8898" /><path
       inkscape:connector-curvature="0"
       id="path222"
       style="fill:#0000ff;fill-opacity:1;fill-rule:nonzero;stroke:none"
       d="m 336.05,43.4898 -1.89,-1.8898 1.89,-1.8898 1.89,1.8898 -1.89,1.8898" /><path
       inkscape:connector-curvature="0"
       id="path224"
       style="fill:none;stroke:#000000;stroke-width:0.25;stroke-linecap:butt;stroke-linejoin:miter;stroke-miterlimit:3.79999995;stroke-opacity:1;stroke-dasharray:none"
       d="m 71.5,42.05 0.05,0 26.55,0.05 26.5,0.3 26.4,0.45 26.55,2.4 10.6,3.5 10.6,11.15 5.3,28.15 5.3,30.95 10.6,49.7 10.65,29.15 10.6,21.05 10.6,5.7 10.6,-1.6 10.5,-6.2 10.6,-24.6 5.3,-149.35 5.3,-1.1 5.3,-0.1 10.6,-0.05 21.25,0" /><path
       inkscape:connector-curvature="0"
       id="path226"
       style="fill:#000000;fill-opacity:1;fill-rule:nonzero;stroke:none"
       d="m 73.4398,42.05 c 0,1.0438 -0.846,1.8898 -1.8898,1.8898 -1.0438,0 -1.8898,-0.846 -1.8898,-1.8898 0,-1.0438 0.846,-1.8898 1.8898,-1.8898 1.0438,0 1.8898,0.846 1.8898,1.8898" /><path
       inkscape:connector-curvature="0"
       id="path228"
       style="fill:#000000;fill-opacity:1;fill-rule:nonzero;stroke:none"
       d="m 99.9898,42.1 c 0,1.0438 -0.846,1.8898 -1.8898,1.8898 -1.0438,0 -1.8898,-0.846 -1.8898,-1.8898 0,-1.0438 0.846,-1.8898 1.8898,-1.8898 1.0438,0 1.8898,0.846 1.8898,1.8898" /><path
       inkscape:connector-curvature="0"
       id="path230"
       style="fill:#000000;fill-opacity:1;fill-rule:nonzero;stroke:none"
       d="m 126.49,42.4 c 0,1.0438 -0.846,1.8898 -1.89,1.8898 -1.044,0 -1.89,-0.846 -1.89,-1.8898 0,-1.0438 0.846,-1.8898 1.89,-1.8898 1.044,0 1.89,0.846 1.89,1.8898" /><path
       inkscape:connector-curvature="0"
       id="path232"
       style="fill:#000000;fill-opacity:1;fill-rule:nonzero;stroke:none"
       d="m 152.89,42.85 c 0,1.0438 -0.846,1.8898 -1.89,1.8898 -1.044,0 -1.89,-0.846 -1.89,-1.8898 0,-1.0438 0.846,-1.8898 1.89,-1.8898 1.044,0 1.89,0.846 1.89,1.8898" /><path
       inkscape:connector-curvature="0"
       id="path234"
       style="fill:#000000;fill-opacity:1;fill-rule:nonzero;stroke:none"
       d="m 179.44,45.25 c 0,1.0438 -0.846,1.8898 -1.89,1.8898 -1.044,0 -1.89,-0.846 -1.89,-1.8898 0,-1.0438 0.846,-1.8898 1.89,-1.8898 1.044,0 1.89,0.846 1.89,1.8898" /><path
       inkscape:connector-curvature="0"
       id="path236"
       style="fill:#000000;fill-opacity:1;fill-rule:nonzero;stroke:none"
       d="m 190.04,48.75 c 0,1.0438 -0.846,1.8898 -1.89,1.8898 -1.044,0 -1.89,-0.846 -1.89,-1.8898 0,-1.0438 0.846,-1.8898 1.89,-1.8898 1.044,0 1.89,0.846 1.89,1.8898" /><path
       inkscape:connector-curvature="0"
       id="path238"
       style="fill:#000000;fill-opacity:1;fill-rule:nonzero;stroke:none"
       d="m 200.64,59.9 c 0,1.0438 -0.846,1.8898 -1.89,1.8898 -1.044,0 -1.89,-0.846 -1.89,-1.8898 0,-1.0438 0.846,-1.8898 1.89,-1.8898 1.044,0 1.89,0.846 1.89,1.8898" /><path
       inkscape:connector-curvature="0"
       id="path240"
       style="fill:#000000;fill-opacity:1;fill-rule:nonzero;stroke:none"
       d="m 205.94,88.05 c 0,1.0438 -0.846,1.8898 -1.89,1.8898 -1.044,0 -1.89,-0.846 -1.89,-1.8898 0,-1.0438 0.846,-1.8898 1.89,-1.8898 1.044,0 1.89,0.846 1.89,1.8898" /><path
       inkscape:connector-curvature="0"
       id="path242"
       style="fill:#000000;fill-opacity:1;fill-rule:nonzero;stroke:none"
       d="m 211.24,119 c 0,1.044 -0.846,1.89 -1.89,1.89 -1.044,0 -1.89,-0.846 -1.89,-1.89 0,-1.044 0.846,-1.89 1.89,-1.89 1.044,0 1.89,0.846 1.89,1.89" /><path
       inkscape:connector-curvature="0"
       id="path244"
       style="fill:#000000;fill-opacity:1;fill-rule:nonzero;stroke:none"
       d="m 221.84,168.7 c 0,1.044 -0.846,1.89 -1.89,1.89 -1.044,0 -1.89,-0.846 -1.89,-1.89 0,-1.044 0.846,-1.89 1.89,-1.89 1.044,0 1.89,0.846 1.89,1.89" /><path
       inkscape:connector-curvature="0"
       id="path246"
       style="fill:#000000;fill-opacity:1;fill-rule:nonzero;stroke:none"
       d="m 232.49,197.85 c 0,1.044 -0.846,1.89 -1.89,1.89 -1.044,0 -1.89,-0.846 -1.89,-1.89 0,-1.044 0.846,-1.89 1.89,-1.89 1.044,0 1.89,0.846 1.89,1.89" /><path
       inkscape:connector-curvature="0"
       id="path248"
       style="fill:#000000;fill-opacity:1;fill-rule:nonzero;stroke:none"
       d="m 243.09,218.9 c 0,1.044 -0.846,1.89 -1.89,1.89 -1.044,0 -1.89,-0.846 -1.89,-1.89 0,-1.044 0.846,-1.89 1.89,-1.89 1.044,0 1.89,0.846 1.89,1.89" /><path
       inkscape:connector-curvature="0"
       id="path250"
       style="fill:#000000;fill-opacity:1;fill-rule:nonzero;stroke:none"
       d="m 253.69,224.6 c 0,1.044 -0.846,1.89 -1.89,1.89 -1.044,0 -1.89,-0.846 -1.89,-1.89 0,-1.044 0.846,-1.89 1.89,-1.89 1.044,0 1.89,0.846 1.89,1.89" /><path
       inkscape:connector-curvature="0"
       id="path252"
       style="fill:#000000;fill-opacity:1;fill-rule:nonzero;stroke:none"
       d="m 264.29,223 c 0,1.044 -0.846,1.89 -1.89,1.89 -1.044,0 -1.89,-0.846 -1.89,-1.89 0,-1.044 0.846,-1.89 1.89,-1.89 1.044,0 1.89,0.846 1.89,1.89" /><path
       inkscape:connector-curvature="0"
       id="path254"
       style="fill:#000000;fill-opacity:1;fill-rule:nonzero;stroke:none"
       d="m 274.79,216.8 c 0,1.044 -0.846,1.89 -1.89,1.89 -1.044,0 -1.89,-0.846 -1.89,-1.89 0,-1.044 0.846,-1.89 1.89,-1.89 1.044,0 1.89,0.846 1.89,1.89" /><path
       inkscape:connector-curvature="0"
       id="path256"
       style="fill:#000000;fill-opacity:1;fill-rule:nonzero;stroke:none"
       d="m 285.39,192.2 c 0,1.044 -0.846,1.89 -1.89,1.89 -1.044,0 -1.89,-0.846 -1.89,-1.89 0,-1.044 0.846,-1.89 1.89,-1.89 1.044,0 1.89,0.846 1.89,1.89" /><path
       inkscape:connector-curvature="0"
       id="path258"
       style="fill:#000000;fill-opacity:1;fill-rule:nonzero;stroke:none"
       d="m 290.69,42.85 c 0,1.0438 -0.846,1.8898 -1.89,1.8898 -1.044,0 -1.89,-0.846 -1.89,-1.8898 0,-1.0438 0.846,-1.8898 1.89,-1.8898 1.044,0 1.89,0.846 1.89,1.8898" /><path
       inkscape:connector-curvature="0"
       id="path260"
       style="fill:#000000;fill-opacity:1;fill-rule:nonzero;stroke:none"
       d="m 295.99,41.75 c 0,1.0438 -0.846,1.8898 -1.89,1.8898 -1.044,0 -1.89,-0.846 -1.89,-1.8898 0,-1.0438 0.846,-1.8898 1.89,-1.8898 1.044,0 1.89,0.846 1.89,1.8898" /><path
       inkscape:connector-curvature="0"
       id="path262"
       style="fill:#000000;fill-opacity:1;fill-rule:nonzero;stroke:none"
       d="m 301.29,41.65 c 0,1.0438 -0.846,1.8898 -1.89,1.8898 -1.044,0 -1.89,-0.846 -1.89,-1.8898 0,-1.0438 0.846,-1.8898 1.89,-1.8898 1.044,0 1.89,0.846 1.89,1.8898" /><path
       inkscape:connector-curvature="0"
       id="path264"
       style="fill:#000000;fill-opacity:1;fill-rule:nonzero;stroke:none"
       d="m 311.89,41.6 c 0,1.0438 -0.846,1.8898 -1.89,1.8898 -1.044,0 -1.89,-0.846 -1.89,-1.8898 0,-1.0438 0.846,-1.8898 1.89,-1.8898 1.044,0 1.89,0.846 1.89,1.8898" /><path
       inkscape:connector-curvature="0"
       id="path266"
       style="fill:#000000;fill-opacity:1;fill-rule:nonzero;stroke:none"
       d="m 317.24,41.6 c 0,1.0438 -0.846,1.8898 -1.89,1.8898 -1.044,0 -1.89,-0.846 -1.89,-1.8898 0,-1.0438 0.846,-1.8898 1.89,-1.8898 1.044,0 1.89,0.846 1.89,1.8898" /><path
       inkscape:connector-curvature="0"
       id="path268"
       style="fill:#000000;fill-opacity:1;fill-rule:nonzero;stroke:none"
       d="m 333.14,41.6 c 0,1.0438 -0.846,1.8898 -1.89,1.8898 -1.044,0 -1.89,-0.846 -1.89,-1.8898 0,-1.0438 0.846,-1.8898 1.89,-1.8898 1.044,0 1.89,0.846 1.89,1.8898" /><path
       inkscape:connector-curvature="0"
       id="path270"
       style="fill:none;stroke:#000000;stroke-width:0.5;stroke-linecap:butt;stroke-linejoin:miter;stroke-miterlimit:3.79999995;stroke-opacity:1;stroke-dasharray:none"
       d="m 71.5,41.6 265.05,0 0,194.75 -265.05,0 0,-194.75 z" /><flowRoot
       transform="matrix(0.8,0,0,-0.8,-413.62768,696.81537)"
       xml:space="preserve"
       id="flowRoot3415-2"
       style="font-size:40px;font-style:normal;font-weight:normal;line-height:125%;letter-spacing:0px;word-spacing:0px;fill:#000000;fill-opacity:1;stroke:none;font-family:Sans"><flowRegion
         id="flowRegion3417-0"><rect
           id="rect3419-8"
           width="23.805779"
           height="28.748156"
           x="543.22882"
           y="657.27106" /></flowRegion><flowPara
         id="flowPara3421-6"
         style="font-size:20px;font-style:normal;font-variant:normal;font-weight:normal;font-stretch:normal;font-family:Arial;-inkscape-font-specification:Arial">Ω</flowPara></flowRoot><flowRoot
       transform="matrix(0.8,0,0,-0.8,-323.08517,748.307)"
       xml:space="preserve"
       id="flowRoot3415-2-6"
       style="font-size:40px;font-style:normal;font-weight:normal;line-height:125%;letter-spacing:0px;word-spacing:0px;fill:#000000;fill-opacity:1;stroke:none;font-family:Sans"><flowRegion
         id="flowRegion3417-0-9"><rect
           id="rect3419-8-2"
           width="53.933884"
           height="17.623756"
           x="543.22882"
           y="657.27106" /></flowRegion><flowPara
         id="flowPara3421-6-2"
         style="font-size:13px;font-style:normal;font-variant:normal;font-weight:normal;font-stretch:normal;font-family:Arial;-inkscape-font-specification:Arial">Q=0.01</flowPara></flowRoot><flowRoot
       xml:space="preserve"
       id="flowRoot3415"
       style="font-size:40px;font-style:normal;font-weight:normal;line-height:125%;letter-spacing:0px;word-spacing:0px;fill:#000000;fill-opacity:1;stroke:none;font-family:Sans"
       transform="matrix(0.8,0,0,-0.8,-234.64979,554.2759)"><flowRegion
         id="flowRegion3417"><rect
           id="rect3419"
           width="45.84206"
           height="49.280262"
           x="543.22882"
           y="657.27106" /></flowRegion><flowPara
         id="flowPara3421"
         style="font-size:22px;font-style:normal;font-variant:normal;font-weight:normal;font-stretch:normal;font-family:Arial;-inkscape-font-specification:Arial">p</flowPara></flowRoot><flowRoot
       transform="matrix(0.8,0,0,-0.8,-323.24537,732.07259)"
       xml:space="preserve"
       id="flowRoot3415-2-6-5"
       style="font-size:40px;font-style:normal;font-weight:normal;line-height:125%;letter-spacing:0px;word-spacing:0px;fill:#000000;fill-opacity:1;stroke:none;font-family:Sans"><flowRegion
         id="flowRegion3417-0-9-4"><rect
           id="rect3419-8-2-1"
           width="53.933884"
           height="17.623756"
           x="543.22882"
           y="657.27106" /></flowRegion><flowPara
         id="flowPara3421-6-2-4"
         style="font-size:13px;font-style:normal;font-variant:normal;font-weight:normal;font-stretch:normal;font-family:Arial;-inkscape-font-specification:Arial">Q=0.05</flowPara></flowRoot><flowRoot
       transform="matrix(0.8,0,0,-0.8,-323.23643,716.21662)"
       xml:space="preserve"
       id="flowRoot3415-2-6-5-8"
       style="font-size:40px;font-style:normal;font-weight:normal;line-height:125%;letter-spacing:0px;word-spacing:0px;fill:#000000;fill-opacity:1;stroke:none;font-family:Sans"><flowRegion
         id="flowRegion3417-0-9-4-1"><rect
           id="rect3419-8-2-1-2"
           width="53.933884"
           height="17.623756"
           x="543.22882"
           y="657.27106" /></flowRegion><flowPara
         id="flowPara3421-6-2-4-8"
         style="font-size:13px;font-style:normal;font-variant:normal;font-weight:normal;font-stretch:normal;font-family:Arial;-inkscape-font-specification:Arial">Q=0.1</flowPara></flowRoot><g
       id="g4451"
       transform="translate(-2.0674306,3.2)"><path
         inkscape:connector-curvature="0"
         inkscape:original-d="m 83.152064,180.45604 23.590006,0"
         inkscape:path-effect="#path-effect3510-71"
         id="path3508-0"
         d="m 83.152064,180.45604 23.590006,0"
         style="fill:none;stroke:#000000;stroke-width:0.57271045px;stroke-linecap:butt;stroke-linejoin:miter;stroke-opacity:1" /><path
         d="m 96.65695,180.45763 c 0,1.044 -0.846,1.89 -1.89,1.89 -1.044,0 -1.89,-0.846 -1.89,-1.89 0,-1.044 0.846,-1.89 1.89,-1.89 1.044,0 1.89,0.846 1.89,1.89"
         style="fill:#000000;fill-opacity:1;fill-rule:nonzero;stroke:none"
         id="path244-6"
         inkscape:connector-curvature="0" /></g><g
       id="g4447"
       transform="translate(-2.7995763,2.269068)"><path
         inkscape:connector-curvature="0"
         inkscape:original-d="m 83.529582,197.44458 23.589998,0"
         inkscape:path-effect="#path-effect3510-7"
         id="path3508-4"
         d="m 83.529582,197.44458 23.589998,0"
         style="fill:none;stroke:#0000ff;stroke-width:0.57271045px;stroke-linecap:butt;stroke-linejoin:miter;stroke-opacity:1" /><path
         d="m 95.300846,199.43238 -1.89,-1.89 1.89,-1.89 1.89,1.89 -1.89,1.89"
         style="fill:#0000ff;fill-opacity:1;fill-rule:nonzero;stroke:none"
         id="path188-1"
         inkscape:connector-curvature="0" /></g><g
       id="g4443"
       transform="translate(-2.8012713,-1.4112384)"><path
         inkscape:connector-curvature="0"
         inkscape:original-d="m 83.725782,217.13867 23.589998,0"
         inkscape:path-effect="#path-effect3510"
         id="path3508"
         d="m 83.725782,217.13867 23.589998,0"
         style="fill:none;stroke:#ff0000;stroke-width:0.57271045px;stroke-linecap:butt;stroke-linejoin:miter;stroke-opacity:1" /><path
         d="m 95.30085,215.23186 -1.89,3.0617 3.78,0 -1.89,-3.0617"
         style="fill:#ff0000;fill-opacity:1;fill-rule:nonzero;stroke:none"
         id="path138-5"
         inkscape:connector-curvature="0" /></g></g></svg>