<?xml version="1.0" encoding="UTF-8" standalone="no"?>
<!-- Created with Inkscape (http://www.inkscape.org/) -->

<svg
   xmlns:dc="http://purl.org/dc/elements/1.1/"
   xmlns:cc="http://creativecommons.org/ns#"
   xmlns:rdf="http://www.w3.org/1999/02/22-rdf-syntax-ns#"
   xmlns:svg="http://www.w3.org/2000/svg"
   xmlns="http://www.w3.org/2000/svg"
   xmlns:sodipodi="http://sodipodi.sourceforge.net/DTD/sodipodi-0.dtd"
   xmlns:inkscape="http://www.inkscape.org/namespaces/inkscape"
   id="svg2"
   version="1.1"
   inkscape:version="0.48.4 r9939"
   width="450"
   height="315"
   xml:space="preserve"
   sodipodi:docname="O-compare-L.eps"><metadata
     id="metadata8"><rdf:RDF><cc:Work
         rdf:about=""><dc:format>image/svg+xml</dc:format><dc:type
           rdf:resource="http://purl.org/dc/dcmitype/StillImage" /><dc:title></dc:title></cc:Work></rdf:RDF></metadata><defs
     id="defs6"><inkscape:path-effect
       effect="spiro"
       id="path-effect3510"
       is_visible="true" /><inkscape:path-effect
       effect="spiro"
       id="path-effect3510-7"
       is_visible="true" /><inkscape:path-effect
       effect="spiro"
       id="path-effect3510-71"
       is_visible="true" /></defs><sodipodi:namedview
     pagecolor="#ffffff"
     bordercolor="#666666"
     borderopacity="1"
     objecttolerance="10"
     gridtolerance="10"
     guidetolerance="10"
     inkscape:pageopacity="0"
     inkscape:pageshadow="2"
     inkscape:window-width="1855"
     inkscape:window-height="1056"
     id="namedview4"
     showgrid="false"
     inkscape:zoom="2.1190756"
     inkscape:cx="268.06337"
     inkscape:cy="161.83624"
     inkscape:window-x="65"
     inkscape:window-y="24"
     inkscape:window-maximized="1"
     inkscape:current-layer="g10" /><g
     id="g10"
     inkscape:groupmode="layer"
     inkscape:label="ink_ext_XXXXXX"
     transform="matrix(1.25,0,0,-1.25,0,315)"><path
       inkscape:connector-curvature="0"
       id="path14"
       style="fill:none;stroke:#000000;stroke-width:0.5;stroke-linecap:butt;stroke-linejoin:miter;stroke-miterlimit:3.79999995;stroke-opacity:1;stroke-dasharray:none"
       d="m 71.5,41.6 3.15,0 m 261.9,0 -3.15,0" /><g
       id="g16"><text
         id="text18"
         transform="matrix(1,0,0,-1,56.4726,37.2648)"><tspan
           id="tspan20"
           y="0"
           x="0"
           style="font-size:13px;font-variant:normal;font-weight:normal;writing-mode:lr-tb;fill:#000000;fill-opacity:1;fill-rule:nonzero;stroke:none;font-family:Helvetica;-inkscape-font-specification:Helvetica">0</tspan></text>
</g><path
       inkscape:connector-curvature="0"
       id="path22"
       style="fill:none;stroke:#000000;stroke-width:0.5;stroke-linecap:butt;stroke-linejoin:miter;stroke-miterlimit:3.79999995;stroke-opacity:1;stroke-dasharray:none"
       d="m 71.5,80.55 3.15,0 m 261.9,0 -3.15,0" /><g
       id="g24"><text
         id="text26"
         transform="matrix(1,0,0,-1,38.4035,76.2148)"><tspan
           id="tspan28"
           sodipodi:role="line"
           y="0"
           x="0 7.2280002 10.842 18.07"
           style="font-size:13px;font-variant:normal;font-weight:normal;writing-mode:lr-tb;fill:#000000;fill-opacity:1;fill-rule:nonzero;stroke:none;font-family:Helvetica;-inkscape-font-specification:Helvetica">0.01</tspan></text>
</g><path
       inkscape:connector-curvature="0"
       id="path30"
       style="fill:none;stroke:#000000;stroke-width:0.5;stroke-linecap:butt;stroke-linejoin:miter;stroke-miterlimit:3.79999995;stroke-opacity:1;stroke-dasharray:none"
       d="m 71.5,119.5 3.15,0 m 261.9,0 -3.15,0" /><g
       id="g32"><text
         id="text34"
         transform="matrix(1,0,0,-1,38.4035,115.165)"><tspan
           id="tspan36"
           sodipodi:role="line"
           y="0"
           x="0 7.2280002 10.842 18.07"
           style="font-size:13px;font-variant:normal;font-weight:normal;writing-mode:lr-tb;fill:#000000;fill-opacity:1;fill-rule:nonzero;stroke:none;font-family:Helvetica;-inkscape-font-specification:Helvetica">0.02</tspan></text>
</g><path
       inkscape:connector-curvature="0"
       id="path38"
       style="fill:none;stroke:#000000;stroke-width:0.5;stroke-linecap:butt;stroke-linejoin:miter;stroke-miterlimit:3.79999995;stroke-opacity:1;stroke-dasharray:none"
       d="m 71.5,158.45 3.15,0 m 261.9,0 -3.15,0" /><g
       id="g40"><text
         id="text42"
         transform="matrix(1,0,0,-1,38.4035,154.115)"><tspan
           id="tspan44"
           sodipodi:role="line"
           y="0"
           x="0 7.2280002 10.842 18.07"
           style="font-size:13px;font-variant:normal;font-weight:normal;writing-mode:lr-tb;fill:#000000;fill-opacity:1;fill-rule:nonzero;stroke:none;font-family:Helvetica;-inkscape-font-specification:Helvetica">0.03</tspan></text>
</g><path
       inkscape:connector-curvature="0"
       id="path46"
       style="fill:none;stroke:#000000;stroke-width:0.5;stroke-linecap:butt;stroke-linejoin:miter;stroke-miterlimit:3.79999995;stroke-opacity:1;stroke-dasharray:none"
       d="m 71.5,197.4 3.15,0 m 261.9,0 -3.15,0" /><g
       id="g48"><text
         id="text50"
         transform="matrix(1,0,0,-1,38.4035,193.065)"><tspan
           id="tspan52"
           sodipodi:role="line"
           y="0"
           x="0 7.2280002 10.842 18.07"
           style="font-size:13px;font-variant:normal;font-weight:normal;writing-mode:lr-tb;fill:#000000;fill-opacity:1;fill-rule:nonzero;stroke:none;font-family:Helvetica;-inkscape-font-specification:Helvetica">0.04</tspan></text>
</g><path
       inkscape:connector-curvature="0"
       id="path54"
       style="fill:none;stroke:#000000;stroke-width:0.5;stroke-linecap:butt;stroke-linejoin:miter;stroke-miterlimit:3.79999995;stroke-opacity:1;stroke-dasharray:none"
       d="m 71.5,236.35 3.15,0 m 261.9,0 -3.15,0" /><g
       id="g56"><text
         id="text58"
         transform="matrix(1,0,0,-1,38.4035,232.015)"><tspan
           id="tspan60"
           sodipodi:role="line"
           y="0"
           x="0 7.2280002 10.842 18.07"
           style="font-size:13px;font-variant:normal;font-weight:normal;writing-mode:lr-tb;fill:#000000;fill-opacity:1;fill-rule:nonzero;stroke:none;font-family:Helvetica;-inkscape-font-specification:Helvetica">0.05</tspan></text>
</g><path
       inkscape:connector-curvature="0"
       id="path62"
       style="fill:none;stroke:#000000;stroke-width:0.5;stroke-linecap:butt;stroke-linejoin:miter;stroke-miterlimit:3.79999995;stroke-opacity:1;stroke-dasharray:none"
       d="m 71.55,41.6 0,3.15 m 0,191.6 0,-3.15" /><g
       id="g64"><text
         id="text66"
         transform="matrix(1,0,0,-1,64.3226,24.2648)"><tspan
           id="tspan68"
           sodipodi:role="line"
           y="0"
           x="0 7.2280002 10.842"
           style="font-size:13px;font-variant:normal;font-weight:normal;writing-mode:lr-tb;fill:#000000;fill-opacity:1;fill-rule:nonzero;stroke:none;font-family:Helvetica;-inkscape-font-specification:Helvetica">0.5</tspan></text>
</g><path
       inkscape:connector-curvature="0"
       id="path70"
       style="fill:none;stroke:#000000;stroke-width:0.5;stroke-linecap:butt;stroke-linejoin:miter;stroke-miterlimit:3.79999995;stroke-opacity:1;stroke-dasharray:none"
       d="m 82.15,41.6 0,1.55 m 0,193.2 0,-1.55 m 10.6,-193.2 0,1.55 m 0,193.2 0,-1.55 m 10.6,-193.2 0,1.55 m 0,193.2 0,-1.55 m 10.6,-193.2 0,1.55 m 0,193.2 0,-1.55 m 10.6,-193.2 0,3.15 m 0,191.6 0,-3.15" /><g
       id="g72"><text
         id="text74"
         transform="matrix(1,0,0,-1,117.323,24.2648)"><tspan
           id="tspan76"
           sodipodi:role="line"
           y="0"
           x="0 7.2280002 10.842"
           style="font-size:13px;font-variant:normal;font-weight:normal;writing-mode:lr-tb;fill:#000000;fill-opacity:1;fill-rule:nonzero;stroke:none;font-family:Helvetica;-inkscape-font-specification:Helvetica">0.6</tspan></text>
</g><path
       inkscape:connector-curvature="0"
       id="path78"
       style="fill:none;stroke:#000000;stroke-width:0.5;stroke-linecap:butt;stroke-linejoin:miter;stroke-miterlimit:3.79999995;stroke-opacity:1;stroke-dasharray:none"
       d="m 135.15,41.6 0,1.55 m 0,193.2 0,-1.55 m 10.6,-193.2 0,1.55 m 0,193.2 0,-1.55 m 10.6,-193.2 0,1.55 m 0,193.2 0,-1.55 m 10.6,-193.2 0,1.55 m 0,193.2 0,-1.55 m 10.6,-193.2 0,3.15 m 0,191.6 0,-3.15" /><g
       id="g80"><text
         id="text82"
         transform="matrix(1,0,0,-1,170.323,24.2648)"><tspan
           id="tspan84"
           sodipodi:role="line"
           y="0"
           x="0 7.2280002 10.842"
           style="font-size:13px;font-variant:normal;font-weight:normal;writing-mode:lr-tb;fill:#000000;fill-opacity:1;fill-rule:nonzero;stroke:none;font-family:Helvetica;-inkscape-font-specification:Helvetica">0.7</tspan></text>
</g><path
       inkscape:connector-curvature="0"
       id="path86"
       style="fill:none;stroke:#000000;stroke-width:0.5;stroke-linecap:butt;stroke-linejoin:miter;stroke-miterlimit:3.79999995;stroke-opacity:1;stroke-dasharray:none"
       d="m 188.15,41.6 0,1.55 m 0,193.2 0,-1.55 m 10.6,-193.2 0,1.55 m 0,193.2 0,-1.55 m 10.6,-193.2 0,1.55 m 0,193.2 0,-1.55 m 10.6,-193.2 0,1.55 m 0,193.2 0,-1.55 m 10.6,-193.2 0,3.15 m 0,191.6 0,-3.15" /><g
       id="g88"><text
         id="text90"
         transform="matrix(1,0,0,-1,223.323,24.2648)"><tspan
           id="tspan92"
           sodipodi:role="line"
           y="0"
           x="0 7.2280002 10.842"
           style="font-size:13px;font-variant:normal;font-weight:normal;writing-mode:lr-tb;fill:#000000;fill-opacity:1;fill-rule:nonzero;stroke:none;font-family:Helvetica;-inkscape-font-specification:Helvetica">0.8</tspan></text>
</g><path
       inkscape:connector-curvature="0"
       id="path94"
       style="fill:none;stroke:#000000;stroke-width:0.5;stroke-linecap:butt;stroke-linejoin:miter;stroke-miterlimit:3.79999995;stroke-opacity:1;stroke-dasharray:none"
       d="m 241.15,41.6 0,1.55 m 0,193.2 0,-1.55 m 10.6,-193.2 0,1.55 m 0,193.2 0,-1.55 m 10.6,-193.2 0,1.55 m 0,193.2 0,-1.55 m 10.6,-193.2 0,1.55 m 0,193.2 0,-1.55 m 10.6,-193.2 0,3.15 m 0,191.6 0,-3.15" /><g
       id="g96"><text
         id="text98"
         transform="matrix(1,0,0,-1,276.323,24.2648)"><tspan
           id="tspan100"
           sodipodi:role="line"
           y="0"
           x="0 7.2280002 10.842"
           style="font-size:13px;font-variant:normal;font-weight:normal;writing-mode:lr-tb;fill:#000000;fill-opacity:1;fill-rule:nonzero;stroke:none;font-family:Helvetica;-inkscape-font-specification:Helvetica">0.9</tspan></text>
</g><path
       inkscape:connector-curvature="0"
       id="path102"
       style="fill:none;stroke:#000000;stroke-width:0.5;stroke-linecap:butt;stroke-linejoin:miter;stroke-miterlimit:3.79999995;stroke-opacity:1;stroke-dasharray:none"
       d="m 294.15,41.6 0,1.55 m 0,193.2 0,-1.55 m 10.6,-193.2 0,1.55 m 0,193.2 0,-1.55 m 10.6,-193.2 0,1.55 m 0,193.2 0,-1.55 m 10.6,-193.2 0,1.55 m 0,193.2 0,-1.55 m 10.6,-193.2 0,3.15 m 0,191.6 0,-3.15" /><g
       id="g104"><text
         id="text106"
         transform="matrix(1,0,0,-1,334.743,24.2648)"><tspan
           id="tspan108"
           y="0"
           x="0"
           style="font-size:13px;font-variant:normal;font-weight:normal;writing-mode:lr-tb;fill:#000000;fill-opacity:1;fill-rule:nonzero;stroke:none;font-family:Helvetica;-inkscape-font-specification:Helvetica">1</tspan></text>
</g><path
       inkscape:connector-curvature="0"
       id="path110"
       style="fill:none;stroke:#000000;stroke-width:0.5;stroke-linecap:butt;stroke-linejoin:miter;stroke-miterlimit:3.79999995;stroke-opacity:1;stroke-dasharray:none"
       d="m 71.5,41.6 265.05,0 0,194.75 -265.05,0 0,-194.75 z" /><path
       inkscape:connector-curvature="0"
       id="path122"
       style="fill:none;stroke:#ff0000;stroke-width:0.25;stroke-linecap:butt;stroke-linejoin:miter;stroke-miterlimit:3.79999995;stroke-opacity:1;stroke-dasharray:none"
       d="m 71.55,42.25 26.4,0.35 26.65,1.6 26.4,2.85 10.75,3.5 5.2,11.25 5.2,12.7 5.5,37.6 5.25,51.15 5.2,12.1 10.75,26.8 10.4,9.5 10.75,6.9 10.45,4.75 10.7,4.05 10.75,1.15 10.45,0.75 10.7,-1.2 10.45,0.1 10.7,-1.75 10.45,-7.25 5.5,-43.75 5.25,-133.8 20.55,0" /><path
       inkscape:connector-curvature="0"
       id="path124"
       style="fill:#ff0000;fill-opacity:1;fill-rule:nonzero;stroke:none"
       d="m 71.55,40.1332 -1.8898,3.0617 3.7796,0 -1.8898,-3.0617" /><path
       inkscape:connector-curvature="0"
       id="path126"
       style="fill:#ff0000;fill-opacity:1;fill-rule:nonzero;stroke:none"
       d="m 97.95,40.4832 -1.8898,3.0617 3.7796,0 -1.8898,-3.0617" /><path
       inkscape:connector-curvature="0"
       id="path128"
       style="fill:#ff0000;fill-opacity:1;fill-rule:nonzero;stroke:none"
       d="m 124.6,42.0832 -1.89,3.0617 3.78,0 -1.89,-3.0617" /><path
       inkscape:connector-curvature="0"
       id="path130"
       style="fill:#ff0000;fill-opacity:1;fill-rule:nonzero;stroke:none"
       d="m 151,44.9332 -1.89,3.0617 3.78,0 -1.89,-3.0617" /><path
       inkscape:connector-curvature="0"
       id="path132"
       style="fill:#ff0000;fill-opacity:1;fill-rule:nonzero;stroke:none"
       d="m 161.75,48.4332 -1.89,3.0617 3.78,0 -1.89,-3.0617" /><path
       inkscape:connector-curvature="0"
       id="path134"
       style="fill:#ff0000;fill-opacity:1;fill-rule:nonzero;stroke:none"
       d="m 166.95,59.6832 -1.89,3.0617 3.78,0 -1.89,-3.0617" /><path
       inkscape:connector-curvature="0"
       id="path136"
       style="fill:#ff0000;fill-opacity:1;fill-rule:nonzero;stroke:none"
       d="m 172.15,72.3832 -1.89,3.0617 3.78,0 -1.89,-3.0617" /><path
       inkscape:connector-curvature="0"
       id="path138"
       style="fill:#ff0000;fill-opacity:1;fill-rule:nonzero;stroke:none"
       d="m 177.65,109.983 -1.89,3.062 3.78,0 -1.89,-3.062" /><path
       inkscape:connector-curvature="0"
       id="path140"
       style="fill:#ff0000;fill-opacity:1;fill-rule:nonzero;stroke:none"
       d="m 182.9,161.133 -1.89,3.062 3.78,0 -1.89,-3.062" /><path
       inkscape:connector-curvature="0"
       id="path142"
       style="fill:#ff0000;fill-opacity:1;fill-rule:nonzero;stroke:none"
       d="m 188.1,173.233 -1.89,3.062 3.78,0 -1.89,-3.062" /><path
       inkscape:connector-curvature="0"
       id="path144"
       style="fill:#ff0000;fill-opacity:1;fill-rule:nonzero;stroke:none"
       d="m 198.85,200.033 -1.89,3.062 3.78,0 -1.89,-3.062" /><path
       inkscape:connector-curvature="0"
       id="path146"
       style="fill:#ff0000;fill-opacity:1;fill-rule:nonzero;stroke:none"
       d="m 209.25,209.533 -1.89,3.062 3.78,0 -1.89,-3.062" /><path
       inkscape:connector-curvature="0"
       id="path148"
       style="fill:#ff0000;fill-opacity:1;fill-rule:nonzero;stroke:none"
       d="m 220,216.433 -1.89,3.062 3.78,0 -1.89,-3.062" /><path
       inkscape:connector-curvature="0"
       id="path150"
       style="fill:#ff0000;fill-opacity:1;fill-rule:nonzero;stroke:none"
       d="m 230.45,221.183 -1.89,3.062 3.78,0 -1.89,-3.062" /><path
       inkscape:connector-curvature="0"
       id="path152"
       style="fill:#ff0000;fill-opacity:1;fill-rule:nonzero;stroke:none"
       d="m 241.15,225.233 -1.89,3.062 3.78,0 -1.89,-3.062" /><path
       inkscape:connector-curvature="0"
       id="path154"
       style="fill:#ff0000;fill-opacity:1;fill-rule:nonzero;stroke:none"
       d="m 251.9,226.383 -1.89,3.062 3.78,0 -1.89,-3.062" /><path
       inkscape:connector-curvature="0"
       id="path156"
       style="fill:#ff0000;fill-opacity:1;fill-rule:nonzero;stroke:none"
       d="m 262.35,227.133 -1.89,3.062 3.78,0 -1.89,-3.062" /><path
       inkscape:connector-curvature="0"
       id="path158"
       style="fill:#ff0000;fill-opacity:1;fill-rule:nonzero;stroke:none"
       d="m 273.05,225.933 -1.89,3.062 3.78,0 -1.89,-3.062" /><path
       inkscape:connector-curvature="0"
       id="path160"
       style="fill:#ff0000;fill-opacity:1;fill-rule:nonzero;stroke:none"
       d="m 283.5,226.033 -1.89,3.062 3.78,0 -1.89,-3.062" /><path
       inkscape:connector-curvature="0"
       id="path162"
       style="fill:#ff0000;fill-opacity:1;fill-rule:nonzero;stroke:none"
       d="m 294.2,224.283 -1.89,3.062 3.78,0 -1.89,-3.062" /><path
       inkscape:connector-curvature="0"
       id="path164"
       style="fill:#ff0000;fill-opacity:1;fill-rule:nonzero;stroke:none"
       d="m 304.65,217.033 -1.89,3.062 3.78,0 -1.89,-3.062" /><path
       inkscape:connector-curvature="0"
       id="path166"
       style="fill:#ff0000;fill-opacity:1;fill-rule:nonzero;stroke:none"
       d="m 310.15,173.283 -1.89,3.062 3.78,0 -1.89,-3.062" /><path
       inkscape:connector-curvature="0"
       id="path168"
       style="fill:#ff0000;fill-opacity:1;fill-rule:nonzero;stroke:none"
       d="m 315.4,39.4832 -1.89,3.0617 3.78,0 -1.89,-3.0617" /><path
       inkscape:connector-curvature="0"
       id="path170"
       style="fill:#ff0000;fill-opacity:1;fill-rule:nonzero;stroke:none"
       d="m 320.6,39.4832 -1.89,3.0617 3.78,0 -1.89,-3.0617" /><path
       inkscape:connector-curvature="0"
       id="path172"
       style="fill:#ff0000;fill-opacity:1;fill-rule:nonzero;stroke:none"
       d="m 325.8,39.4832 -1.89,3.0617 3.78,0 -1.89,-3.0617" /><path
       inkscape:connector-curvature="0"
       id="path174"
       style="fill:#ff0000;fill-opacity:1;fill-rule:nonzero;stroke:none"
       d="m 331.35,39.4832 -1.89,3.0617 3.78,0 -1.89,-3.0617" /><path
       inkscape:connector-curvature="0"
       id="path176"
       style="fill:#ff0000;fill-opacity:1;fill-rule:nonzero;stroke:none"
       d="m 335.95,39.4832 -1.89,3.0617 3.78,0 -1.89,-3.0617" /><path
       inkscape:connector-curvature="0"
       id="path178"
       style="fill:none;stroke:#0000ff;stroke-width:0.25;stroke-linecap:butt;stroke-linejoin:miter;stroke-miterlimit:3.79999995;stroke-opacity:1;stroke-dasharray:none"
       d="m 71.5,42.1 0.05,0 26.55,0.2 26.5,0.4 26.4,2.2 10.6,2 5.3,3.1 5.3,8.7 5.35,14.55 5.3,38.25 5.3,38.5 5.3,32.9 5.3,12.25 10.6,15.45 10.6,7.9 10.65,4.9 10.6,3.85 10.6,2.35 10.6,-0.4 10.5,-0.3 10.6,-1.65 10.6,-1.05 10.6,-6.4 5.3,-42.1 5.35,-136.1 20.7,0" /><path
       inkscape:connector-curvature="0"
       id="path180"
       style="fill:#0000ff;fill-opacity:1;fill-rule:nonzero;stroke:none"
       d="M 71.55,43.9898 69.6602,42.1 71.55,40.2102 73.4398,42.1 71.55,43.9898" /><path
       inkscape:connector-curvature="0"
       id="path182"
       style="fill:#0000ff;fill-opacity:1;fill-rule:nonzero;stroke:none"
       d="M 98.1,44.1898 96.2102,42.3 98.1,40.4102 99.9898,42.3 98.1,44.1898" /><path
       inkscape:connector-curvature="0"
       id="path184"
       style="fill:#0000ff;fill-opacity:1;fill-rule:nonzero;stroke:none"
       d="M 124.6,44.5898 122.71,42.7 124.6,40.8102 126.49,42.7 124.6,44.5898" /><path
       inkscape:connector-curvature="0"
       id="path186"
       style="fill:#0000ff;fill-opacity:1;fill-rule:nonzero;stroke:none"
       d="M 151,46.7898 149.11,44.9 151,43.0102 152.89,44.9 151,46.7898" /><path
       inkscape:connector-curvature="0"
       id="path188"
       style="fill:#0000ff;fill-opacity:1;fill-rule:nonzero;stroke:none"
       d="M 161.6,48.7898 159.71,46.9 161.6,45.0102 163.49,46.9 161.6,48.7898" /><path
       inkscape:connector-curvature="0"
       id="path190"
       style="fill:#0000ff;fill-opacity:1;fill-rule:nonzero;stroke:none"
       d="M 166.9,51.8898 165.01,50 166.9,48.1102 168.79,50 166.9,51.8898" /><path
       inkscape:connector-curvature="0"
       id="path192"
       style="fill:#0000ff;fill-opacity:1;fill-rule:nonzero;stroke:none"
       d="M 172.2,60.5898 170.31,58.7 172.2,56.8102 174.09,58.7 172.2,60.5898" /><path
       inkscape:connector-curvature="0"
       id="path194"
       style="fill:#0000ff;fill-opacity:1;fill-rule:nonzero;stroke:none"
       d="m 177.55,75.1398 -1.89,-1.8898 1.89,-1.8898 1.89,1.8898 -1.89,1.8898" /><path
       inkscape:connector-curvature="0"
       id="path196"
       style="fill:#0000ff;fill-opacity:1;fill-rule:nonzero;stroke:none"
       d="m 182.85,113.39 -1.89,-1.89 1.89,-1.89 1.89,1.89 -1.89,1.89" /><path
       inkscape:connector-curvature="0"
       id="path198"
       style="fill:#0000ff;fill-opacity:1;fill-rule:nonzero;stroke:none"
       d="m 188.15,151.89 -1.89,-1.89 1.89,-1.89 1.89,1.89 -1.89,1.89" /><path
       inkscape:connector-curvature="0"
       id="path200"
       style="fill:#0000ff;fill-opacity:1;fill-rule:nonzero;stroke:none"
       d="m 193.45,184.79 -1.89,-1.89 1.89,-1.89 1.89,1.89 -1.89,1.89" /><path
       inkscape:connector-curvature="0"
       id="path202"
       style="fill:#0000ff;fill-opacity:1;fill-rule:nonzero;stroke:none"
       d="m 198.75,197.04 -1.89,-1.89 1.89,-1.89 1.89,1.89 -1.89,1.89" /><path
       inkscape:connector-curvature="0"
       id="path204"
       style="fill:#0000ff;fill-opacity:1;fill-rule:nonzero;stroke:none"
       d="m 209.35,212.49 -1.89,-1.89 1.89,-1.89 1.89,1.89 -1.89,1.89" /><path
       inkscape:connector-curvature="0"
       id="path206"
       style="fill:#0000ff;fill-opacity:1;fill-rule:nonzero;stroke:none"
       d="m 219.95,220.39 -1.89,-1.89 1.89,-1.89 1.89,1.89 -1.89,1.89" /><path
       inkscape:connector-curvature="0"
       id="path208"
       style="fill:#0000ff;fill-opacity:1;fill-rule:nonzero;stroke:none"
       d="m 230.6,225.29 -1.89,-1.89 1.89,-1.89 1.89,1.89 -1.89,1.89" /><path
       inkscape:connector-curvature="0"
       id="path210"
       style="fill:#0000ff;fill-opacity:1;fill-rule:nonzero;stroke:none"
       d="m 241.2,229.14 -1.89,-1.89 1.89,-1.89 1.89,1.89 -1.89,1.89" /><path
       inkscape:connector-curvature="0"
       id="path212"
       style="fill:#0000ff;fill-opacity:1;fill-rule:nonzero;stroke:none"
       d="m 251.8,231.49 -1.89,-1.89 1.89,-1.89 1.89,1.89 -1.89,1.89" /><path
       inkscape:connector-curvature="0"
       id="path214"
       style="fill:#0000ff;fill-opacity:1;fill-rule:nonzero;stroke:none"
       d="m 262.4,231.09 -1.89,-1.89 1.89,-1.89 1.89,1.89 -1.89,1.89" /><path
       inkscape:connector-curvature="0"
       id="path216"
       style="fill:#0000ff;fill-opacity:1;fill-rule:nonzero;stroke:none"
       d="m 272.9,230.79 -1.89,-1.89 1.89,-1.89 1.89,1.89 -1.89,1.89" /><path
       inkscape:connector-curvature="0"
       id="path218"
       style="fill:#0000ff;fill-opacity:1;fill-rule:nonzero;stroke:none"
       d="m 283.5,229.14 -1.89,-1.89 1.89,-1.89 1.89,1.89 -1.89,1.89" /><path
       inkscape:connector-curvature="0"
       id="path220"
       style="fill:#0000ff;fill-opacity:1;fill-rule:nonzero;stroke:none"
       d="m 294.1,228.09 -1.89,-1.89 1.89,-1.89 1.89,1.89 -1.89,1.89" /><path
       inkscape:connector-curvature="0"
       id="path222"
       style="fill:#0000ff;fill-opacity:1;fill-rule:nonzero;stroke:none"
       d="m 304.7,221.69 -1.89,-1.89 1.89,-1.89 1.89,1.89 -1.89,1.89" /><path
       inkscape:connector-curvature="0"
       id="path224"
       style="fill:#0000ff;fill-opacity:1;fill-rule:nonzero;stroke:none"
       d="m 310,179.59 -1.89,-1.89 1.89,-1.89 1.89,1.89 -1.89,1.89" /><path
       inkscape:connector-curvature="0"
       id="path226"
       style="fill:#0000ff;fill-opacity:1;fill-rule:nonzero;stroke:none"
       d="m 315.35,43.4898 -1.89,-1.8898 1.89,-1.8898 1.89,1.8898 -1.89,1.8898" /><path
       inkscape:connector-curvature="0"
       id="path228"
       style="fill:#0000ff;fill-opacity:1;fill-rule:nonzero;stroke:none"
       d="m 320.65,43.4898 -1.89,-1.8898 1.89,-1.8898 1.89,1.8898 -1.89,1.8898" /><path
       inkscape:connector-curvature="0"
       id="path230"
       style="fill:#0000ff;fill-opacity:1;fill-rule:nonzero;stroke:none"
       d="m 325.95,43.4898 -1.89,-1.8898 1.89,-1.8898 1.89,1.8898 -1.89,1.8898" /><path
       inkscape:connector-curvature="0"
       id="path232"
       style="fill:#0000ff;fill-opacity:1;fill-rule:nonzero;stroke:none"
       d="m 331.25,43.4898 -1.89,-1.8898 1.89,-1.8898 1.89,1.8898 -1.89,1.8898" /><path
       inkscape:connector-curvature="0"
       id="path234"
       style="fill:#0000ff;fill-opacity:1;fill-rule:nonzero;stroke:none"
       d="m 336.05,43.4898 -1.89,-1.8898 1.89,-1.8898 1.89,1.8898 -1.89,1.8898" /><path
       inkscape:connector-curvature="0"
       id="path236"
       style="fill:none;stroke:#000000;stroke-width:0.25;stroke-linecap:butt;stroke-linejoin:miter;stroke-miterlimit:3.79999995;stroke-opacity:1;stroke-dasharray:none"
       d="m 71.55,41.9 26.5,0.3 26.5,0.1 26.5,1.6 15.9,2.9 10.6,16.85 5.3,19.45 5.3,34.55 5.3,40.8 5.3,22 5.3,19.55 5.3,8.7 10.6,9.3 10.6,4.9 10.6,3.9 10.6,1.35 10.6,0.6 10.6,-0.1 10.6,-1.2 10.6,-1.3 10.6,-6.55 5.3,-39.6 5.3,-138.4 20.65,0" /><path
       inkscape:connector-curvature="0"
       id="path238"
       style="fill:#000000;fill-opacity:1;fill-rule:nonzero;stroke:none"
       d="m 73.4398,41.9 c 0,1.0438 -0.846,1.8898 -1.8898,1.8898 -1.0437,0 -1.8898,-0.846 -1.8898,-1.8898 0,-1.0437 0.8461,-1.8898 1.8898,-1.8898 1.0438,0 1.8898,0.8461 1.8898,1.8898" /><path
       inkscape:connector-curvature="0"
       id="path240"
       style="fill:#000000;fill-opacity:1;fill-rule:nonzero;stroke:none"
       d="m 99.9398,42.2 c 0,1.0438 -0.846,1.8898 -1.8898,1.8898 -1.0437,0 -1.8898,-0.846 -1.8898,-1.8898 0,-1.0437 0.8461,-1.8898 1.8898,-1.8898 1.0438,0 1.8898,0.8461 1.8898,1.8898" /><path
       inkscape:connector-curvature="0"
       id="path242"
       style="fill:#000000;fill-opacity:1;fill-rule:nonzero;stroke:none"
       d="m 126.44,42.3 c 0,1.0438 -0.846,1.8898 -1.89,1.8898 -1.044,0 -1.89,-0.846 -1.89,-1.8898 0,-1.0437 0.846,-1.8898 1.89,-1.8898 1.044,0 1.89,0.8461 1.89,1.8898" /><path
       inkscape:connector-curvature="0"
       id="path244"
       style="fill:#000000;fill-opacity:1;fill-rule:nonzero;stroke:none"
       d="m 152.94,43.9 c 0,1.0438 -0.846,1.8898 -1.89,1.8898 -1.044,0 -1.89,-0.846 -1.89,-1.8898 0,-1.0437 0.846,-1.8898 1.89,-1.8898 1.044,0 1.89,0.8461 1.89,1.8898" /><path
       inkscape:connector-curvature="0"
       id="path246"
       style="fill:#000000;fill-opacity:1;fill-rule:nonzero;stroke:none"
       d="m 168.84,46.8 c 0,1.0438 -0.846,1.8898 -1.89,1.8898 -1.044,0 -1.89,-0.846 -1.89,-1.8898 0,-1.0437 0.846,-1.8898 1.89,-1.8898 1.044,0 1.89,0.8461 1.89,1.8898" /><path
       inkscape:connector-curvature="0"
       id="path248"
       style="fill:#000000;fill-opacity:1;fill-rule:nonzero;stroke:none"
       d="m 179.44,63.65 c 0,1.0438 -0.846,1.8898 -1.89,1.8898 -1.044,0 -1.89,-0.846 -1.89,-1.8898 0,-1.0437 0.846,-1.8898 1.89,-1.8898 1.044,0 1.89,0.8461 1.89,1.8898" /><path
       inkscape:connector-curvature="0"
       id="path250"
       style="fill:#000000;fill-opacity:1;fill-rule:nonzero;stroke:none"
       d="m 184.74,83.1 c 0,1.0438 -0.846,1.8898 -1.89,1.8898 -1.044,0 -1.89,-0.846 -1.89,-1.8898 0,-1.0437 0.846,-1.8898 1.89,-1.8898 1.044,0 1.89,0.8461 1.89,1.8898" /><path
       inkscape:connector-curvature="0"
       id="path252"
       style="fill:#000000;fill-opacity:1;fill-rule:nonzero;stroke:none"
       d="m 190.04,117.65 c 0,1.044 -0.846,1.89 -1.89,1.89 -1.044,0 -1.89,-0.846 -1.89,-1.89 0,-1.044 0.846,-1.89 1.89,-1.89 1.044,0 1.89,0.846 1.89,1.89" /><path
       inkscape:connector-curvature="0"
       id="path254"
       style="fill:#000000;fill-opacity:1;fill-rule:nonzero;stroke:none"
       d="m 195.34,158.45 c 0,1.044 -0.846,1.89 -1.89,1.89 -1.044,0 -1.89,-0.846 -1.89,-1.89 0,-1.044 0.846,-1.89 1.89,-1.89 1.044,0 1.89,0.846 1.89,1.89" /><path
       inkscape:connector-curvature="0"
       id="path256"
       style="fill:#000000;fill-opacity:1;fill-rule:nonzero;stroke:none"
       d="m 200.64,180.45 c 0,1.044 -0.846,1.89 -1.89,1.89 -1.044,0 -1.89,-0.846 -1.89,-1.89 0,-1.044 0.846,-1.89 1.89,-1.89 1.044,0 1.89,0.846 1.89,1.89" /><path
       inkscape:connector-curvature="0"
       id="path258"
       style="fill:#000000;fill-opacity:1;fill-rule:nonzero;stroke:none"
       d="m 205.94,200 c 0,1.044 -0.846,1.89 -1.89,1.89 -1.044,0 -1.89,-0.846 -1.89,-1.89 0,-1.044 0.846,-1.89 1.89,-1.89 1.044,0 1.89,0.846 1.89,1.89" /><path
       inkscape:connector-curvature="0"
       id="path260"
       style="fill:#000000;fill-opacity:1;fill-rule:nonzero;stroke:none"
       d="m 211.24,208.7 c 0,1.044 -0.846,1.89 -1.89,1.89 -1.044,0 -1.89,-0.846 -1.89,-1.89 0,-1.044 0.846,-1.89 1.89,-1.89 1.044,0 1.89,0.846 1.89,1.89" /><path
       inkscape:connector-curvature="0"
       id="path262"
       style="fill:#000000;fill-opacity:1;fill-rule:nonzero;stroke:none"
       d="m 221.84,218 c 0,1.044 -0.846,1.89 -1.89,1.89 -1.044,0 -1.89,-0.846 -1.89,-1.89 0,-1.044 0.846,-1.89 1.89,-1.89 1.044,0 1.89,0.846 1.89,1.89" /><path
       inkscape:connector-curvature="0"
       id="path264"
       style="fill:#000000;fill-opacity:1;fill-rule:nonzero;stroke:none"
       d="m 232.44,222.9 c 0,1.044 -0.846,1.89 -1.89,1.89 -1.044,0 -1.89,-0.846 -1.89,-1.89 0,-1.044 0.846,-1.89 1.89,-1.89 1.044,0 1.89,0.846 1.89,1.89" /><path
       inkscape:connector-curvature="0"
       id="path266"
       style="fill:#000000;fill-opacity:1;fill-rule:nonzero;stroke:none"
       d="m 243.04,226.8 c 0,1.044 -0.846,1.89 -1.89,1.89 -1.044,0 -1.89,-0.846 -1.89,-1.89 0,-1.044 0.846,-1.89 1.89,-1.89 1.044,0 1.89,0.846 1.89,1.89" /><path
       inkscape:connector-curvature="0"
       id="path268"
       style="fill:#000000;fill-opacity:1;fill-rule:nonzero;stroke:none"
       d="m 253.64,228.15 c 0,1.044 -0.846,1.89 -1.89,1.89 -1.044,0 -1.89,-0.846 -1.89,-1.89 0,-1.044 0.846,-1.89 1.89,-1.89 1.044,0 1.89,0.846 1.89,1.89" /><path
       inkscape:connector-curvature="0"
       id="path270"
       style="fill:#000000;fill-opacity:1;fill-rule:nonzero;stroke:none"
       d="m 264.24,228.75 c 0,1.044 -0.846,1.89 -1.89,1.89 -1.044,0 -1.89,-0.846 -1.89,-1.89 0,-1.044 0.846,-1.89 1.89,-1.89 1.044,0 1.89,0.846 1.89,1.89" /><path
       inkscape:connector-curvature="0"
       id="path272"
       style="fill:#000000;fill-opacity:1;fill-rule:nonzero;stroke:none"
       d="m 274.84,228.65 c 0,1.044 -0.846,1.89 -1.89,1.89 -1.044,0 -1.89,-0.846 -1.89,-1.89 0,-1.044 0.846,-1.89 1.89,-1.89 1.044,0 1.89,0.846 1.89,1.89" /><path
       inkscape:connector-curvature="0"
       id="path274"
       style="fill:#000000;fill-opacity:1;fill-rule:nonzero;stroke:none"
       d="m 285.44,227.45 c 0,1.044 -0.846,1.89 -1.89,1.89 -1.044,0 -1.89,-0.846 -1.89,-1.89 0,-1.044 0.846,-1.89 1.89,-1.89 1.044,0 1.89,0.846 1.89,1.89" /><path
       inkscape:connector-curvature="0"
       id="path276"
       style="fill:#000000;fill-opacity:1;fill-rule:nonzero;stroke:none"
       d="m 296.04,226.15 c 0,1.044 -0.846,1.89 -1.89,1.89 -1.044,0 -1.89,-0.846 -1.89,-1.89 0,-1.044 0.846,-1.89 1.89,-1.89 1.044,0 1.89,0.846 1.89,1.89" /><path
       inkscape:connector-curvature="0"
       id="path278"
       style="fill:#000000;fill-opacity:1;fill-rule:nonzero;stroke:none"
       d="m 306.64,219.6 c 0,1.044 -0.846,1.89 -1.89,1.89 -1.044,0 -1.89,-0.846 -1.89,-1.89 0,-1.044 0.846,-1.89 1.89,-1.89 1.044,0 1.89,0.846 1.89,1.89" /><path
       inkscape:connector-curvature="0"
       id="path280"
       style="fill:#000000;fill-opacity:1;fill-rule:nonzero;stroke:none"
       d="m 311.94,180 c 0,1.044 -0.846,1.89 -1.89,1.89 -1.044,0 -1.89,-0.846 -1.89,-1.89 0,-1.044 0.846,-1.89 1.89,-1.89 1.044,0 1.89,0.846 1.89,1.89" /><path
       inkscape:connector-curvature="0"
       id="path282"
       style="fill:#000000;fill-opacity:1;fill-rule:nonzero;stroke:none"
       d="m 317.24,41.6 c 0,1.0438 -0.846,1.8898 -1.89,1.8898 -1.044,0 -1.89,-0.846 -1.89,-1.8898 0,-1.0437 0.846,-1.8898 1.89,-1.8898 1.044,0 1.89,0.8461 1.89,1.8898" /><path
       inkscape:connector-curvature="0"
       id="path284"
       style="fill:#000000;fill-opacity:1;fill-rule:nonzero;stroke:none"
       d="m 322.54,41.6 c 0,1.0438 -0.846,1.8898 -1.89,1.8898 -1.044,0 -1.89,-0.846 -1.89,-1.8898 0,-1.0437 0.846,-1.8898 1.89,-1.8898 1.044,0 1.89,0.8461 1.89,1.8898" /><path
       inkscape:connector-curvature="0"
       id="path286"
       style="fill:#000000;fill-opacity:1;fill-rule:nonzero;stroke:none"
       d="m 327.84,41.6 c 0,1.0438 -0.846,1.8898 -1.89,1.8898 -1.044,0 -1.89,-0.846 -1.89,-1.8898 0,-1.0437 0.846,-1.8898 1.89,-1.8898 1.044,0 1.89,0.8461 1.89,1.8898" /><path
       inkscape:connector-curvature="0"
       id="path288"
       style="fill:#000000;fill-opacity:1;fill-rule:nonzero;stroke:none"
       d="m 333.14,41.6 c 0,1.0438 -0.846,1.8898 -1.89,1.8898 -1.044,0 -1.89,-0.846 -1.89,-1.8898 0,-1.0437 0.846,-1.8898 1.89,-1.8898 1.044,0 1.89,0.8461 1.89,1.8898" /><path
       inkscape:connector-curvature="0"
       id="path290"
       style="fill:#000000;fill-opacity:1;fill-rule:nonzero;stroke:none"
       d="m 337.89,41.6 c 0,1.0438 -0.846,1.8898 -1.89,1.8898 -1.044,0 -1.89,-0.846 -1.89,-1.8898 0,-1.0437 0.846,-1.8898 1.89,-1.8898 1.044,0 1.89,0.8461 1.89,1.8898" /><path
       inkscape:connector-curvature="0"
       id="path292"
       style="fill:none;stroke:#000000;stroke-width:0.5;stroke-linecap:butt;stroke-linejoin:miter;stroke-miterlimit:3.79999995;stroke-opacity:1;stroke-dasharray:none"
       d="m 71.5,41.6 265.05,0 0,194.75 -265.05,0 0,-194.75 z" /><flowRoot
       transform="matrix(0.8,0,0,-0.8,-322.60733,756.54335)"
       xml:space="preserve"
       id="flowRoot3415-2-6"
       style="font-size:40px;font-style:normal;font-weight:normal;line-height:125%;letter-spacing:0px;word-spacing:0px;fill:#000000;fill-opacity:1;stroke:none;font-family:Sans"><flowRegion
         id="flowRegion3417-0-9"><rect
           id="rect3419-8-2"
           width="53.933884"
           height="17.623756"
           x="543.22882"
           y="657.27106" /></flowRegion><flowPara
         id="flowPara3421-6-2"
         style="font-size:13px;font-style:normal;font-variant:normal;font-weight:normal;font-stretch:normal;font-family:Arial;-inkscape-font-specification:Arial">L=12</flowPara></flowRoot><flowRoot
       transform="matrix(0.8,0,0,-0.8,-322.76753,740.30894)"
       xml:space="preserve"
       id="flowRoot3415-2-6-5"
       style="font-size:40px;font-style:normal;font-weight:normal;line-height:125%;letter-spacing:0px;word-spacing:0px;fill:#000000;fill-opacity:1;stroke:none;font-family:Sans"><flowRegion
         id="flowRegion3417-0-9-4"><rect
           id="rect3419-8-2-1"
           width="53.933884"
           height="17.623756"
           x="543.22882"
           y="657.27106" /></flowRegion><flowPara
         id="flowPara3421-6-2-4"
         style="font-size:13px;font-style:normal;font-variant:normal;font-weight:normal;font-stretch:normal;font-family:Arial;-inkscape-font-specification:Arial">L=16</flowPara></flowRoot><flowRoot
       transform="matrix(0.8,0,0,-0.8,-322.7586,724.45298)"
       xml:space="preserve"
       id="flowRoot3415-2-6-5-8"
       style="font-size:40px;font-style:normal;font-weight:normal;line-height:125%;letter-spacing:0px;word-spacing:0px;fill:#000000;fill-opacity:1;stroke:none;font-family:Sans"><flowRegion
         id="flowRegion3417-0-9-4-1"><rect
           id="rect3419-8-2-1-2"
           width="53.933884"
           height="17.623756"
           x="543.22882"
           y="657.27106" /></flowRegion><flowPara
         id="flowPara3421-6-2-4-8"
         style="font-size:13px;font-style:normal;font-variant:normal;font-weight:normal;font-stretch:normal;font-family:Arial;-inkscape-font-specification:Arial">L=24</flowPara></flowRoot><g
       id="g4451"
       transform="translate(-1.58959,11.436353)"><path
         inkscape:connector-curvature="0"
         inkscape:original-d="m 83.152064,180.45604 23.590006,0"
         inkscape:path-effect="#path-effect3510-71"
         id="path3508-0"
         d="m 83.152064,180.45604 23.590006,0"
         style="fill:none;stroke:#000000;stroke-width:0.57271045px;stroke-linecap:butt;stroke-linejoin:miter;stroke-opacity:1" /><path
         d="m 96.65695,180.45763 c 0,1.044 -0.846,1.89 -1.89,1.89 -1.044,0 -1.89,-0.846 -1.89,-1.89 0,-1.044 0.846,-1.89 1.89,-1.89 1.044,0 1.89,0.846 1.89,1.89"
         style="fill:#000000;fill-opacity:1;fill-rule:nonzero;stroke:none"
         id="path244-6"
         inkscape:connector-curvature="0" /></g><g
       id="g4447"
       transform="translate(-2.321734,10.505425)"><path
         inkscape:connector-curvature="0"
         inkscape:original-d="m 83.529582,197.44458 23.589998,0"
         inkscape:path-effect="#path-effect3510-7"
         id="path3508-4"
         d="m 83.529582,197.44458 23.589998,0"
         style="fill:none;stroke:#0000ff;stroke-width:0.57271045px;stroke-linecap:butt;stroke-linejoin:miter;stroke-opacity:1" /><path
         d="m 95.300846,199.43238 -1.89,-1.89 1.89,-1.89 1.89,1.89 -1.89,1.89"
         style="fill:#0000ff;fill-opacity:1;fill-rule:nonzero;stroke:none"
         id="path188-1"
         inkscape:connector-curvature="0" /></g><g
       id="g4443"
       transform="translate(-2.32343,6.825113)"><path
         inkscape:connector-curvature="0"
         inkscape:original-d="m 83.725782,217.13867 23.589998,0"
         inkscape:path-effect="#path-effect3510"
         id="path3508"
         d="m 83.725782,217.13867 23.589998,0"
         style="fill:none;stroke:#ff0000;stroke-width:0.57271045px;stroke-linecap:butt;stroke-linejoin:miter;stroke-opacity:1" /><path
         d="m 95.30085,215.23186 -1.89,3.0617 3.78,0 -1.89,-3.0617"
         style="fill:#ff0000;fill-opacity:1;fill-rule:nonzero;stroke:none"
         id="path138-5"
         inkscape:connector-curvature="0" /></g><flowRoot
       xml:space="preserve"
       id="flowRoot3415"
       style="font-size:40px;font-style:normal;font-weight:normal;line-height:125%;letter-spacing:0px;word-spacing:0px;fill:#000000;fill-opacity:1;stroke:none;font-family:Sans"
       transform="matrix(0.8,0,0,-0.8,-233.586,554.04375)"><flowRegion
         id="flowRegion3417"><rect
           id="rect3419"
           width="45.84206"
           height="49.280262"
           x="543.22882"
           y="657.27106" /></flowRegion><flowPara
         id="flowPara3421"
         style="font-size:22px;font-style:normal;font-variant:normal;font-weight:normal;font-stretch:normal;font-family:Arial;-inkscape-font-specification:Arial">p</flowPara></flowRoot><flowRoot
       transform="matrix(0.8,0,0,-0.8,-414.76646,677.35591)"
       xml:space="preserve"
       id="flowRoot3415-2"
       style="font-size:40px;font-style:normal;font-weight:normal;line-height:125%;letter-spacing:0px;word-spacing:0px;fill:#000000;fill-opacity:1;stroke:none;font-family:Sans"><flowRegion
         id="flowRegion3417-0"><rect
           id="rect3419-8"
           width="23.805779"
           height="28.748156"
           x="543.22882"
           y="657.27106" /></flowRegion><flowPara
         id="flowPara3421-6"
         style="font-size:20px;font-style:normal;font-variant:normal;font-weight:normal;font-stretch:normal;font-family:Arial;-inkscape-font-specification:Arial">Ω</flowPara></flowRoot></g></svg>