<?xml version="1.0" encoding="UTF-8" standalone="no"?>
<!-- Created with Inkscape (http://www.inkscape.org/) -->

<svg
   xmlns:dc="http://purl.org/dc/elements/1.1/"
   xmlns:cc="http://creativecommons.org/ns#"
   xmlns:rdf="http://www.w3.org/1999/02/22-rdf-syntax-ns#"
   xmlns:svg="http://www.w3.org/2000/svg"
   xmlns="http://www.w3.org/2000/svg"
   xmlns:sodipodi="http://sodipodi.sourceforge.net/DTD/sodipodi-0.dtd"
   xmlns:inkscape="http://www.inkscape.org/namespaces/inkscape"
   id="svg2"
   version="1.1"
   inkscape:version="0.48.3.1 r9886"
   width="990"
   height="765"
   xml:space="preserve"
   sodipodi:docname="Fig5.svg"><metadata
     id="metadata8"><rdf:RDF><cc:Work
         rdf:about=""><dc:format>image/svg+xml</dc:format><dc:type
           rdf:resource="http://purl.org/dc/dcmitype/StillImage" /><dc:title /></cc:Work></rdf:RDF></metadata><defs
     id="defs6"><inkscape:path-effect
       effect="spiro"
       id="path-effect3510"
       is_visible="true" /><inkscape:path-effect
       effect="spiro"
       id="path-effect3510-5"
       is_visible="true" /><inkscape:path-effect
       effect="spiro"
       id="path-effect3510-2"
       is_visible="true" /></defs><sodipodi:namedview
     pagecolor="#ffffff"
     bordercolor="#666666"
     borderopacity="1"
     objecttolerance="10"
     gridtolerance="10"
     guidetolerance="10"
     inkscape:pageopacity="0"
     inkscape:pageshadow="2"
     inkscape:window-width="1615"
     inkscape:window-height="1026"
     id="namedview4"
     showgrid="true"
     inkscape:zoom="1.2339869"
     inkscape:cx="358.81974"
     inkscape:cy="321.81787"
     inkscape:window-x="1985"
     inkscape:window-y="54"
     inkscape:window-maximized="1"
     inkscape:current-layer="g10"><inkscape:grid
       type="xygrid"
       id="grid4324" /></sodipodi:namedview><g
     id="g10"
     inkscape:groupmode="layer"
     inkscape:label="ink_ext_XXXXXX"
     transform="matrix(0,1.25,1.25,0,0,0)"><path
       inkscape:connector-curvature="0"
       id="path14"
       style="fill:none;stroke:#000000;stroke-width:1;stroke-linecap:butt;stroke-linejoin:miter;stroke-miterlimit:3.79999995;stroke-opacity:1;stroke-dasharray:none"
       d="m 470.8,177.4 0,6.3 m 0,539.4 0,-6.3" /><g
       id="g16"><text
   id="text18"
   transform="matrix(0,1,1,0,479.47,147.344)"><tspan
     id="tspan20"
     y="0"
     x="0"
     style="font-size:26px;font-variant:normal;font-weight:normal;writing-mode:lr-tb;fill:#000000;fill-opacity:1;fill-rule:nonzero;stroke:none;font-family:Helvetica;-inkscape-font-specification:Helvetica">0</tspan></text>

</g><path
       inkscape:connector-curvature="0"
       id="path22"
       style="fill:none;stroke:#000000;stroke-width:1;stroke-linecap:butt;stroke-linejoin:miter;stroke-miterlimit:3.79999995;stroke-opacity:1;stroke-dasharray:none"
       d="m 392.9,177.4 0,6.3 m 0,539.4 0,-6.3" /><g
       id="g24"><text
   id="text26"
   transform="matrix(0,1,1,0,401.57,125.661)"><tspan
     id="tspan28"
     sodipodi:role="line"
     y="0"
     x="0 14.456 21.684"
     style="font-size:26px;font-variant:normal;font-weight:normal;writing-mode:lr-tb;fill:#000000;fill-opacity:1;fill-rule:nonzero;stroke:none;font-family:Helvetica;-inkscape-font-specification:Helvetica">0.2</tspan></text>

</g><path
       inkscape:connector-curvature="0"
       id="path30"
       style="fill:none;stroke:#000000;stroke-width:1;stroke-linecap:butt;stroke-linejoin:miter;stroke-miterlimit:3.79999995;stroke-opacity:1;stroke-dasharray:none"
       d="m 315,177.4 0,6.3 m 0,539.4 0,-6.3" /><g
       id="g32"
       transform="translate(0.33,2.339)"><text
   id="text34"
   transform="matrix(0,1,1,0,323.67,125.661)"><tspan
     id="tspan36"
     sodipodi:role="line"
     y="0"
     x="0 14.456 21.684"
     style="font-size:26px;font-variant:normal;font-weight:normal;writing-mode:lr-tb;fill:#000000;fill-opacity:1;fill-rule:nonzero;stroke:none;font-family:Helvetica;-inkscape-font-specification:Helvetica">0.4</tspan></text>

</g><path
       inkscape:connector-curvature="0"
       id="path38"
       style="fill:none;stroke:#000000;stroke-width:1;stroke-linecap:butt;stroke-linejoin:miter;stroke-miterlimit:3.79999995;stroke-opacity:1;stroke-dasharray:none"
       d="m 237.1,177.4 0,6.3 m 0,539.4 0,-6.3" /><g
       id="g40"><text
   id="text42"
   transform="matrix(0,1,1,0,245.77,125.661)"><tspan
     id="tspan44"
     sodipodi:role="line"
     y="0"
     x="0 14.456 21.684"
     style="font-size:26px;font-variant:normal;font-weight:normal;writing-mode:lr-tb;fill:#000000;fill-opacity:1;fill-rule:nonzero;stroke:none;font-family:Helvetica;-inkscape-font-specification:Helvetica">0.6</tspan></text>

</g><path
       inkscape:connector-curvature="0"
       id="path46"
       style="fill:none;stroke:#000000;stroke-width:1;stroke-linecap:butt;stroke-linejoin:miter;stroke-miterlimit:3.79999995;stroke-opacity:1;stroke-dasharray:none"
       d="m 159.2,177.4 0,6.3 m 0,539.4 0,-6.3" /><g
       id="g48"><text
   id="text50"
   transform="matrix(0,1,1,0,167.87,125.661)"><tspan
     id="tspan52"
     sodipodi:role="line"
     y="0"
     x="0 14.456 21.684"
     style="font-size:26px;font-variant:normal;font-weight:normal;writing-mode:lr-tb;fill:#000000;fill-opacity:1;fill-rule:nonzero;stroke:none;font-family:Helvetica;-inkscape-font-specification:Helvetica">0.8</tspan></text>

</g><path
       inkscape:connector-curvature="0"
       id="path54"
       style="fill:none;stroke:#000000;stroke-width:1;stroke-linecap:butt;stroke-linejoin:miter;stroke-miterlimit:3.79999995;stroke-opacity:1;stroke-dasharray:none"
       d="m 81.3,177.4 0,6.3 m 0,539.4 0,-6.3" /><g
       id="g56"><text
   id="text58"
   transform="matrix(0,1,1,0,89.9699,147.344)"><tspan
     id="tspan60"
     y="0"
     x="0"
     style="font-size:26px;font-variant:normal;font-weight:normal;writing-mode:lr-tb;fill:#000000;fill-opacity:1;fill-rule:nonzero;stroke:none;font-family:Helvetica;-inkscape-font-specification:Helvetica">1</tspan></text>

</g><path
       inkscape:connector-curvature="0"
       id="path62"
       style="fill:none;stroke:#000000;stroke-width:1;stroke-linecap:butt;stroke-linejoin:miter;stroke-miterlimit:3.79999995;stroke-opacity:1;stroke-dasharray:none"
       d="m 470.8,177.5 -6.3,0 m -383.2,0 6.3,0" /><g
       id="g64"><text
   id="text66"
   transform="matrix(0,1,1,0,505.47,163.044)"><tspan
     id="tspan68"
     sodipodi:role="line"
     y="0"
     x="0 14.456 21.684"
     style="font-size:26px;font-variant:normal;font-weight:normal;writing-mode:lr-tb;fill:#000000;fill-opacity:1;fill-rule:nonzero;stroke:none;font-family:Helvetica;-inkscape-font-specification:Helvetica">0.5</tspan></text>

</g><path
       inkscape:connector-curvature="0"
       id="path70"
       style="fill:none;stroke:#000000;stroke-width:1;stroke-linecap:butt;stroke-linejoin:miter;stroke-miterlimit:3.79999995;stroke-opacity:1;stroke-dasharray:none"
       d="m 470.8,199.3 -3.1,0 m -386.4,0 3.1,0 m 386.4,21.9 -3.1,0 m -386.4,0 3.1,0 m 386.4,21.8 -3.1,0 m -386.4,0 3.1,0 m 386.4,21.8 -3.1,0 m -386.4,0 3.1,0 m 386.4,21.8 -6.3,0 m -383.2,0 6.3,0" /><g
       id="g72"><text
   id="text74"
   transform="matrix(0,1,1,0,505.47,272.144)"><tspan
     id="tspan76"
     sodipodi:role="line"
     y="0"
     x="0 14.456 21.684"
     style="font-size:26px;font-variant:normal;font-weight:normal;writing-mode:lr-tb;fill:#000000;fill-opacity:1;fill-rule:nonzero;stroke:none;font-family:Helvetica;-inkscape-font-specification:Helvetica">0.6</tspan></text>

</g><path
       inkscape:connector-curvature="0"
       id="path78"
       style="fill:none;stroke:#000000;stroke-width:1;stroke-linecap:butt;stroke-linejoin:miter;stroke-miterlimit:3.79999995;stroke-opacity:1;stroke-dasharray:none"
       d="m 470.8,308.5 -3.1,0 m -386.4,0 3.1,0 m 386.4,21.8 -3.1,0 m -386.4,0 3.1,0 m 386.4,21.8 -3.1,0 m -386.4,0 3.1,0 m 386.4,21.8 -3.1,0 m -386.4,0 3.1,0 m 386.4,21.8 -6.3,0 m -383.2,0 6.3,0" /><g
       id="g80"><text
   id="text82"
   transform="matrix(0,1,1,0,505.47,381.244)"><tspan
     id="tspan84"
     sodipodi:role="line"
     y="0"
     x="0 14.456 21.684"
     style="font-size:26px;font-variant:normal;font-weight:normal;writing-mode:lr-tb;fill:#000000;fill-opacity:1;fill-rule:nonzero;stroke:none;font-family:Helvetica;-inkscape-font-specification:Helvetica">0.7</tspan></text>

</g><path
       inkscape:connector-curvature="0"
       id="path86"
       style="fill:none;stroke:#000000;stroke-width:1;stroke-linecap:butt;stroke-linejoin:miter;stroke-miterlimit:3.79999995;stroke-opacity:1;stroke-dasharray:none"
       d="m 470.8,417.6 -3.1,0 m -386.4,0 3.1,0 m 386.4,21.8 -3.1,0 m -386.4,0 3.1,0 m 386.4,21.8 -3.1,0 m -386.4,0 3.1,0 m 386.4,21.8 -3.1,0 m -386.4,0 3.1,0 m 386.4,21.9 -6.3,0 m -383.2,0 6.3,0" /><g
       id="g88"><text
   id="text90"
   transform="matrix(0,1,1,0,505.47,490.444)"><tspan
     id="tspan92"
     sodipodi:role="line"
     y="0"
     x="0 14.456 21.684"
     style="font-size:26px;font-variant:normal;font-weight:normal;writing-mode:lr-tb;fill:#000000;fill-opacity:1;fill-rule:nonzero;stroke:none;font-family:Helvetica;-inkscape-font-specification:Helvetica">0.8</tspan></text>

</g><path
       inkscape:connector-curvature="0"
       id="path94"
       style="fill:none;stroke:#000000;stroke-width:1;stroke-linecap:butt;stroke-linejoin:miter;stroke-miterlimit:3.79999995;stroke-opacity:1;stroke-dasharray:none"
       d="m 470.8,526.7 -3.1,0 m -386.4,0 3.1,0 m 386.4,21.8 -3.1,0 m -386.4,0 3.1,0 m 386.4,21.8 -3.1,0 m -386.4,0 3.1,0 m 386.4,21.9 -3.1,0 m -386.4,0 3.1,0 m 386.4,21.8 -6.3,0 m -383.2,0 6.3,0" /><g
       id="g96"><text
   id="text98"
   transform="matrix(0,1,1,0,505.47,599.544)"><tspan
     id="tspan100"
     sodipodi:role="line"
     y="0"
     x="0 14.456 21.684"
     style="font-size:26px;font-variant:normal;font-weight:normal;writing-mode:lr-tb;fill:#000000;fill-opacity:1;fill-rule:nonzero;stroke:none;font-family:Helvetica;-inkscape-font-specification:Helvetica">0.9</tspan></text>

</g><path
       inkscape:connector-curvature="0"
       id="path102"
       style="fill:none;stroke:#000000;stroke-width:1;stroke-linecap:butt;stroke-linejoin:miter;stroke-miterlimit:3.79999995;stroke-opacity:1;stroke-dasharray:none"
       d="m 470.8,635.8 -3.1,0 m -386.4,0 3.1,0 m 386.4,21.8 -3.1,0 m -386.4,0 3.1,0 m 386.4,21.9 -3.1,0 m -386.4,0 3.1,0 m 386.4,21.8 -3.1,0 m -386.4,0 3.1,0 m 386.4,21.8 -6.3,0 m -383.2,0 6.3,0" /><g
       id="g104"><text
   id="text106"
   transform="matrix(0,1,1,0,505.47,719.486)"><tspan
     id="tspan108"
     y="0"
     x="0"
     style="font-size:26px;font-variant:normal;font-weight:normal;writing-mode:lr-tb;fill:#000000;fill-opacity:1;fill-rule:nonzero;stroke:none;font-family:Helvetica;-inkscape-font-specification:Helvetica">1</tspan></text>

</g><path
       inkscape:connector-curvature="0"
       id="path110"
       style="fill:none;stroke:#000000;stroke-width:1;stroke-linecap:butt;stroke-linejoin:miter;stroke-miterlimit:3.79999995;stroke-opacity:1;stroke-dasharray:none"
       d="m 81.3,177.4 389.5,0 0,545.7 -389.5,0 0,-545.7 z" /><path
       inkscape:connector-curvature="0"
       id="path122"
       style="fill:none;stroke:#0000ff;stroke-width:0.5;stroke-linecap:butt;stroke-linejoin:miter;stroke-miterlimit:3.79999995;stroke-opacity:1;stroke-dasharray:none"
       d="m 446.1,177.4 0,0.1 -6.6,54.6 -8.2,54.6 -11.9,54.4 -9.9,21.8 -5.2,10.9 -10.9,11 -12.1,10.9 -50.8,10.9 -51,10.9 -57.3,11 -28.1,10.9 -41.5,21.8 -9.5,21.9 -8.3,21.8 -8.1,21.9 -3.8,21.8 1.4,21.9 -5.8,21.5 -1.8,21.9 -0.2,21.8 5.1,21.9 -4.1,10.9 -29.2,10.9 -6.7,10.9 -0.3,11 0,20.7" /><path
       inkscape:connector-curvature="0"
       id="path124"
       style="fill:none;stroke:#ff0000;stroke-width:0.5;stroke-linecap:butt;stroke-linejoin:miter;stroke-miterlimit:3.79999995;stroke-opacity:1;stroke-dasharray:none"
       d="m 465.4,177.4 0,0.1 -2.5,54.6 -3.5,54.6 -5.6,54.4 -4.4,21.8 -2.2,10.9 -4,11 -4.6,10.9 -16.1,10.9 -16.3,10.9 -18.1,11 -10,10.9 -15.6,21.8 -8.7,21.9 -9.1,21.8 -11.2,21.9 -11.2,21.8 -12.7,21.9 -18.4,21.5 -23.8,21.9 -36.2,21.8 -59.6,21.9 -45.5,10.9 -38.1,10.9 -6.1,10.9 -0.6,11 0,20.7" /><path
       inkscape:connector-curvature="0"
       id="path126"
       style="fill:none;stroke:#000000;stroke-width:0.5;stroke-linecap:butt;stroke-linejoin:miter;stroke-miterlimit:3.79999995;stroke-opacity:1;stroke-dasharray:none"
       d="m 460,177.4 0,0.1 -4.4,54.6 -6.1,54.6 -9.3,54.4 -7.3,21.8 -4,10.9 -8,11 -9.1,10.9 -35.8,10.9 -37.1,10.9 -42.8,11 -23,10.9 -36.8,21.8 -13.9,21.9 -13.5,21.8 -13.6,21.9 -10.4,21.8 -5.7,21.9 -12.2,21.5 -8.9,21.9 -7,21.8 1.5,21.9 -2.6,10.9 -31.1,10.9 -13.9,10.9 -8.1,11 -7.8,10.9 -7,9.8" /><path
       inkscape:connector-curvature="0"
       id="path128"
       style="fill:#0000ff;fill-opacity:1;fill-rule:nonzero;stroke:none"
       d="m 442.32,177.5 3.78,-3.78 3.78,3.78 -3.78,3.78 -3.78,-3.78" /><path
       inkscape:connector-curvature="0"
       id="path130"
       style="fill:#0000ff;fill-opacity:1;fill-rule:nonzero;stroke:none"
       d="m 435.72,232.1 3.78,-3.78 3.78,3.78 -3.78,3.78 -3.78,-3.78" /><path
       inkscape:connector-curvature="0"
       id="path132"
       style="fill:#0000ff;fill-opacity:1;fill-rule:nonzero;stroke:none"
       d="m 427.52,286.7 3.78,-3.78 3.78,3.78 -3.78,3.78 -3.78,-3.78" /><path
       inkscape:connector-curvature="0"
       id="path134"
       style="fill:#0000ff;fill-opacity:1;fill-rule:nonzero;stroke:none"
       d="m 415.62,341.1 3.78,-3.78 3.78,3.78 -3.78,3.78 -3.78,-3.78" /><path
       inkscape:connector-curvature="0"
       id="path136"
       style="fill:#0000ff;fill-opacity:1;fill-rule:nonzero;stroke:none"
       d="m 405.72,362.9 3.78,-3.78 3.78,3.78 -3.78,3.78 -3.78,-3.78" /><path
       inkscape:connector-curvature="0"
       id="path138"
       style="fill:#0000ff;fill-opacity:1;fill-rule:nonzero;stroke:none"
       d="m 400.52,373.8 3.78,-3.78 3.78,3.78 -3.78,3.78 -3.78,-3.78" /><path
       inkscape:connector-curvature="0"
       id="path140"
       style="fill:#0000ff;fill-opacity:1;fill-rule:nonzero;stroke:none"
       d="m 389.62,384.8 3.78,-3.78 3.78,3.78 -3.78,3.78 -3.78,-3.78" /><path
       inkscape:connector-curvature="0"
       id="path142"
       style="fill:#0000ff;fill-opacity:1;fill-rule:nonzero;stroke:none"
       d="m 377.52,395.7 3.78,-3.78 3.78,3.78 -3.78,3.78 -3.78,-3.78" /><path
       inkscape:connector-curvature="0"
       id="path144"
       style="fill:#0000ff;fill-opacity:1;fill-rule:nonzero;stroke:none"
       d="m 326.72,406.6 3.78,-3.78 3.78,3.78 -3.78,3.78 -3.78,-3.78" /><path
       inkscape:connector-curvature="0"
       id="path146"
       style="fill:#0000ff;fill-opacity:1;fill-rule:nonzero;stroke:none"
       d="m 275.72,417.5 3.78,-3.78 3.78,3.78 -3.78,3.78 -3.78,-3.78" /><path
       inkscape:connector-curvature="0"
       id="path148"
       style="fill:#0000ff;fill-opacity:1;fill-rule:nonzero;stroke:none"
       d="m 218.42,428.5 3.78,-3.78 3.78,3.78 -3.78,3.78 -3.78,-3.78" /><path
       inkscape:connector-curvature="0"
       id="path150"
       style="fill:#0000ff;fill-opacity:1;fill-rule:nonzero;stroke:none"
       d="m 190.32,439.4 3.78,-3.78 3.78,3.78 -3.78,3.78 -3.78,-3.78" /><path
       inkscape:connector-curvature="0"
       id="path152"
       style="fill:#0000ff;fill-opacity:1;fill-rule:nonzero;stroke:none"
       d="m 148.82,461.2 3.78,-3.78 3.78,3.78 -3.78,3.78 -3.78,-3.78" /><path
       inkscape:connector-curvature="0"
       id="path154"
       style="fill:#0000ff;fill-opacity:1;fill-rule:nonzero;stroke:none"
       d="m 139.32,483.1 3.78,-3.78 3.78,3.78 -3.78,3.78 -3.78,-3.78" /><path
       inkscape:connector-curvature="0"
       id="path156"
       style="fill:#0000ff;fill-opacity:1;fill-rule:nonzero;stroke:none"
       d="m 131.02,504.9 3.78,-3.78 3.78,3.78 -3.78,3.78 -3.78,-3.78" /><path
       inkscape:connector-curvature="0"
       id="path158"
       style="fill:#0000ff;fill-opacity:1;fill-rule:nonzero;stroke:none"
       d="m 122.92,526.8 3.78,-3.78 3.78,3.78 -3.78,3.78 -3.78,-3.78" /><path
       inkscape:connector-curvature="0"
       id="path160"
       style="fill:#0000ff;fill-opacity:1;fill-rule:nonzero;stroke:none"
       d="m 119.12,548.6 3.78,-3.78 3.78,3.78 -3.78,3.78 -3.78,-3.78" /><path
       inkscape:connector-curvature="0"
       id="path162"
       style="fill:#0000ff;fill-opacity:1;fill-rule:nonzero;stroke:none"
       d="m 120.52,570.5 3.78,-3.78 3.78,3.78 -3.78,3.78 -3.78,-3.78" /><path
       inkscape:connector-curvature="0"
       id="path164"
       style="fill:#0000ff;fill-opacity:1;fill-rule:nonzero;stroke:none"
       d="m 114.72,592 3.78,-3.78 3.78,3.78 -3.78,3.78 -3.78,-3.78" /><path
       inkscape:connector-curvature="0"
       id="path166"
       style="fill:#0000ff;fill-opacity:1;fill-rule:nonzero;stroke:none"
       d="m 112.92,613.9 3.78,-3.78 3.78,3.78 -3.78,3.78 -3.78,-3.78" /><path
       inkscape:connector-curvature="0"
       id="path168"
       style="fill:#0000ff;fill-opacity:1;fill-rule:nonzero;stroke:none"
       d="m 112.72,635.7 3.78,-3.78 3.78,3.78 -3.78,3.78 -3.78,-3.78" /><path
       inkscape:connector-curvature="0"
       id="path170"
       style="fill:#0000ff;fill-opacity:1;fill-rule:nonzero;stroke:none"
       d="m 117.82,657.6 3.78,-3.78 3.78,3.78 -3.78,3.78 -3.78,-3.78" /><path
       inkscape:connector-curvature="0"
       id="path172"
       style="fill:#0000ff;fill-opacity:1;fill-rule:nonzero;stroke:none"
       d="m 113.72,668.5 3.78,-3.78 3.78,3.78 -3.78,3.78 -3.78,-3.78" /><path
       inkscape:connector-curvature="0"
       id="path174"
       style="fill:#0000ff;fill-opacity:1;fill-rule:nonzero;stroke:none"
       d="M 84.5199,679.4 88.3,675.62 92.0801,679.4 88.3,683.18 84.5199,679.4" /><path
       inkscape:connector-curvature="0"
       id="path176"
       style="fill:#0000ff;fill-opacity:1;fill-rule:nonzero;stroke:none"
       d="M 77.8199,690.3 81.6,686.52 85.3801,690.3 81.6,694.08 77.8199,690.3" /><path
       inkscape:connector-curvature="0"
       id="path178"
       style="fill:#0000ff;fill-opacity:1;fill-rule:nonzero;stroke:none"
       d="M 77.5199,701.3 81.3,697.52 85.0801,701.3 81.3,705.08 77.5199,701.3" /><path
       inkscape:connector-curvature="0"
       id="path180"
       style="fill:#0000ff;fill-opacity:1;fill-rule:nonzero;stroke:none"
       d="M 77.5199,712.2 81.3,708.42 85.0801,712.2 81.3,715.98 77.5199,712.2" /><path
       inkscape:connector-curvature="0"
       id="path182"
       style="fill:#0000ff;fill-opacity:1;fill-rule:nonzero;stroke:none"
       d="M 77.5199,722 81.3,718.22 85.0801,722 81.3,725.78 77.5199,722" /><path
       inkscape:connector-curvature="0"
       id="path184"
       style="fill:#ff0000;fill-opacity:1;fill-rule:nonzero;stroke:none"
       d="m 469.634,177.5 -6.124,-3.78 0,7.56 6.124,-3.78" /><path
       inkscape:connector-curvature="0"
       id="path186"
       style="fill:#ff0000;fill-opacity:1;fill-rule:nonzero;stroke:none"
       d="m 467.134,232.1 -6.124,-3.78 0,7.56 6.124,-3.78" /><path
       inkscape:connector-curvature="0"
       id="path188"
       style="fill:#ff0000;fill-opacity:1;fill-rule:nonzero;stroke:none"
       d="m 463.634,286.7 -6.124,-3.78 0,7.56 6.124,-3.78" /><path
       inkscape:connector-curvature="0"
       id="path190"
       style="fill:#ff0000;fill-opacity:1;fill-rule:nonzero;stroke:none"
       d="m 458.034,341.1 -6.124,-3.78 0,7.56 6.124,-3.78" /><path
       inkscape:connector-curvature="0"
       id="path192"
       style="fill:#ff0000;fill-opacity:1;fill-rule:nonzero;stroke:none"
       d="m 453.634,362.9 -6.124,-3.78 0,7.56 6.124,-3.78" /><path
       inkscape:connector-curvature="0"
       id="path194"
       style="fill:#ff0000;fill-opacity:1;fill-rule:nonzero;stroke:none"
       d="m 451.434,373.8 -6.124,-3.78 0,7.56 6.124,-3.78" /><path
       inkscape:connector-curvature="0"
       id="path196"
       style="fill:#ff0000;fill-opacity:1;fill-rule:nonzero;stroke:none"
       d="m 447.434,384.8 -6.124,-3.78 0,7.56 6.124,-3.78" /><path
       inkscape:connector-curvature="0"
       id="path198"
       style="fill:#ff0000;fill-opacity:1;fill-rule:nonzero;stroke:none"
       d="m 442.834,395.7 -6.124,-3.78 0,7.56 6.124,-3.78" /><path
       inkscape:connector-curvature="0"
       id="path200"
       style="fill:#ff0000;fill-opacity:1;fill-rule:nonzero;stroke:none"
       d="m 426.734,406.6 -6.124,-3.78 0,7.56 6.124,-3.78" /><path
       inkscape:connector-curvature="0"
       id="path202"
       style="fill:#ff0000;fill-opacity:1;fill-rule:nonzero;stroke:none"
       d="m 410.434,417.5 -6.124,-3.78 0,7.56 6.124,-3.78" /><path
       inkscape:connector-curvature="0"
       id="path204"
       style="fill:#ff0000;fill-opacity:1;fill-rule:nonzero;stroke:none"
       d="m 392.334,428.5 -6.124,-3.78 0,7.56 6.124,-3.78" /><path
       inkscape:connector-curvature="0"
       id="path206"
       style="fill:#ff0000;fill-opacity:1;fill-rule:nonzero;stroke:none"
       d="m 382.334,439.4 -6.124,-3.78 0,7.56 6.124,-3.78" /><path
       inkscape:connector-curvature="0"
       id="path208"
       style="fill:#ff0000;fill-opacity:1;fill-rule:nonzero;stroke:none"
       d="m 366.734,461.2 -6.124,-3.78 0,7.56 6.124,-3.78" /><path
       inkscape:connector-curvature="0"
       id="path210"
       style="fill:#ff0000;fill-opacity:1;fill-rule:nonzero;stroke:none"
       d="m 358.034,483.1 -6.124,-3.78 0,7.56 6.124,-3.78" /><path
       inkscape:connector-curvature="0"
       id="path212"
       style="fill:#ff0000;fill-opacity:1;fill-rule:nonzero;stroke:none"
       d="m 348.934,504.9 -6.124,-3.78 0,7.56 6.124,-3.78" /><path
       inkscape:connector-curvature="0"
       id="path214"
       style="fill:#ff0000;fill-opacity:1;fill-rule:nonzero;stroke:none"
       d="m 337.734,526.8 -6.124,-3.78 0,7.56 6.124,-3.78" /><path
       inkscape:connector-curvature="0"
       id="path216"
       style="fill:#ff0000;fill-opacity:1;fill-rule:nonzero;stroke:none"
       d="m 326.534,548.6 -6.124,-3.78 0,7.56 6.124,-3.78" /><path
       inkscape:connector-curvature="0"
       id="path218"
       style="fill:#ff0000;fill-opacity:1;fill-rule:nonzero;stroke:none"
       d="m 313.834,570.5 -6.124,-3.78 0,7.56 6.124,-3.78" /><path
       inkscape:connector-curvature="0"
       id="path220"
       style="fill:#ff0000;fill-opacity:1;fill-rule:nonzero;stroke:none"
       d="m 295.434,592 -6.124,-3.78 0,7.56 6.124,-3.78" /><path
       inkscape:connector-curvature="0"
       id="path222"
       style="fill:#ff0000;fill-opacity:1;fill-rule:nonzero;stroke:none"
       d="m 271.634,613.9 -6.124,-3.78 0,7.56 6.124,-3.78" /><path
       inkscape:connector-curvature="0"
       id="path224"
       style="fill:#ff0000;fill-opacity:1;fill-rule:nonzero;stroke:none"
       d="m 235.434,635.7 -6.124,-3.78 0,7.56 6.124,-3.78" /><path
       inkscape:connector-curvature="0"
       id="path226"
       style="fill:#ff0000;fill-opacity:1;fill-rule:nonzero;stroke:none"
       d="m 175.834,657.6 -6.124,-3.78 0,7.56 6.124,-3.78" /><path
       inkscape:connector-curvature="0"
       id="path228"
       style="fill:#ff0000;fill-opacity:1;fill-rule:nonzero;stroke:none"
       d="m 130.334,668.5 -6.124,-3.78 0,7.56 6.124,-3.78" /><path
       inkscape:connector-curvature="0"
       id="path230"
       style="fill:#ff0000;fill-opacity:1;fill-rule:nonzero;stroke:none"
       d="m 92.2336,679.4 -6.1234,-3.78 0,7.56 6.1234,-3.78" /><path
       inkscape:connector-curvature="0"
       id="path232"
       style="fill:#ff0000;fill-opacity:1;fill-rule:nonzero;stroke:none"
       d="m 86.1336,690.3 -6.1234,-3.78 0,7.56 6.1234,-3.78" /><path
       inkscape:connector-curvature="0"
       id="path234"
       style="fill:#ff0000;fill-opacity:1;fill-rule:nonzero;stroke:none"
       d="m 85.5336,701.3 -6.1234,-3.78 0,7.56 6.1234,-3.78" /><path
       inkscape:connector-curvature="0"
       id="path236"
       style="fill:#ff0000;fill-opacity:1;fill-rule:nonzero;stroke:none"
       d="m 85.5336,712.2 -6.1234,-3.78 0,7.56 6.1234,-3.78" /><path
       inkscape:connector-curvature="0"
       id="path238"
       style="fill:#ff0000;fill-opacity:1;fill-rule:nonzero;stroke:none"
       d="m 85.5336,722 -6.1234,-3.78 0,7.56 6.1234,-3.78" /><path
       inkscape:connector-curvature="0"
       id="path240"
       style="fill:#000000;fill-opacity:1;fill-rule:nonzero;stroke:none"
       d="m 460,181.28 c -2.088,0 -3.78,-1.692 -3.78,-3.78 0,-2.088 1.692,-3.78 3.78,-3.78 2.088,0 3.78,1.692 3.78,3.78 0,2.088 -1.692,3.78 -3.78,3.78" /><path
       inkscape:connector-curvature="0"
       id="path242"
       style="fill:#000000;fill-opacity:1;fill-rule:nonzero;stroke:none"
       d="m 455.6,235.88 c -2.088,0 -3.78,-1.692 -3.78,-3.78 0,-2.088 1.692,-3.78 3.78,-3.78 2.088,0 3.78,1.692 3.78,3.78 0,2.088 -1.692,3.78 -3.78,3.78" /><path
       inkscape:connector-curvature="0"
       id="path244"
       style="fill:#000000;fill-opacity:1;fill-rule:nonzero;stroke:none"
       d="m 449.5,290.48 c -2.088,0 -3.78,-1.692 -3.78,-3.78 0,-2.088 1.692,-3.78 3.78,-3.78 2.088,0 3.78,1.692 3.78,3.78 0,2.088 -1.692,3.78 -3.78,3.78" /><path
       inkscape:connector-curvature="0"
       id="path246"
       style="fill:#000000;fill-opacity:1;fill-rule:nonzero;stroke:none"
       d="m 440.2,344.88 c -2.088,0 -3.78,-1.692 -3.78,-3.78 0,-2.088 1.692,-3.78 3.78,-3.78 2.088,0 3.78,1.692 3.78,3.78 0,2.088 -1.692,3.78 -3.78,3.78" /><path
       inkscape:connector-curvature="0"
       id="path248"
       style="fill:#000000;fill-opacity:1;fill-rule:nonzero;stroke:none"
       d="m 432.9,366.68 c -2.088,0 -3.78,-1.692 -3.78,-3.78 0,-2.088 1.692,-3.78 3.78,-3.78 2.088,0 3.78,1.692 3.78,3.78 0,2.088 -1.692,3.78 -3.78,3.78" /><path
       inkscape:connector-curvature="0"
       id="path250"
       style="fill:#000000;fill-opacity:1;fill-rule:nonzero;stroke:none"
       d="m 428.9,377.58 c -2.088,0 -3.78,-1.692 -3.78,-3.78 0,-2.088 1.692,-3.78 3.78,-3.78 2.088,0 3.78,1.692 3.78,3.78 0,2.088 -1.692,3.78 -3.78,3.78" /><path
       inkscape:connector-curvature="0"
       id="path252"
       style="fill:#000000;fill-opacity:1;fill-rule:nonzero;stroke:none"
       d="m 420.9,388.58 c -2.088,0 -3.78,-1.692 -3.78,-3.78 0,-2.088 1.692,-3.78 3.78,-3.78 2.088,0 3.78,1.692 3.78,3.78 0,2.088 -1.692,3.78 -3.78,3.78" /><path
       inkscape:connector-curvature="0"
       id="path254"
       style="fill:#000000;fill-opacity:1;fill-rule:nonzero;stroke:none"
       d="m 411.8,399.48 c -2.088,0 -3.78,-1.692 -3.78,-3.78 0,-2.088 1.692,-3.78 3.78,-3.78 2.088,0 3.78,1.692 3.78,3.78 0,2.088 -1.692,3.78 -3.78,3.78" /><path
       inkscape:connector-curvature="0"
       id="path256"
       style="fill:#000000;fill-opacity:1;fill-rule:nonzero;stroke:none"
       d="m 376,410.38 c -2.088,0 -3.78,-1.692 -3.78,-3.78 0,-2.088 1.692,-3.78 3.78,-3.78 2.088,0 3.78,1.692 3.78,3.78 0,2.088 -1.692,3.78 -3.78,3.78" /><path
       inkscape:connector-curvature="0"
       id="path258"
       style="fill:#000000;fill-opacity:1;fill-rule:nonzero;stroke:none"
       d="m 338.9,421.28 c -2.088,0 -3.78,-1.692 -3.78,-3.78 0,-2.088 1.692,-3.78 3.78,-3.78 2.088,0 3.78,1.692 3.78,3.78 0,2.088 -1.692,3.78 -3.78,3.78" /><path
       inkscape:connector-curvature="0"
       id="path260"
       style="fill:#000000;fill-opacity:1;fill-rule:nonzero;stroke:none"
       d="m 296.1,432.28 c -2.088,0 -3.78,-1.692 -3.78,-3.78 0,-2.088 1.692,-3.78 3.78,-3.78 2.088,0 3.78,1.692 3.78,3.78 0,2.088 -1.692,3.78 -3.78,3.78" /><path
       inkscape:connector-curvature="0"
       id="path262"
       style="fill:#000000;fill-opacity:1;fill-rule:nonzero;stroke:none"
       d="m 273.1,443.18 c -2.088,0 -3.78,-1.692 -3.78,-3.78 0,-2.088 1.692,-3.78 3.78,-3.78 2.088,0 3.78,1.692 3.78,3.78 0,2.088 -1.692,3.78 -3.78,3.78" /><path
       inkscape:connector-curvature="0"
       id="path264"
       style="fill:#000000;fill-opacity:1;fill-rule:nonzero;stroke:none"
       d="m 236.3,464.98 c -2.088,0 -3.78,-1.692 -3.78,-3.78 0,-2.088 1.692,-3.78 3.78,-3.78 2.088,0 3.78,1.692 3.78,3.78 0,2.088 -1.692,3.78 -3.78,3.78" /><path
       inkscape:connector-curvature="0"
       id="path266"
       style="fill:#000000;fill-opacity:1;fill-rule:nonzero;stroke:none"
       d="m 222.4,486.88 c -2.088,0 -3.78,-1.692 -3.78,-3.78 0,-2.088 1.692,-3.78 3.78,-3.78 2.088,0 3.78,1.692 3.78,3.78 0,2.088 -1.692,3.78 -3.78,3.78" /><path
       inkscape:connector-curvature="0"
       id="path268"
       style="fill:#000000;fill-opacity:1;fill-rule:nonzero;stroke:none"
       d="m 208.9,508.68 c -2.088,0 -3.78,-1.692 -3.78,-3.78 0,-2.088 1.692,-3.78 3.78,-3.78 2.088,0 3.78,1.692 3.78,3.78 0,2.088 -1.692,3.78 -3.78,3.78" /><path
       inkscape:connector-curvature="0"
       id="path270"
       style="fill:#000000;fill-opacity:1;fill-rule:nonzero;stroke:none"
       d="m 195.3,530.58 c -2.088,0 -3.78,-1.692 -3.78,-3.78 0,-2.088 1.692,-3.78 3.78,-3.78 2.088,0 3.78,1.692 3.78,3.78 0,2.088 -1.692,3.78 -3.78,3.78" /><path
       inkscape:connector-curvature="0"
       id="path272"
       style="fill:#000000;fill-opacity:1;fill-rule:nonzero;stroke:none"
       d="m 184.9,552.38 c -2.088,0 -3.78,-1.692 -3.78,-3.78 0,-2.088 1.692,-3.78 3.78,-3.78 2.088,0 3.78,1.692 3.78,3.78 0,2.088 -1.692,3.78 -3.78,3.78" /><path
       inkscape:connector-curvature="0"
       id="path274"
       style="fill:#000000;fill-opacity:1;fill-rule:nonzero;stroke:none"
       d="m 179.2,574.28 c -2.088,0 -3.78,-1.692 -3.78,-3.78 0,-2.088 1.692,-3.78 3.78,-3.78 2.088,0 3.78,1.692 3.78,3.78 0,2.088 -1.692,3.78 -3.78,3.78" /><path
       inkscape:connector-curvature="0"
       id="path276"
       style="fill:#000000;fill-opacity:1;fill-rule:nonzero;stroke:none"
       d="m 167,595.78 c -2.088,0 -3.78,-1.692 -3.78,-3.78 0,-2.088 1.692,-3.78 3.78,-3.78 2.088,0 3.78,1.692 3.78,3.78 0,2.088 -1.692,3.78 -3.78,3.78" /><path
       inkscape:connector-curvature="0"
       id="path278"
       style="fill:#000000;fill-opacity:1;fill-rule:nonzero;stroke:none"
       d="m 158.1,617.68 c -2.088,0 -3.78,-1.692 -3.78,-3.78 0,-2.088 1.692,-3.78 3.78,-3.78 2.088,0 3.78,1.692 3.78,3.78 0,2.088 -1.692,3.78 -3.78,3.78" /><path
       inkscape:connector-curvature="0"
       id="path280"
       style="fill:#000000;fill-opacity:1;fill-rule:nonzero;stroke:none"
       d="m 151.1,639.48 c -2.088,0 -3.78,-1.692 -3.78,-3.78 0,-2.088 1.692,-3.78 3.78,-3.78 2.088,0 3.78,1.692 3.78,3.78 0,2.088 -1.692,3.78 -3.78,3.78" /><path
       inkscape:connector-curvature="0"
       id="path282"
       style="fill:#000000;fill-opacity:1;fill-rule:nonzero;stroke:none"
       d="m 152.6,661.38 c -2.088,0 -3.78,-1.692 -3.78,-3.78 0,-2.088 1.692,-3.78 3.78,-3.78 2.088,0 3.78,1.692 3.78,3.78 0,2.088 -1.692,3.78 -3.78,3.78" /><path
       inkscape:connector-curvature="0"
       id="path284"
       style="fill:#000000;fill-opacity:1;fill-rule:nonzero;stroke:none"
       d="m 150,672.28 c -2.088,0 -3.78,-1.692 -3.78,-3.78 0,-2.088 1.692,-3.78 3.78,-3.78 2.088,0 3.78,1.692 3.78,3.78 0,2.088 -1.692,3.78 -3.78,3.78" /><path
       inkscape:connector-curvature="0"
       id="path286"
       style="fill:#000000;fill-opacity:1;fill-rule:nonzero;stroke:none"
       d="m 118.9,683.18 c -2.088,0 -3.78,-1.692 -3.78,-3.78 0,-2.088 1.692,-3.78 3.78,-3.78 2.088,0 3.78,1.692 3.78,3.78 0,2.088 -1.692,3.78 -3.78,3.78" /><path
       inkscape:connector-curvature="0"
       id="path288"
       style="fill:#000000;fill-opacity:1;fill-rule:nonzero;stroke:none"
       d="m 105,694.08 c -2.088,0 -3.78,-1.692 -3.78,-3.78 0,-2.088 1.692,-3.78 3.78,-3.78 2.088,0 3.78,1.692 3.78,3.78 0,2.088 -1.692,3.78 -3.78,3.78" /><path
       inkscape:connector-curvature="0"
       id="path290"
       style="fill:#000000;fill-opacity:1;fill-rule:nonzero;stroke:none"
       d="m 96.9,705.08 c -2.0875,0 -3.7801,-1.692 -3.7801,-3.78 0,-2.088 1.6926,-3.78 3.7801,-3.78 2.0875,0 3.78,1.692 3.78,3.78 0,2.088 -1.6925,3.78 -3.78,3.78" /><path
       inkscape:connector-curvature="0"
       id="path292"
       style="fill:#000000;fill-opacity:1;fill-rule:nonzero;stroke:none"
       d="m 89.1,715.98 c -2.0875,0 -3.7801,-1.692 -3.7801,-3.78 0,-2.088 1.6926,-3.78 3.7801,-3.78 2.0875,0 3.7801,1.692 3.7801,3.78 0,2.088 -1.6926,3.78 -3.7801,3.78" /><path
       inkscape:connector-curvature="0"
       id="path294"
       style="fill:#000000;fill-opacity:1;fill-rule:nonzero;stroke:none"
       d="m 82.1,725.78 c -2.0875,0 -3.7801,-1.692 -3.7801,-3.78 0,-2.088 1.6926,-3.78 3.7801,-3.78 2.0875,0 3.7801,1.692 3.7801,3.78 0,2.088 -1.6926,3.78 -3.7801,3.78" /><path
       inkscape:connector-curvature="0"
       id="path296"
       style="fill:none;stroke:#000000;stroke-width:1;stroke-linecap:butt;stroke-linejoin:miter;stroke-miterlimit:3.79999995;stroke-opacity:1;stroke-dasharray:none"
       d="m 81.3,177.4 389.5,0 0,545.7 -389.5,0 0,-545.7 z" /><flowRoot
       xml:space="preserve"
       id="flowRoot3415"
       style="font-size:40px;font-style:normal;font-weight:normal;line-height:125%;letter-spacing:0px;word-spacing:0px;fill:#000000;fill-opacity:1;stroke:none;font-family:Sans"
       transform="matrix(0,0.8,0.8,0,-25.671571,8.2515766)"><flowRegion
         id="flowRegion3417"><rect
           id="rect3419"
           width="45.84206"
           height="49.280262"
           x="543.22882"
           y="657.27106" /></flowRegion><flowPara
         id="flowPara3421"
         style="font-size:40px;font-style:normal;font-variant:normal;font-weight:normal;font-stretch:normal;font-family:Arial;-inkscape-font-specification:Arial">p</flowPara></flowRoot><g
       id="g4312"
       transform="translate(-35.78814,-4.8182175)"><path
         inkscape:connector-curvature="0"
         inkscape:original-d="m 195.78814,204.2161 0,46.02966"
         inkscape:path-effect="#path-effect3510-2"
         id="path3508-4"
         d="m 195.78814,204.2161 0,46.02966"
         style="fill:#ff0000;fill-opacity:1;stroke:#ff0000;stroke-width:0.80000001px;stroke-linecap:butt;stroke-linejoin:miter;stroke-opacity:1" /><path
         d="m 199.73264,227.37678 -6.124,-3.78 0,7.56 6.124,-3.78"
         style="fill:#ff0000;fill-opacity:1;fill-rule:nonzero;stroke:none"
         id="path212-5"
         inkscape:connector-curvature="0" /></g><g
       id="g4316"
       transform="translate(-25.83066,-5.2326275)"><path
         inkscape:connector-curvature="0"
         inkscape:original-d="m 161.75212,204.2161 0,46.02966"
         inkscape:path-effect="#path-effect3510-5"
         id="path3508-5"
         d="m 161.75212,204.2161 0,46.02966"
         style="fill:#0000ff;stroke:#0000ff;stroke-width:0.80000001px;stroke-linecap:butt;stroke-linejoin:miter;stroke-opacity:1" /><path
         d="m 158.05066,227.37678 3.78,-3.78 3.78,3.78 -3.78,3.78 -3.78,-3.78"
         style="fill:#0000ff;fill-opacity:1;fill-rule:nonzero;stroke:none"
         id="path150-1"
         inkscape:connector-curvature="0" /></g><g
       id="g4320"
       transform="translate(-12.15042,-2.42289)"><path
         inkscape:connector-curvature="0"
         inkscape:original-d="m 124.15042,201.62289 0,46.02966"
         inkscape:path-effect="#path-effect3510"
         id="path3508"
         d="m 124.15042,201.62289 0,46.02966"
         style="fill:none;stroke:#000000;stroke-width:0.80000001px;stroke-linecap:butt;stroke-linejoin:miter;stroke-opacity:1" /><path
         d="m 124.24014,228.40625 c -2.088,0 -3.78,-1.692 -3.78,-3.78 0,-2.088 1.692,-3.78 3.78,-3.78 2.088,0 3.78,1.692 3.78,3.78 0,2.088 -1.692,3.78 -3.78,3.78"
         style="fill:#000000;fill-opacity:1;fill-rule:nonzero;stroke:none"
         id="path264-5"
         inkscape:connector-curvature="0" /></g><flowRoot
       transform="matrix(0,0.8,0.8,0,-428.71927,-177.775)"
       xml:space="preserve"
       id="flowRoot3415-2-6"
       style="font-size:40px;font-style:normal;font-weight:normal;line-height:125%;letter-spacing:0px;word-spacing:0px;fill:#000000;fill-opacity:1;stroke:none;font-family:Sans"><flowRegion
         id="flowRegion3417-0-9"><rect
           id="rect3419-8-2"
           width="93.976288"
           height="46.988144"
           x="543.22882"
           y="657.27106" /></flowRegion><flowPara
         id="flowPara3421-6-2"
         style="font-size:24px;font-style:normal;font-variant:normal;font-weight:normal;font-stretch:normal;font-family:Arial;-inkscape-font-specification:Arial">R</flowPara></flowRoot><flowRoot
       transform="matrix(0,0.8,0.8,0,-407.86831,-177.775)"
       xml:space="preserve"
       id="flowRoot3415-2-6-1"
       style="font-size:40px;font-style:normal;font-weight:normal;line-height:125%;letter-spacing:0px;word-spacing:0px;fill:#000000;fill-opacity:1;stroke:none;font-family:Sans"><flowRegion
         id="flowRegion3417-0-9-7"><rect
           id="rect3419-8-2-8"
           width="93.976288"
           height="46.988144"
           x="543.22882"
           y="657.27106" /></flowRegion><flowPara
         id="flowPara3421-6-2-5"
         style="font-size:28px;font-style:normal;font-variant:normal;font-weight:normal;font-stretch:normal;font-family:Arial;-inkscape-font-specification:Arial">r<flowSpan
   style="font-size:65.00091553%;baseline-shift:sub"
   id="flowSpan4407">1</flowSpan></flowPara></flowRoot><flowRoot
       transform="matrix(0,0.8,0.8,0,-383.86831,-177.775)"
       xml:space="preserve"
       id="flowRoot3415-2-6-1-6"
       style="font-size:40px;font-style:normal;font-weight:normal;line-height:125%;letter-spacing:0px;word-spacing:0px;fill:#000000;fill-opacity:1;stroke:none;font-family:Sans"><flowRegion
         id="flowRegion3417-0-9-7-0"><rect
           id="rect3419-8-2-8-9"
           width="93.976288"
           height="46.988144"
           x="543.22882"
           y="657.27106" /></flowRegion><flowPara
         id="flowPara3421-6-2-5-3"
         style="font-size:28px;font-style:normal;font-variant:normal;font-weight:normal;font-stretch:normal;font-family:Arial;-inkscape-font-specification:Arial">r<flowSpan
   style="font-size:65.00091553%;baseline-shift:sub"
   id="flowSpan4409">2</flowSpan></flowPara></flowRoot></g></svg>