<?xml version="1.0" encoding="UTF-8" standalone="no"?>
<!-- Created with Inkscape (http://www.inkscape.org/) -->

<svg
   xmlns:dc="http://purl.org/dc/elements/1.1/"
   xmlns:cc="http://creativecommons.org/ns#"
   xmlns:rdf="http://www.w3.org/1999/02/22-rdf-syntax-ns#"
   xmlns:svg="http://www.w3.org/2000/svg"
   xmlns="http://www.w3.org/2000/svg"
   xmlns:sodipodi="http://sodipodi.sourceforge.net/DTD/sodipodi-0.dtd"
   xmlns:inkscape="http://www.inkscape.org/namespaces/inkscape"
   id="svg2"
   version="1.1"
   inkscape:version="0.48.3.1 r9886"
   width="450"
   height="315"
   xml:space="preserve"
   sodipodi:docname="Fig6.eps"><metadata
     id="metadata8"><rdf:RDF><cc:Work
         rdf:about=""><dc:format>image/svg+xml</dc:format><dc:type
           rdf:resource="http://purl.org/dc/dcmitype/StillImage" /><dc:title></dc:title></cc:Work></rdf:RDF></metadata><defs
     id="defs6"><inkscape:path-effect
       effect="spiro"
       id="path-effect3510"
       is_visible="true" /><inkscape:path-effect
       effect="spiro"
       id="path-effect3510-5"
       is_visible="true" /><inkscape:path-effect
       effect="spiro"
       id="path-effect3510-2"
       is_visible="true" /><inkscape:path-effect
       effect="spiro"
       id="path-effect3510-79"
       is_visible="true" /><inkscape:path-effect
       effect="spiro"
       id="path-effect3510-7"
       is_visible="true" /><inkscape:path-effect
       effect="spiro"
       id="path-effect3510-71"
       is_visible="true" /><inkscape:path-effect
       effect="spiro"
       id="path-effect3510-71-1"
       is_visible="true" /></defs><sodipodi:namedview
     pagecolor="#ffffff"
     bordercolor="#666666"
     borderopacity="1"
     objecttolerance="10"
     gridtolerance="10"
     guidetolerance="10"
     inkscape:pageopacity="0"
     inkscape:pageshadow="2"
     inkscape:window-width="1855"
     inkscape:window-height="1056"
     id="namedview4"
     showgrid="true"
     inkscape:zoom="2.1190756"
     inkscape:cx="254.25828"
     inkscape:cy="163.42125"
     inkscape:window-x="65"
     inkscape:window-y="24"
     inkscape:window-maximized="1"
     inkscape:current-layer="g10"><inkscape:grid
       type="xygrid"
       id="grid4740" /></sodipodi:namedview><g
     id="g10"
     inkscape:groupmode="layer"
     inkscape:label="ink_ext_XXXXXX"
     transform="matrix(1.25,0,0,-1.25,0,315)"><path
       inkscape:connector-curvature="0"
       id="path14"
       style="fill:none;stroke:#000000;stroke-width:0.5;stroke-linecap:butt;stroke-linejoin:miter;stroke-miterlimit:3.79999995;stroke-opacity:1;stroke-dasharray:none"
       d="m 63.7,41.6 3.15,0 m 269.7,0 -3.15,0" /><g
       id="g16"><text
         id="text18"
         transform="matrix(1,0,0,-1,48.6726,37.2648)"><tspan
           id="tspan20"
           y="0"
           x="0"
           style="font-size:13px;font-variant:normal;font-weight:normal;writing-mode:lr-tb;fill:#000000;fill-opacity:1;fill-rule:nonzero;stroke:none;font-family:Helvetica;-inkscape-font-specification:Helvetica">0</tspan></text>
</g><path
       inkscape:connector-curvature="0"
       id="path22"
       style="fill:none;stroke:#000000;stroke-width:0.5;stroke-linecap:butt;stroke-linejoin:miter;stroke-miterlimit:3.79999995;stroke-opacity:1;stroke-dasharray:none"
       d="m 63.7,80.55 3.15,0 m 269.7,0 -3.15,0" /><g
       id="g24"><text
         id="text26"
         transform="matrix(1,0,0,-1,37.8312,76.2148)"><tspan
           id="tspan28"
           sodipodi:role="line"
           y="0"
           x="0 7.2280002 10.842"
           style="font-size:13px;font-variant:normal;font-weight:normal;writing-mode:lr-tb;fill:#000000;fill-opacity:1;fill-rule:nonzero;stroke:none;font-family:Helvetica;-inkscape-font-specification:Helvetica">0.2</tspan></text>
</g><path
       inkscape:connector-curvature="0"
       id="path30"
       style="fill:none;stroke:#000000;stroke-width:0.5;stroke-linecap:butt;stroke-linejoin:miter;stroke-miterlimit:3.79999995;stroke-opacity:1;stroke-dasharray:none"
       d="m 63.7,119.5 3.15,0 m 269.7,0 -3.15,0" /><g
       id="g32"><text
         id="text34"
         transform="matrix(1,0,0,-1,37.8312,115.165)"><tspan
           id="tspan36"
           sodipodi:role="line"
           y="0"
           x="0 7.2280002 10.842"
           style="font-size:13px;font-variant:normal;font-weight:normal;writing-mode:lr-tb;fill:#000000;fill-opacity:1;fill-rule:nonzero;stroke:none;font-family:Helvetica;-inkscape-font-specification:Helvetica">0.4</tspan></text>
</g><path
       inkscape:connector-curvature="0"
       id="path38"
       style="fill:none;stroke:#000000;stroke-width:0.5;stroke-linecap:butt;stroke-linejoin:miter;stroke-miterlimit:3.79999995;stroke-opacity:1;stroke-dasharray:none"
       d="m 63.7,158.45 3.15,0 m 269.7,0 -3.15,0" /><g
       id="g40"><text
         id="text42"
         transform="matrix(1,0,0,-1,37.8312,154.115)"><tspan
           id="tspan44"
           sodipodi:role="line"
           y="0"
           x="0 7.2280002 10.842"
           style="font-size:13px;font-variant:normal;font-weight:normal;writing-mode:lr-tb;fill:#000000;fill-opacity:1;fill-rule:nonzero;stroke:none;font-family:Helvetica;-inkscape-font-specification:Helvetica">0.6</tspan></text>
</g><path
       inkscape:connector-curvature="0"
       id="path46"
       style="fill:none;stroke:#000000;stroke-width:0.5;stroke-linecap:butt;stroke-linejoin:miter;stroke-miterlimit:3.79999995;stroke-opacity:1;stroke-dasharray:none"
       d="m 63.7,197.4 3.15,0 m 269.7,0 -3.15,0" /><g
       id="g48"><text
         id="text50"
         transform="matrix(1,0,0,-1,37.8312,193.065)"><tspan
           id="tspan52"
           sodipodi:role="line"
           y="0"
           x="0 7.2280002 10.842"
           style="font-size:13px;font-variant:normal;font-weight:normal;writing-mode:lr-tb;fill:#000000;fill-opacity:1;fill-rule:nonzero;stroke:none;font-family:Helvetica;-inkscape-font-specification:Helvetica">0.8</tspan></text>
</g><path
       inkscape:connector-curvature="0"
       id="path54"
       style="fill:none;stroke:#000000;stroke-width:0.5;stroke-linecap:butt;stroke-linejoin:miter;stroke-miterlimit:3.79999995;stroke-opacity:1;stroke-dasharray:none"
       d="m 63.7,236.35 3.15,0 m 269.7,0 -3.15,0" /><g
       id="g56"><text
         id="text58"
         transform="matrix(1,0,0,-1,48.6726,232.015)"><tspan
           id="tspan60"
           y="0"
           x="0"
           style="font-size:13px;font-variant:normal;font-weight:normal;writing-mode:lr-tb;fill:#000000;fill-opacity:1;fill-rule:nonzero;stroke:none;font-family:Helvetica;-inkscape-font-specification:Helvetica">1</tspan></text>
</g><path
       inkscape:connector-curvature="0"
       id="path62"
       style="fill:none;stroke:#000000;stroke-width:0.5;stroke-linecap:butt;stroke-linejoin:miter;stroke-miterlimit:3.79999995;stroke-opacity:1;stroke-dasharray:none"
       d="m 63.75,41.6 0,3.15 m 0,191.6 0,-3.15" /><g
       id="g64"><text
         id="text66"
         transform="matrix(1,0,0,-1,56.5226,24.2648)"><tspan
           id="tspan68"
           sodipodi:role="line"
           y="0"
           x="0 7.2280002 10.842"
           style="font-size:13px;font-variant:normal;font-weight:normal;writing-mode:lr-tb;fill:#000000;fill-opacity:1;fill-rule:nonzero;stroke:none;font-family:Helvetica;-inkscape-font-specification:Helvetica">0.5</tspan></text>
</g><path
       inkscape:connector-curvature="0"
       id="path70"
       style="fill:none;stroke:#000000;stroke-width:0.5;stroke-linecap:butt;stroke-linejoin:miter;stroke-miterlimit:3.79999995;stroke-opacity:1;stroke-dasharray:none"
       d="m 74.65,41.6 0,1.55 m 0,193.2 0,-1.55 M 85.6,41.6 l 0,1.55 m 0,193.2 0,-1.55 m 10.9,-193.2 0,1.55 m 0,193.2 0,-1.55 m 10.9,-193.2 0,1.55 m 0,193.2 0,-1.55 m 10.9,-193.2 0,3.15 m 0,191.6 0,-3.15" /><g
       id="g72"><text
         id="text74"
         transform="matrix(1,0,0,-1,111.073,24.2648)"><tspan
           id="tspan76"
           sodipodi:role="line"
           y="0"
           x="0 7.2280002 10.842"
           style="font-size:13px;font-variant:normal;font-weight:normal;writing-mode:lr-tb;fill:#000000;fill-opacity:1;fill-rule:nonzero;stroke:none;font-family:Helvetica;-inkscape-font-specification:Helvetica">0.6</tspan></text>
</g><path
       inkscape:connector-curvature="0"
       id="path78"
       style="fill:none;stroke:#000000;stroke-width:0.5;stroke-linecap:butt;stroke-linejoin:miter;stroke-miterlimit:3.79999995;stroke-opacity:1;stroke-dasharray:none"
       d="m 129.25,41.6 0,1.55 m 0,193.2 0,-1.55 m 10.9,-193.2 0,1.55 m 0,193.2 0,-1.55 m 10.9,-193.2 0,1.55 m 0,193.2 0,-1.55 m 10.9,-193.2 0,1.55 m 0,193.2 0,-1.55 m 10.9,-193.2 0,3.15 m 0,191.6 0,-3.15" /><g
       id="g80"><text
         id="text82"
         transform="matrix(1,0,0,-1,165.623,24.2648)"><tspan
           id="tspan84"
           sodipodi:role="line"
           y="0"
           x="0 7.2280002 10.842"
           style="font-size:13px;font-variant:normal;font-weight:normal;writing-mode:lr-tb;fill:#000000;fill-opacity:1;fill-rule:nonzero;stroke:none;font-family:Helvetica;-inkscape-font-specification:Helvetica">0.7</tspan></text>
</g><path
       inkscape:connector-curvature="0"
       id="path86"
       style="fill:none;stroke:#000000;stroke-width:0.5;stroke-linecap:butt;stroke-linejoin:miter;stroke-miterlimit:3.79999995;stroke-opacity:1;stroke-dasharray:none"
       d="m 183.8,41.6 0,1.55 m 0,193.2 0,-1.55 m 10.9,-193.2 0,1.55 m 0,193.2 0,-1.55 m 10.9,-193.2 0,1.55 m 0,193.2 0,-1.55 m 10.9,-193.2 0,1.55 m 0,193.2 0,-1.55 m 10.95,-193.2 0,3.15 m 0,191.6 0,-3.15" /><g
       id="g88"><text
         id="text90"
         transform="matrix(1,0,0,-1,220.223,24.2648)"><tspan
           id="tspan92"
           sodipodi:role="line"
           y="0"
           x="0 7.2280002 10.842"
           style="font-size:13px;font-variant:normal;font-weight:normal;writing-mode:lr-tb;fill:#000000;fill-opacity:1;fill-rule:nonzero;stroke:none;font-family:Helvetica;-inkscape-font-specification:Helvetica">0.8</tspan></text>
</g><path
       inkscape:connector-curvature="0"
       id="path94"
       style="fill:none;stroke:#000000;stroke-width:0.5;stroke-linecap:butt;stroke-linejoin:miter;stroke-miterlimit:3.79999995;stroke-opacity:1;stroke-dasharray:none"
       d="m 238.35,41.6 0,1.55 m 0,193.2 0,-1.55 m 10.9,-193.2 0,1.55 m 0,193.2 0,-1.55 m 10.9,-193.2 0,1.55 m 0,193.2 0,-1.55 m 10.95,-193.2 0,1.55 m 0,193.2 0,-1.55 M 282,41.6 l 0,3.15 m 0,191.6 0,-3.15" /><g
       id="g96"><text
         id="text98"
         transform="matrix(1,0,0,-1,274.773,24.2648)"><tspan
           id="tspan100"
           sodipodi:role="line"
           y="0"
           x="0 7.2280002 10.842"
           style="font-size:13px;font-variant:normal;font-weight:normal;writing-mode:lr-tb;fill:#000000;fill-opacity:1;fill-rule:nonzero;stroke:none;font-family:Helvetica;-inkscape-font-specification:Helvetica">0.9</tspan></text>
</g><path
       inkscape:connector-curvature="0"
       id="path102"
       style="fill:none;stroke:#000000;stroke-width:0.5;stroke-linecap:butt;stroke-linejoin:miter;stroke-miterlimit:3.79999995;stroke-opacity:1;stroke-dasharray:none"
       d="m 292.9,41.6 0,1.55 m 0,193.2 0,-1.55 m 10.9,-193.2 0,1.55 m 0,193.2 0,-1.55 m 10.95,-193.2 0,1.55 m 0,193.2 0,-1.55 m 10.9,-193.2 0,1.55 m 0,193.2 0,-1.55 m 10.9,-193.2 0,3.15 m 0,191.6 0,-3.15" /><g
       id="g104"><text
         id="text106"
         transform="matrix(1,0,0,-1,334.743,24.2648)"><tspan
           id="tspan108"
           y="0"
           x="0"
           style="font-size:13px;font-variant:normal;font-weight:normal;writing-mode:lr-tb;fill:#000000;fill-opacity:1;fill-rule:nonzero;stroke:none;font-family:Helvetica;-inkscape-font-specification:Helvetica">1</tspan></text>
</g><path
       inkscape:connector-curvature="0"
       id="path110"
       style="fill:none;stroke:#000000;stroke-width:0.5;stroke-linecap:butt;stroke-linejoin:miter;stroke-miterlimit:3.79999995;stroke-opacity:1;stroke-dasharray:none"
       d="m 63.7,41.6 272.85,0 0,194.75 -272.85,0 0,-194.75 z" /><path
       inkscape:connector-curvature="0"
       id="path122"
       style="fill:none;stroke:#ff0000;stroke-width:0.25;stroke-linecap:butt;stroke-linejoin:miter;stroke-miterlimit:3.79999995;stroke-opacity:1;stroke-dasharray:none"
       d="m 63.7,51.8 0.05,0 10.9,3.25 10.95,2.5 10.9,10.7 5.45,8.4 5.45,17.6 5.45,17.55 5.45,11.1 10.95,13.3 10.9,8.65 10.9,7.05 10.9,6.4 10.9,6.15 10.9,5.25 16.4,6.9 16.4,7.3 10.9,4.3 10.95,4.6 16.3,6.4 16.3,6.45 11,4.8 10.85,4.3 16.4,6.45 16.4,6.65 10.35,8.1" /><path
       inkscape:connector-curvature="0"
       id="path124"
       style="fill:#ff0000;fill-opacity:1;fill-rule:nonzero;stroke:none"
       d="m 63.75,49.6832 -1.8898,3.0617 3.7796,0 -1.8898,-3.0617" /><path
       inkscape:connector-curvature="0"
       id="path126"
       style="fill:#ff0000;fill-opacity:1;fill-rule:nonzero;stroke:none"
       d="m 74.65,52.9332 -1.8898,3.0617 3.7796,0 -1.8898,-3.0617" /><path
       inkscape:connector-curvature="0"
       id="path128"
       style="fill:#ff0000;fill-opacity:1;fill-rule:nonzero;stroke:none"
       d="m 85.6,55.4332 -1.8898,3.0617 3.7796,0 L 85.6,55.4332" /><path
       inkscape:connector-curvature="0"
       id="path130"
       style="fill:#ff0000;fill-opacity:1;fill-rule:nonzero;stroke:none"
       d="m 96.5,66.1332 -1.8898,3.0617 3.7796,0 L 96.5,66.1332" /><path
       inkscape:connector-curvature="0"
       id="path132"
       style="fill:#ff0000;fill-opacity:1;fill-rule:nonzero;stroke:none"
       d="m 101.95,74.5332 -1.89,3.0617 3.78,0 -1.89,-3.0617" /><path
       inkscape:connector-curvature="0"
       id="path134"
       style="fill:#ff0000;fill-opacity:1;fill-rule:nonzero;stroke:none"
       d="m 107.4,92.1332 -1.89,3.0617 3.78,0 -1.89,-3.0617" /><path
       inkscape:connector-curvature="0"
       id="path136"
       style="fill:#ff0000;fill-opacity:1;fill-rule:nonzero;stroke:none"
       d="m 112.85,109.683 -1.89,3.062 3.78,0 -1.89,-3.062" /><path
       inkscape:connector-curvature="0"
       id="path138"
       style="fill:#ff0000;fill-opacity:1;fill-rule:nonzero;stroke:none"
       d="m 118.3,120.783 -1.89,3.062 3.78,0 -1.89,-3.062" /><path
       inkscape:connector-curvature="0"
       id="path140"
       style="fill:#ff0000;fill-opacity:1;fill-rule:nonzero;stroke:none"
       d="m 129.25,134.083 -1.89,3.062 3.78,0 -1.89,-3.062" /><path
       inkscape:connector-curvature="0"
       id="path142"
       style="fill:#ff0000;fill-opacity:1;fill-rule:nonzero;stroke:none"
       d="m 140.15,142.733 -1.89,3.062 3.78,0 -1.89,-3.062" /><path
       inkscape:connector-curvature="0"
       id="path144"
       style="fill:#ff0000;fill-opacity:1;fill-rule:nonzero;stroke:none"
       d="m 151.05,149.783 -1.89,3.062 3.78,0 -1.89,-3.062" /><path
       inkscape:connector-curvature="0"
       id="path146"
       style="fill:#ff0000;fill-opacity:1;fill-rule:nonzero;stroke:none"
       d="m 161.95,156.183 -1.89,3.062 3.78,0 -1.89,-3.062" /><path
       inkscape:connector-curvature="0"
       id="path148"
       style="fill:#ff0000;fill-opacity:1;fill-rule:nonzero;stroke:none"
       d="m 172.85,162.333 -1.89,3.062 3.78,0 -1.89,-3.062" /><path
       inkscape:connector-curvature="0"
       id="path150"
       style="fill:#ff0000;fill-opacity:1;fill-rule:nonzero;stroke:none"
       d="m 183.75,167.583 -1.89,3.062 3.78,0 -1.89,-3.062" /><path
       inkscape:connector-curvature="0"
       id="path152"
       style="fill:#ff0000;fill-opacity:1;fill-rule:nonzero;stroke:none"
       d="m 200.15,174.483 -1.89,3.062 3.78,0 -1.89,-3.062" /><path
       inkscape:connector-curvature="0"
       id="path154"
       style="fill:#ff0000;fill-opacity:1;fill-rule:nonzero;stroke:none"
       d="m 216.55,181.783 -1.89,3.062 3.78,0 -1.89,-3.062" /><path
       inkscape:connector-curvature="0"
       id="path156"
       style="fill:#ff0000;fill-opacity:1;fill-rule:nonzero;stroke:none"
       d="m 227.45,186.083 -1.89,3.062 3.78,0 -1.89,-3.062" /><path
       inkscape:connector-curvature="0"
       id="path158"
       style="fill:#ff0000;fill-opacity:1;fill-rule:nonzero;stroke:none"
       d="m 238.4,190.683 -1.89,3.062 3.78,0 -1.89,-3.062" /><path
       inkscape:connector-curvature="0"
       id="path160"
       style="fill:#ff0000;fill-opacity:1;fill-rule:nonzero;stroke:none"
       d="m 254.7,197.083 -1.89,3.062 3.78,0 -1.89,-3.062" /><path
       inkscape:connector-curvature="0"
       id="path162"
       style="fill:#ff0000;fill-opacity:1;fill-rule:nonzero;stroke:none"
       d="m 271,203.533 -1.89,3.062 3.78,0 -1.89,-3.062" /><path
       inkscape:connector-curvature="0"
       id="path164"
       style="fill:#ff0000;fill-opacity:1;fill-rule:nonzero;stroke:none"
       d="m 282,208.333 -1.89,3.062 3.78,0 -1.89,-3.062" /><path
       inkscape:connector-curvature="0"
       id="path166"
       style="fill:#ff0000;fill-opacity:1;fill-rule:nonzero;stroke:none"
       d="m 292.85,212.633 -1.89,3.062 3.78,0 -1.89,-3.062" /><path
       inkscape:connector-curvature="0"
       id="path168"
       style="fill:#ff0000;fill-opacity:1;fill-rule:nonzero;stroke:none"
       d="m 309.25,219.083 -1.89,3.062 3.78,0 -1.89,-3.062" /><path
       inkscape:connector-curvature="0"
       id="path170"
       style="fill:#ff0000;fill-opacity:1;fill-rule:nonzero;stroke:none"
       d="m 325.65,225.733 -1.89,3.062 3.78,0 -1.89,-3.062" /><path
       inkscape:connector-curvature="0"
       id="path172"
       style="fill:#ff0000;fill-opacity:1;fill-rule:nonzero;stroke:none"
       d="m 336,233.833 -1.89,3.062 3.78,0 -1.89,-3.062" /><path
       inkscape:connector-curvature="0"
       id="path174"
       style="fill:none;stroke:#0000ff;stroke-width:0.25;stroke-linecap:butt;stroke-linejoin:miter;stroke-miterlimit:3.79999995;stroke-opacity:1;stroke-dasharray:none"
       d="m 63.7,47 0.05,0 27.3,2.2 27.3,3.05 27.2,4.65 10.9,3.65 5.45,2 5.5,4 5.45,4.55 5.45,17.9 5.45,18.55 5.5,21.4 5.45,11.5 10.9,18.4 10.95,6.95 10.9,6.75 10.95,6.8 10.9,5.2 10.95,2.85 10.75,6.1 10.95,4.45 10.9,3.5 10.95,-0.75 5.45,1.3 5.45,15.55 5.45,6.95 5.5,4.05 5.45,3.9 4.9,3.5" /><path
       inkscape:connector-curvature="0"
       id="path176"
       style="fill:#0000ff;fill-opacity:1;fill-rule:nonzero;stroke:none"
       d="M 63.75,48.8898 61.8602,47 63.75,45.1102 65.6398,47 63.75,48.8898" /><path
       inkscape:connector-curvature="0"
       id="path178"
       style="fill:#0000ff;fill-opacity:1;fill-rule:nonzero;stroke:none"
       d="M 91.05,51.0898 89.1602,49.2 91.05,47.3102 92.9398,49.2 91.05,51.0898" /><path
       inkscape:connector-curvature="0"
       id="path180"
       style="fill:#0000ff;fill-opacity:1;fill-rule:nonzero;stroke:none"
       d="m 118.35,54.1398 -1.89,-1.8898 1.89,-1.8898 1.89,1.8898 -1.89,1.8898" /><path
       inkscape:connector-curvature="0"
       id="path182"
       style="fill:#0000ff;fill-opacity:1;fill-rule:nonzero;stroke:none"
       d="m 145.55,58.7898 -1.89,-1.8898 1.89,-1.8898 1.89,1.8898 -1.89,1.8898" /><path
       inkscape:connector-curvature="0"
       id="path184"
       style="fill:#0000ff;fill-opacity:1;fill-rule:nonzero;stroke:none"
       d="m 156.45,62.4398 -1.89,-1.8898 1.89,-1.8898 1.89,1.8898 -1.89,1.8898" /><path
       inkscape:connector-curvature="0"
       id="path186"
       style="fill:#0000ff;fill-opacity:1;fill-rule:nonzero;stroke:none"
       d="m 161.9,64.4398 -1.89,-1.8898 1.89,-1.8898 1.89,1.8898 -1.89,1.8898" /><path
       inkscape:connector-curvature="0"
       id="path188"
       style="fill:#0000ff;fill-opacity:1;fill-rule:nonzero;stroke:none"
       d="m 167.4,68.4398 -1.89,-1.8898 1.89,-1.8898 1.89,1.8898 -1.89,1.8898" /><path
       inkscape:connector-curvature="0"
       id="path190"
       style="fill:#0000ff;fill-opacity:1;fill-rule:nonzero;stroke:none"
       d="m 172.85,72.9898 -1.89,-1.8898 1.89,-1.8898 1.89,1.8898 -1.89,1.8898" /><path
       inkscape:connector-curvature="0"
       id="path192"
       style="fill:#0000ff;fill-opacity:1;fill-rule:nonzero;stroke:none"
       d="M 178.3,90.8898 176.41,89 178.3,87.1102 180.19,89 178.3,90.8898" /><path
       inkscape:connector-curvature="0"
       id="path194"
       style="fill:#0000ff;fill-opacity:1;fill-rule:nonzero;stroke:none"
       d="m 183.75,109.44 -1.89,-1.89 1.89,-1.89 1.89,1.89 -1.89,1.89" /><path
       inkscape:connector-curvature="0"
       id="path196"
       style="fill:#0000ff;fill-opacity:1;fill-rule:nonzero;stroke:none"
       d="m 189.25,130.84 -1.89,-1.89 1.89,-1.89 1.89,1.89 -1.89,1.89" /><path
       inkscape:connector-curvature="0"
       id="path198"
       style="fill:#0000ff;fill-opacity:1;fill-rule:nonzero;stroke:none"
       d="m 194.7,142.34 -1.89,-1.89 1.89,-1.89 1.89,1.89 -1.89,1.89" /><path
       inkscape:connector-curvature="0"
       id="path200"
       style="fill:#0000ff;fill-opacity:1;fill-rule:nonzero;stroke:none"
       d="m 205.6,160.74 -1.89,-1.89 1.89,-1.89 1.89,1.89 -1.89,1.89" /><path
       inkscape:connector-curvature="0"
       id="path202"
       style="fill:#0000ff;fill-opacity:1;fill-rule:nonzero;stroke:none"
       d="m 216.55,167.69 -1.89,-1.89 1.89,-1.89 1.89,1.89 -1.89,1.89" /><path
       inkscape:connector-curvature="0"
       id="path204"
       style="fill:#0000ff;fill-opacity:1;fill-rule:nonzero;stroke:none"
       d="m 227.45,174.44 -1.89,-1.89 1.89,-1.89 1.89,1.89 -1.89,1.89" /><path
       inkscape:connector-curvature="0"
       id="path206"
       style="fill:#0000ff;fill-opacity:1;fill-rule:nonzero;stroke:none"
       d="m 238.4,181.24 -1.89,-1.89 1.89,-1.89 1.89,1.89 -1.89,1.89" /><path
       inkscape:connector-curvature="0"
       id="path208"
       style="fill:#0000ff;fill-opacity:1;fill-rule:nonzero;stroke:none"
       d="m 249.3,186.44 -1.89,-1.89 1.89,-1.89 1.89,1.89 -1.89,1.89" /><path
       inkscape:connector-curvature="0"
       id="path210"
       style="fill:#0000ff;fill-opacity:1;fill-rule:nonzero;stroke:none"
       d="m 260.25,189.29 -1.89,-1.89 1.89,-1.89 1.89,1.89 -1.89,1.89" /><path
       inkscape:connector-curvature="0"
       id="path212"
       style="fill:#0000ff;fill-opacity:1;fill-rule:nonzero;stroke:none"
       d="m 271,195.39 -1.89,-1.89 1.89,-1.89 1.89,1.89 -1.89,1.89" /><path
       inkscape:connector-curvature="0"
       id="path214"
       style="fill:#0000ff;fill-opacity:1;fill-rule:nonzero;stroke:none"
       d="m 281.95,199.84 -1.89,-1.89 1.89,-1.89 1.89,1.89 -1.89,1.89" /><path
       inkscape:connector-curvature="0"
       id="path216"
       style="fill:#0000ff;fill-opacity:1;fill-rule:nonzero;stroke:none"
       d="m 292.85,203.34 -1.89,-1.89 1.89,-1.89 1.89,1.89 -1.89,1.89" /><path
       inkscape:connector-curvature="0"
       id="path218"
       style="fill:#0000ff;fill-opacity:1;fill-rule:nonzero;stroke:none"
       d="m 303.8,202.59 -1.89,-1.89 1.89,-1.89 1.89,1.89 -1.89,1.89" /><path
       inkscape:connector-curvature="0"
       id="path220"
       style="fill:#0000ff;fill-opacity:1;fill-rule:nonzero;stroke:none"
       d="m 309.25,203.89 -1.89,-1.89 1.89,-1.89 1.89,1.89 -1.89,1.89" /><path
       inkscape:connector-curvature="0"
       id="path222"
       style="fill:#0000ff;fill-opacity:1;fill-rule:nonzero;stroke:none"
       d="m 314.7,219.44 -1.89,-1.89 1.89,-1.89 1.89,1.89 -1.89,1.89" /><path
       inkscape:connector-curvature="0"
       id="path224"
       style="fill:#0000ff;fill-opacity:1;fill-rule:nonzero;stroke:none"
       d="m 320.15,226.39 -1.89,-1.89 1.89,-1.89 1.89,1.89 -1.89,1.89" /><path
       inkscape:connector-curvature="0"
       id="path226"
       style="fill:#0000ff;fill-opacity:1;fill-rule:nonzero;stroke:none"
       d="m 325.65,230.44 -1.89,-1.89 1.89,-1.89 1.89,1.89 -1.89,1.89" /><path
       inkscape:connector-curvature="0"
       id="path228"
       style="fill:#0000ff;fill-opacity:1;fill-rule:nonzero;stroke:none"
       d="m 331.1,234.34 -1.89,-1.89 1.89,-1.89 1.89,1.89 -1.89,1.89" /><path
       inkscape:connector-curvature="0"
       id="path230"
       style="fill:#0000ff;fill-opacity:1;fill-rule:nonzero;stroke:none"
       d="m 336,237.84 -1.89,-1.89 1.89,-1.89 1.89,1.89 -1.89,1.89" /><path
       inkscape:connector-curvature="0"
       id="path232"
       style="fill:none;stroke:#000000;stroke-width:0.25;stroke-linecap:butt;stroke-linejoin:miter;stroke-miterlimit:3.79999995;stroke-opacity:1;stroke-dasharray:none"
       d="m 63.7,46.05 0.05,0 27.3,1.4 27.3,2 27.2,2.5 27.3,3.85 10.9,2.35 10.95,3.65 5.45,4.4 5.45,7.4 10.95,24.8 10.9,23.3 10.95,25.6 10.9,5.5 10.95,8.4 10.75,3.75 10.95,5.85 5.45,7.85 5.45,3.2 5.45,16.75 10.95,15.8 5.45,4.9 16.4,13.15" /><path
       inkscape:connector-curvature="0"
       id="path234"
       style="fill:#000000;fill-opacity:1;fill-rule:nonzero;stroke:none"
       d="m 65.6398,46.05 c 0,1.0438 -0.846,1.8898 -1.8898,1.8898 -1.0438,0 -1.8898,-0.846 -1.8898,-1.8898 0,-1.0438 0.846,-1.8898 1.8898,-1.8898 1.0438,0 1.8898,0.846 1.8898,1.8898" /><path
       inkscape:connector-curvature="0"
       id="path236"
       style="fill:#000000;fill-opacity:1;fill-rule:nonzero;stroke:none"
       d="m 92.9398,47.45 c 0,1.0438 -0.846,1.8898 -1.8898,1.8898 -1.0438,0 -1.8898,-0.846 -1.8898,-1.8898 0,-1.0438 0.846,-1.8898 1.8898,-1.8898 1.0438,0 1.8898,0.846 1.8898,1.8898" /><path
       inkscape:connector-curvature="0"
       id="path238"
       style="fill:#000000;fill-opacity:1;fill-rule:nonzero;stroke:none"
       d="m 120.24,49.45 c 0,1.0438 -0.846,1.8898 -1.89,1.8898 -1.044,0 -1.89,-0.846 -1.89,-1.8898 0,-1.0438 0.846,-1.8898 1.89,-1.8898 1.044,0 1.89,0.846 1.89,1.8898" /><path
       inkscape:connector-curvature="0"
       id="path240"
       style="fill:#000000;fill-opacity:1;fill-rule:nonzero;stroke:none"
       d="m 147.44,51.95 c 0,1.0438 -0.846,1.8898 -1.89,1.8898 -1.044,0 -1.89,-0.846 -1.89,-1.8898 0,-1.0438 0.846,-1.8898 1.89,-1.8898 1.044,0 1.89,0.846 1.89,1.8898" /><path
       inkscape:connector-curvature="0"
       id="path242"
       style="fill:#000000;fill-opacity:1;fill-rule:nonzero;stroke:none"
       d="m 174.74,55.8 c 0,1.0438 -0.846,1.8898 -1.89,1.8898 -1.044,0 -1.89,-0.846 -1.89,-1.8898 0,-1.0438 0.846,-1.8898 1.89,-1.8898 1.044,0 1.89,0.846 1.89,1.8898" /><path
       inkscape:connector-curvature="0"
       id="path244"
       style="fill:#000000;fill-opacity:1;fill-rule:nonzero;stroke:none"
       d="m 185.64,58.15 c 0,1.0438 -0.846,1.8898 -1.89,1.8898 -1.044,0 -1.89,-0.846 -1.89,-1.8898 0,-1.0438 0.846,-1.8898 1.89,-1.8898 1.044,0 1.89,0.846 1.89,1.8898" /><path
       inkscape:connector-curvature="0"
       id="path246"
       style="fill:#000000;fill-opacity:1;fill-rule:nonzero;stroke:none"
       d="m 196.59,61.8 c 0,1.0438 -0.846,1.8898 -1.89,1.8898 -1.044,0 -1.89,-0.846 -1.89,-1.8898 0,-1.0438 0.846,-1.8898 1.89,-1.8898 1.044,0 1.89,0.846 1.89,1.8898" /><path
       inkscape:connector-curvature="0"
       id="path248"
       style="fill:#000000;fill-opacity:1;fill-rule:nonzero;stroke:none"
       d="m 202.04,66.2 c 0,1.0438 -0.846,1.8898 -1.89,1.8898 -1.044,0 -1.89,-0.846 -1.89,-1.8898 0,-1.0438 0.846,-1.8898 1.89,-1.8898 1.044,0 1.89,0.846 1.89,1.8898" /><path
       inkscape:connector-curvature="0"
       id="path250"
       style="fill:#000000;fill-opacity:1;fill-rule:nonzero;stroke:none"
       d="m 207.49,73.6 c 0,1.0438 -0.846,1.8898 -1.89,1.8898 -1.044,0 -1.89,-0.846 -1.89,-1.8898 0,-1.0438 0.846,-1.8898 1.89,-1.8898 1.044,0 1.89,0.846 1.89,1.8898" /><path
       inkscape:connector-curvature="0"
       id="path252"
       style="fill:#000000;fill-opacity:1;fill-rule:nonzero;stroke:none"
       d="m 218.44,98.4 c 0,1.0438 -0.846,1.89 -1.89,1.89 -1.044,0 -1.89,-0.8462 -1.89,-1.89 0,-1.0438 0.846,-1.8898 1.89,-1.8898 1.044,0 1.89,0.846 1.89,1.8898" /><path
       inkscape:connector-curvature="0"
       id="path254"
       style="fill:#000000;fill-opacity:1;fill-rule:nonzero;stroke:none"
       d="m 229.34,121.7 c 0,1.044 -0.846,1.89 -1.89,1.89 -1.044,0 -1.89,-0.846 -1.89,-1.89 0,-1.044 0.846,-1.89 1.89,-1.89 1.044,0 1.89,0.846 1.89,1.89" /><path
       inkscape:connector-curvature="0"
       id="path256"
       style="fill:#000000;fill-opacity:1;fill-rule:nonzero;stroke:none"
       d="m 240.29,147.3 c 0,1.044 -0.846,1.89 -1.89,1.89 -1.044,0 -1.89,-0.846 -1.89,-1.89 0,-1.044 0.846,-1.89 1.89,-1.89 1.044,0 1.89,0.846 1.89,1.89" /><path
       inkscape:connector-curvature="0"
       id="path258"
       style="fill:#000000;fill-opacity:1;fill-rule:nonzero;stroke:none"
       d="m 251.19,152.8 c 0,1.044 -0.846,1.89 -1.89,1.89 -1.044,0 -1.89,-0.846 -1.89,-1.89 0,-1.044 0.846,-1.89 1.89,-1.89 1.044,0 1.89,0.846 1.89,1.89" /><path
       inkscape:connector-curvature="0"
       id="path260"
       style="fill:#000000;fill-opacity:1;fill-rule:nonzero;stroke:none"
       d="m 262.14,161.2 c 0,1.044 -0.846,1.89 -1.89,1.89 -1.044,0 -1.89,-0.846 -1.89,-1.89 0,-1.044 0.846,-1.89 1.89,-1.89 1.044,0 1.89,0.846 1.89,1.89" /><path
       inkscape:connector-curvature="0"
       id="path262"
       style="fill:#000000;fill-opacity:1;fill-rule:nonzero;stroke:none"
       d="m 272.89,164.95 c 0,1.044 -0.846,1.89 -1.89,1.89 -1.044,0 -1.89,-0.846 -1.89,-1.89 0,-1.044 0.846,-1.89 1.89,-1.89 1.044,0 1.89,0.846 1.89,1.89" /><path
       inkscape:connector-curvature="0"
       id="path264"
       style="fill:#000000;fill-opacity:1;fill-rule:nonzero;stroke:none"
       d="m 283.84,170.8 c 0,1.044 -0.846,1.89 -1.89,1.89 -1.044,0 -1.89,-0.846 -1.89,-1.89 0,-1.044 0.846,-1.89 1.89,-1.89 1.044,0 1.89,0.846 1.89,1.89" /><path
       inkscape:connector-curvature="0"
       id="path266"
       style="fill:#000000;fill-opacity:1;fill-rule:nonzero;stroke:none"
       d="m 289.29,178.65 c 0,1.044 -0.846,1.89 -1.89,1.89 -1.044,0 -1.89,-0.846 -1.89,-1.89 0,-1.044 0.846,-1.89 1.89,-1.89 1.044,0 1.89,0.846 1.89,1.89" /><path
       inkscape:connector-curvature="0"
       id="path268"
       style="fill:#000000;fill-opacity:1;fill-rule:nonzero;stroke:none"
       d="m 294.74,181.85 c 0,1.044 -0.846,1.89 -1.89,1.89 -1.044,0 -1.89,-0.846 -1.89,-1.89 0,-1.044 0.846,-1.89 1.89,-1.89 1.044,0 1.89,0.846 1.89,1.89" /><path
       inkscape:connector-curvature="0"
       id="path270"
       style="fill:#000000;fill-opacity:1;fill-rule:nonzero;stroke:none"
       d="m 300.19,198.6 c 0,1.044 -0.846,1.89 -1.89,1.89 -1.044,0 -1.89,-0.846 -1.89,-1.89 0,-1.044 0.846,-1.89 1.89,-1.89 1.044,0 1.89,0.846 1.89,1.89" /><path
       inkscape:connector-curvature="0"
       id="path272"
       style="fill:#000000;fill-opacity:1;fill-rule:nonzero;stroke:none"
       d="m 311.14,214.4 c 0,1.044 -0.846,1.89 -1.89,1.89 -1.044,0 -1.89,-0.846 -1.89,-1.89 0,-1.044 0.846,-1.89 1.89,-1.89 1.044,0 1.89,0.846 1.89,1.89" /><path
       inkscape:connector-curvature="0"
       id="path274"
       style="fill:#000000;fill-opacity:1;fill-rule:nonzero;stroke:none"
       d="m 316.59,219.3 c 0,1.044 -0.846,1.89 -1.89,1.89 -1.044,0 -1.89,-0.846 -1.89,-1.89 0,-1.044 0.846,-1.89 1.89,-1.89 1.044,0 1.89,0.846 1.89,1.89" /><path
       inkscape:connector-curvature="0"
       id="path276"
       style="fill:#000000;fill-opacity:1;fill-rule:nonzero;stroke:none"
       d="m 332.99,232.45 c 0,1.044 -0.846,1.89 -1.89,1.89 -1.044,0 -1.89,-0.846 -1.89,-1.89 0,-1.044 0.846,-1.89 1.89,-1.89 1.044,0 1.89,0.846 1.89,1.89" /><path
       inkscape:connector-curvature="0"
       id="path278"
       style="fill:none;stroke:#000000;stroke-width:0.25;stroke-linecap:butt;stroke-linejoin:miter;stroke-miterlimit:3.79999995;stroke-opacity:1;stroke-dasharray:1, 1.5;stroke-dashoffset:0"
       d="m 63.7,44.3 0.05,0 27.3,0.4 27.3,0.65 27.2,0.7 27.3,1.65 27.3,3.05 27.3,9 21.85,4.8 10.95,4.95 10.75,6.65 10.95,3.35 10.9,21.65 10.95,51.45 10.9,34.35 10.95,26.15 5.45,19.35 4.9,3.5" /><path
       inkscape:connector-curvature="0"
       id="path280"
       style="fill:none;stroke:#000000;stroke-width:0.25;stroke-linecap:butt;stroke-linejoin:miter;stroke-miterlimit:3.79999995;stroke-opacity:1;stroke-dasharray:none"
       d="m 65.6398,44.3 c 0,1.0438 -0.846,1.8898 -1.8898,1.8898 -1.0438,0 -1.8898,-0.846 -1.8898,-1.8898 0,-1.0438 0.846,-1.8898 1.8898,-1.8898 1.0438,0 1.8898,0.846 1.8898,1.8898" /><path
       inkscape:connector-curvature="0"
       id="path282"
       style="fill:none;stroke:#000000;stroke-width:0.25;stroke-linecap:butt;stroke-linejoin:miter;stroke-miterlimit:3.79999995;stroke-opacity:1;stroke-dasharray:none"
       d="m 92.9398,44.7 c 0,1.0438 -0.846,1.8898 -1.8898,1.8898 -1.0438,0 -1.8898,-0.846 -1.8898,-1.8898 0,-1.0438 0.846,-1.8898 1.8898,-1.8898 1.0438,0 1.8898,0.846 1.8898,1.8898" /><path
       inkscape:connector-curvature="0"
       id="path284"
       style="fill:none;stroke:#000000;stroke-width:0.25;stroke-linecap:butt;stroke-linejoin:miter;stroke-miterlimit:3.79999995;stroke-opacity:1;stroke-dasharray:none"
       d="m 120.24,45.35 c 0,1.0438 -0.846,1.8898 -1.89,1.8898 -1.044,0 -1.89,-0.846 -1.89,-1.8898 0,-1.0438 0.846,-1.8898 1.89,-1.8898 1.044,0 1.89,0.846 1.89,1.8898" /><path
       inkscape:connector-curvature="0"
       id="path286"
       style="fill:none;stroke:#000000;stroke-width:0.25;stroke-linecap:butt;stroke-linejoin:miter;stroke-miterlimit:3.79999995;stroke-opacity:1;stroke-dasharray:none"
       d="m 147.44,46.05 c 0,1.0438 -0.846,1.8898 -1.89,1.8898 -1.044,0 -1.89,-0.846 -1.89,-1.8898 0,-1.0438 0.846,-1.8898 1.89,-1.8898 1.044,0 1.89,0.846 1.89,1.8898" /><path
       inkscape:connector-curvature="0"
       id="path288"
       style="fill:none;stroke:#000000;stroke-width:0.25;stroke-linecap:butt;stroke-linejoin:miter;stroke-miterlimit:3.79999995;stroke-opacity:1;stroke-dasharray:none"
       d="m 174.74,47.7 c 0,1.0438 -0.846,1.8898 -1.89,1.8898 -1.044,0 -1.89,-0.846 -1.89,-1.8898 0,-1.0438 0.846,-1.8898 1.89,-1.8898 1.044,0 1.89,0.846 1.89,1.8898" /><path
       inkscape:connector-curvature="0"
       id="path290"
       style="fill:none;stroke:#000000;stroke-width:0.25;stroke-linecap:butt;stroke-linejoin:miter;stroke-miterlimit:3.79999995;stroke-opacity:1;stroke-dasharray:none"
       d="m 202.04,50.75 c 0,1.0438 -0.846,1.8898 -1.89,1.8898 -1.044,0 -1.89,-0.846 -1.89,-1.8898 0,-1.0438 0.846,-1.8898 1.89,-1.8898 1.044,0 1.89,0.846 1.89,1.8898" /><path
       inkscape:connector-curvature="0"
       id="path292"
       style="fill:none;stroke:#000000;stroke-width:0.25;stroke-linecap:butt;stroke-linejoin:miter;stroke-miterlimit:3.79999995;stroke-opacity:1;stroke-dasharray:none"
       d="m 229.34,59.75 c 0,1.0438 -0.846,1.8898 -1.89,1.8898 -1.044,0 -1.89,-0.846 -1.89,-1.8898 0,-1.0438 0.846,-1.8898 1.89,-1.8898 1.044,0 1.89,0.846 1.89,1.8898" /><path
       inkscape:connector-curvature="0"
       id="path294"
       style="fill:none;stroke:#000000;stroke-width:0.25;stroke-linecap:butt;stroke-linejoin:miter;stroke-miterlimit:3.79999995;stroke-opacity:1;stroke-dasharray:none"
       d="m 251.19,64.55 c 0,1.0438 -0.846,1.8898 -1.89,1.8898 -1.044,0 -1.89,-0.846 -1.89,-1.8898 0,-1.0438 0.846,-1.8898 1.89,-1.8898 1.044,0 1.89,0.846 1.89,1.8898" /><path
       inkscape:connector-curvature="0"
       id="path296"
       style="fill:none;stroke:#000000;stroke-width:0.25;stroke-linecap:butt;stroke-linejoin:miter;stroke-miterlimit:3.79999995;stroke-opacity:1;stroke-dasharray:none"
       d="m 262.14,69.5 c 0,1.0438 -0.846,1.8898 -1.89,1.8898 -1.044,0 -1.89,-0.846 -1.89,-1.8898 0,-1.0438 0.846,-1.8898 1.89,-1.8898 1.044,0 1.89,0.846 1.89,1.8898" /><path
       inkscape:connector-curvature="0"
       id="path298"
       style="fill:none;stroke:#000000;stroke-width:0.25;stroke-linecap:butt;stroke-linejoin:miter;stroke-miterlimit:3.79999995;stroke-opacity:1;stroke-dasharray:none"
       d="m 272.89,76.15 c 0,1.0438 -0.846,1.8898 -1.89,1.8898 -1.044,0 -1.89,-0.846 -1.89,-1.8898 0,-1.0438 0.846,-1.8898 1.89,-1.8898 1.044,0 1.89,0.846 1.89,1.8898" /><path
       inkscape:connector-curvature="0"
       id="path300"
       style="fill:none;stroke:#000000;stroke-width:0.25;stroke-linecap:butt;stroke-linejoin:miter;stroke-miterlimit:3.79999995;stroke-opacity:1;stroke-dasharray:none"
       d="m 283.84,79.5 c 0,1.0438 -0.846,1.8898 -1.89,1.8898 -1.044,0 -1.89,-0.846 -1.89,-1.8898 0,-1.0438 0.846,-1.8898 1.89,-1.8898 1.044,0 1.89,0.846 1.89,1.8898" /><path
       inkscape:connector-curvature="0"
       id="path302"
       style="fill:none;stroke:#000000;stroke-width:0.25;stroke-linecap:butt;stroke-linejoin:miter;stroke-miterlimit:3.79999995;stroke-opacity:1;stroke-dasharray:none"
       d="m 294.74,101.15 c 0,1.044 -0.846,1.89 -1.89,1.89 -1.044,0 -1.89,-0.846 -1.89,-1.89 0,-1.044 0.846,-1.8898 1.89,-1.8898 1.044,0 1.89,0.8458 1.89,1.8898" /><path
       inkscape:connector-curvature="0"
       id="path304"
       style="fill:none;stroke:#000000;stroke-width:0.25;stroke-linecap:butt;stroke-linejoin:miter;stroke-miterlimit:3.79999995;stroke-opacity:1;stroke-dasharray:none"
       d="m 305.69,152.6 c 0,1.044 -0.846,1.89 -1.89,1.89 -1.044,0 -1.89,-0.846 -1.89,-1.89 0,-1.044 0.846,-1.89 1.89,-1.89 1.044,0 1.89,0.846 1.89,1.89" /><path
       inkscape:connector-curvature="0"
       id="path306"
       style="fill:none;stroke:#000000;stroke-width:0.25;stroke-linecap:butt;stroke-linejoin:miter;stroke-miterlimit:3.79999995;stroke-opacity:1;stroke-dasharray:none"
       d="m 316.59,186.95 c 0,1.044 -0.846,1.89 -1.89,1.89 -1.044,0 -1.89,-0.846 -1.89,-1.89 0,-1.044 0.846,-1.89 1.89,-1.89 1.044,0 1.89,0.846 1.89,1.89" /><path
       inkscape:connector-curvature="0"
       id="path308"
       style="fill:none;stroke:#000000;stroke-width:0.25;stroke-linecap:butt;stroke-linejoin:miter;stroke-miterlimit:3.79999995;stroke-opacity:1;stroke-dasharray:none"
       d="m 327.54,213.1 c 0,1.044 -0.846,1.89 -1.89,1.89 -1.044,0 -1.89,-0.846 -1.89,-1.89 0,-1.044 0.846,-1.89 1.89,-1.89 1.044,0 1.89,0.846 1.89,1.89" /><path
       inkscape:connector-curvature="0"
       id="path310"
       style="fill:none;stroke:#000000;stroke-width:0.25;stroke-linecap:butt;stroke-linejoin:miter;stroke-miterlimit:3.79999995;stroke-opacity:1;stroke-dasharray:none"
       d="m 332.99,232.45 c 0,1.044 -0.846,1.89 -1.89,1.89 -1.044,0 -1.89,-0.846 -1.89,-1.89 0,-1.044 0.846,-1.89 1.89,-1.89 1.044,0 1.89,0.846 1.89,1.89" /><path
       inkscape:connector-curvature="0"
       id="path312"
       style="fill:none;stroke:#000000;stroke-width:0.25;stroke-linecap:butt;stroke-linejoin:miter;stroke-miterlimit:3.79999995;stroke-opacity:1;stroke-dasharray:none"
       d="m 337.89,235.95 c 0,1.044 -0.846,1.89 -1.89,1.89 -1.044,0 -1.89,-0.846 -1.89,-1.89 0,-1.044 0.846,-1.89 1.89,-1.89 1.044,0 1.89,0.846 1.89,1.89" /><path
       inkscape:connector-curvature="0"
       id="path314"
       style="fill:none;stroke:#000000;stroke-width:0.5;stroke-linecap:butt;stroke-linejoin:miter;stroke-miterlimit:3.79999995;stroke-opacity:1;stroke-dasharray:none"
       d="m 63.7,41.6 272.85,0 0,194.75 -272.85,0 0,-194.75 z" /><flowRoot
       transform="matrix(0.8,0,0,-0.8,-329.88176,753.97833)"
       xml:space="preserve"
       id="flowRoot3415-2-6-0"
       style="font-size:40px;font-style:normal;font-weight:normal;line-height:125%;letter-spacing:0px;word-spacing:0px;fill:#000000;fill-opacity:1;stroke:none;font-family:Sans"><flowRegion
         id="flowRegion3417-0-9-77"><rect
           id="rect3419-8-2-16"
           width="53.933884"
           height="17.623756"
           x="543.22882"
           y="657.27106" /></flowRegion><flowPara
         id="flowPara3421-6-2-6"
         style="font-size:13px;font-style:normal;font-variant:normal;font-weight:normal;font-stretch:normal;font-family:Arial;-inkscape-font-specification:Arial">Q=0.01</flowPara></flowRoot><flowRoot
       transform="matrix(0.8,0,0,-0.8,-330.04196,737.74392)"
       xml:space="preserve"
       id="flowRoot3415-2-6-5"
       style="font-size:40px;font-style:normal;font-weight:normal;line-height:125%;letter-spacing:0px;word-spacing:0px;fill:#000000;fill-opacity:1;stroke:none;font-family:Sans"><flowRegion
         id="flowRegion3417-0-9-4"><rect
           id="rect3419-8-2-1"
           width="53.933884"
           height="17.623756"
           x="543.22882"
           y="657.27106" /></flowRegion><flowPara
         id="flowPara3421-6-2-4"
         style="font-size:13px;font-style:normal;font-variant:normal;font-weight:normal;font-stretch:normal;font-family:Arial;-inkscape-font-specification:Arial">Q=0.05</flowPara></flowRoot><flowRoot
       transform="matrix(0.8,0,0,-0.8,-330.03302,721.88796)"
       xml:space="preserve"
       id="flowRoot3415-2-6-5-8"
       style="font-size:40px;font-style:normal;font-weight:normal;line-height:125%;letter-spacing:0px;word-spacing:0px;fill:#000000;fill-opacity:1;stroke:none;font-family:Sans"><flowRegion
         id="flowRegion3417-0-9-4-1"><rect
           id="rect3419-8-2-1-2"
           width="53.933884"
           height="17.623756"
           x="543.22882"
           y="657.27106" /></flowRegion><flowPara
         id="flowPara3421-6-2-4-8"
         style="font-size:13px;font-style:normal;font-variant:normal;font-weight:normal;font-stretch:normal;font-family:Arial;-inkscape-font-specification:Arial">Q=0.1</flowPara></flowRoot><g
       id="g4451"
       transform="translate(-8.8640271,8.8713256)"><path
         inkscape:connector-curvature="0"
         inkscape:original-d="m 83.152064,180.45604 23.590006,0"
         inkscape:path-effect="#path-effect3510-71"
         id="path3508-0"
         d="m 83.152064,180.45604 23.590006,0"
         style="fill:none;stroke:#000000;stroke-width:0.57271045px;stroke-linecap:butt;stroke-linejoin:miter;stroke-opacity:1" /><path
         d="m 96.65695,180.45763 c 0,1.044 -0.846,1.89 -1.89,1.89 -1.044,0 -1.89,-0.846 -1.89,-1.89 0,-1.044 0.846,-1.89 1.89,-1.89 1.044,0 1.89,0.846 1.89,1.89"
         style="fill:#000000;fill-opacity:1;fill-rule:nonzero;stroke:none"
         id="path244-6"
         inkscape:connector-curvature="0" /></g><g
       id="g4447"
       transform="translate(-9.5961671,7.9403956)"><path
         inkscape:connector-curvature="0"
         inkscape:original-d="m 83.529582,197.44458 23.589998,0"
         inkscape:path-effect="#path-effect3510-7"
         id="path3508-4-4"
         d="m 83.529582,197.44458 23.589998,0"
         style="fill:none;stroke:#0000ff;stroke-width:0.57271045px;stroke-linecap:butt;stroke-linejoin:miter;stroke-opacity:1" /><path
         d="m 95.300846,199.43238 -1.89,-1.89 1.89,-1.89 1.89,1.89 -1.89,1.89"
         style="fill:#0000ff;fill-opacity:1;fill-rule:nonzero;stroke:none"
         id="path188-1"
         inkscape:connector-curvature="0" /></g><g
       id="g4443"
       transform="translate(-9.5978671,4.2600856)"><path
         inkscape:connector-curvature="0"
         inkscape:original-d="m 83.725782,217.13867 23.589998,0"
         inkscape:path-effect="#path-effect3510-79"
         id="path3508-8"
         d="m 83.725782,217.13867 23.589998,0"
         style="fill:none;stroke:#ff0000;stroke-width:0.57271045px;stroke-linecap:butt;stroke-linejoin:miter;stroke-opacity:1" /><path
         d="m 95.30085,215.23186 -1.89,3.0617 3.78,0 -1.89,-3.0617"
         style="fill:#ff0000;fill-opacity:1;fill-rule:nonzero;stroke:none"
         id="path138-5"
         inkscape:connector-curvature="0" /></g><flowRoot
       xml:space="preserve"
       id="flowRoot3415-9"
       style="font-size:40px;font-style:normal;font-weight:normal;line-height:125%;letter-spacing:0px;word-spacing:0px;fill:#000000;fill-opacity:1;stroke:none;font-family:Sans"
       transform="matrix(0.8,0,0,-0.8,-238.85458,554.66295)"><flowRegion
         id="flowRegion3417-4"><rect
           id="rect3419-4"
           width="45.84206"
           height="49.280262"
           x="543.22882"
           y="657.27106" /></flowRegion><flowPara
         id="flowPara3421-7"
         style="font-size:22px;font-style:normal;font-variant:normal;font-weight:normal;font-stretch:normal;font-family:Arial;-inkscape-font-specification:Arial">p</flowPara></flowRoot><flowRoot
       transform="matrix(0.8,0,0,-0.8,-414.88781,676.18461)"
       xml:space="preserve"
       id="flowRoot3415-2-0"
       style="font-size:40px;font-style:normal;font-weight:normal;line-height:125%;letter-spacing:0px;word-spacing:0px;fill:#000000;fill-opacity:1;stroke:none;font-family:Sans"><flowRegion
         id="flowRegion3417-0-4"><rect
           id="rect3419-8-5"
           width="23.805779"
           height="28.748156"
           x="543.22882"
           y="657.27106" /></flowRegion><flowPara
         id="flowPara3421-6-3"
         style="font-size:20px;font-style:normal;font-variant:normal;font-weight:normal;font-stretch:normal;font-family:Arial;-inkscape-font-specification:Arial">R</flowPara></flowRoot><flowRoot
       transform="matrix(0.8,0,0,-0.8,-330.14131,706.59872)"
       xml:space="preserve"
       id="flowRoot3415-2-6-5-8-6"
       style="font-size:40px;font-style:normal;font-weight:normal;line-height:125%;letter-spacing:0px;word-spacing:0px;fill:#000000;fill-opacity:1;stroke:none;font-family:Sans"><flowRegion
         id="flowRegion3417-0-9-4-1-6"><rect
           id="rect3419-8-2-1-2-1"
           width="53.933884"
           height="17.623756"
           x="543.22882"
           y="657.27106" /></flowRegion><flowPara
         id="flowPara3421-6-2-4-8-8"
         style="font-size:13px;font-style:normal;font-variant:normal;font-weight:normal;font-stretch:normal;font-family:Arial;-inkscape-font-specification:Arial">Q=0.5</flowPara></flowRoot><g
       id="g4742"
       transform="translate(0,0.79915245)"><path
         inkscape:connector-curvature="0"
         inkscape:original-d="m 73.812836,172.52647 23.590006,0"
         inkscape:path-effect="#path-effect3510-71-1"
         id="path3508-0-2"
         d="m 73.812836,172.52647 23.590006,0"
         style="fill:none;stroke:#000000;stroke-width:0.57279998;stroke-linecap:butt;stroke-linejoin:miter;stroke-miterlimit:4;stroke-opacity:1;stroke-dasharray:1.7184, 0.5728;stroke-dashoffset:0" /><path
         d="m 87.965269,172.52796 c 0,1.044 -0.846,1.89 -1.89,1.89 -1.044,0 -1.89,-0.846 -1.89,-1.89 0,-1.044 0.846,-1.8898 1.89,-1.8898 1.044,0 1.89,0.8458 1.89,1.8898"
         style="fill:#ffffff;stroke:#000000;stroke-width:0.25;stroke-linecap:butt;stroke-linejoin:miter;stroke-miterlimit:3.79999995;stroke-opacity:1;stroke-dasharray:none"
         id="path302-8"
         inkscape:connector-curvature="0" /></g></g></svg>